<svg width="1200" height="1200" viewBox="0 0 1200 1200" fill="none" xmlns="http://www.w3.org/2000/svg">
<rect width="1200" height="1200" fill="white"/>
<g clip-path="url(#clip0_7_863)">
<mask id="mask0_7_863" style="mask-type:luminance" maskUnits="userSpaceOnUse" x="200" y="400" width="800" height="400">
<path d="M999.999 400H200V800H999.999V400Z" fill="white"/>
</mask>
<g mask="url(#mask0_7_863)">
<path d="M600 800H200V400H600V800ZM216.667 742.8C218.8 776.267 242.267 787.6 272.8 787.6C305.067 787.6 329.733 770.533 329.733 736.267C329.733 707.467 311.6 691.067 283.2 691.067C272.667 691.067 263.067 694 256.133 701.067H255.733L260.933 675.867H322.4V647.2H234.8L221.333 725.6H252C257.333 717.067 264.533 715.067 274.133 715.067C288.267 715.067 296 724.4 296 738C296 751.6 286.267 760.267 272.933 760.267C262.8 760.267 250.667 753.867 250.667 742.933H216.667V742.8ZM438.133 726.267V647.067H405.733L343.733 723.2V754.8H404.4V785.6H438.267V754.8H456.4V726.133H438.133V726.267ZM370 726.267L404.933 681.467H405.333V726.267H370ZM580.267 785.733V757.067H514.4C523.6 748.267 528.667 744.8 539.467 738.4C559.733 725.733 578.8 716.133 578.8 689.333C578.8 659.733 554.4 645.333 526.933 645.333C492.533 645.333 470.267 668.533 472.4 702.933H504C504 687.867 509.2 674.933 527.067 674.933C538 674.933 544.933 681.333 544.933 692.267C544.933 701.6 537.333 708.4 526.8 715.333C515.867 722.267 502.533 729.2 490.667 739.6C476.933 751.467 469.2 768 468.933 785.733H580.267Z" fill="#1F283A"/>
<path d="M615.875 768.938H632.675V785.737H615.875V768.938Z" fill="#1F283A"/>
<path d="M644.281 721.336H672.015C691.748 721.336 703.615 733.336 703.615 753.202C703.615 774.269 691.615 785.602 672.015 785.602H644.281V721.336ZM661.081 771.336H668.948C681.615 771.069 686.681 766.136 686.681 753.202C686.681 741.336 680.415 735.869 668.948 735.869H661.081V771.336Z" fill="#1F283A"/>
<path d="M712.656 721.336H729.456V785.736H712.656V721.336Z" fill="#1F283A"/>
<path d="M800.523 785.733H789.723L788.79 778.667C784.523 784.933 776.656 787.067 770.79 787.067C751.19 787.067 738.656 772.133 738.656 753.6C738.656 734.933 751.19 720 770.79 720C784.123 720 798.523 727.067 799.856 743.2H783.056C782.39 737.733 777.19 734.4 770.39 734.4C759.59 734.4 755.456 743.867 755.456 753.467C755.456 763.067 759.59 772.533 770.39 772.533C778.656 772.533 784.123 768.667 785.19 762.8H773.456V750.4H800.523V785.733Z" fill="#1F283A"/>
<path d="M811.188 721.336H827.988V785.736H811.188V721.336Z" fill="#1F283A"/>
<path d="M890.67 735.736H871.47V785.736H854.67V735.736H835.469V721.336H890.67V735.736Z" fill="#1F283A"/>
<path d="M907.211 721.336H924.278L948.411 785.736H930.944L926.944 774.136H904.544L900.544 785.736H883.344L907.211 721.336ZM908.277 761.736H922.944L915.878 739.202H915.744L908.277 761.736Z" fill="#1F283A"/>
<path d="M953.188 721.336H969.987V771.336H999.987V785.736H953.188V721.336Z" fill="#1F283A"/>
</g>
</g>
<defs>
<clipPath id="clip0_7_863">
<rect width="800" height="400" fill="white" transform="translate(200 400)"/>
</clipPath>
</defs>
</svg>
