<svg width="1200" height="1200" viewBox="0 0 1200 1200" fill="none" xmlns="http://www.w3.org/2000/svg">
<rect width="1200" height="1200" fill="white"/>
<g clip-path="url(#clip0_6_667)">
<path d="M354.832 604.973C352.795 594.786 346.003 590.032 332.421 590.032C317.481 590.032 308.652 597.503 308.652 611.085V611.764C308.652 624.667 316.122 631.458 331.742 631.458C346.003 631.458 352.116 626.705 354.153 617.197C354.153 616.518 354.832 615.839 355.511 615.839H374.526H375.205C373.847 634.854 359.586 647.078 331.742 647.078C301.861 647.078 289.637 633.496 289.637 611.764V610.406C289.637 587.995 306.615 573.733 332.421 573.733C357.548 573.733 372.489 583.92 375.205 602.935C375.205 603.615 374.526 604.294 373.847 604.294L354.832 604.973Z" fill="#262626"/>
<path d="M265.88 632.138C265.88 631.458 265.201 630.779 264.522 630.779C263.843 630.779 263.843 630.779 263.843 631.458C255.693 641.645 242.79 647.078 229.887 645.72C212.23 645.72 202.043 639.608 202.043 626.705C202.043 619.913 206.118 613.122 212.909 609.727C219.7 606.331 225.812 604.973 246.186 603.615C260.447 602.935 265.201 601.577 265.201 596.823C265.201 592.07 261.126 587.995 246.865 587.995C231.245 587.995 225.812 591.39 224.454 598.861C223.775 599.54 223.096 599.54 222.416 599.54H205.439C204.759 599.54 204.08 598.861 204.08 598.182C206.797 581.883 220.379 573.733 244.827 573.733C269.955 573.733 282.858 580.525 282.858 600.898V642.324C282.858 643.003 282.179 643.682 281.5 643.682H268.596C267.917 643.682 267.238 643.003 267.238 642.324L265.88 632.138ZM264.522 613.801C264.522 613.122 263.843 612.443 263.164 612.443H262.484C257.731 613.801 252.977 615.16 248.223 615.16C240.753 615.16 233.282 616.518 227.17 618.555C224.454 619.234 223.096 621.951 223.096 624.667C223.096 629.421 226.491 632.138 235.999 632.138C251.619 632.138 263.164 623.309 264.522 613.801Z" fill="#262626"/>
<path d="M416.634 613.12L399.656 627.381C399.656 627.381 398.977 628.06 398.977 628.739V643.001C398.977 643.68 398.298 644.359 397.619 644.359H381.999C381.32 644.359 380.641 643.68 380.641 643.001V555.395C380.641 554.715 381.32 554.036 381.999 554.036H397.619C398.298 554.036 398.977 554.715 398.977 555.395V606.328C398.977 607.008 399.656 607.687 400.335 607.687H401.014L437.686 576.447H438.366H459.418C460.097 576.447 460.776 577.126 460.776 577.805C460.776 578.485 460.776 578.485 460.097 579.164L432.933 602.254C432.254 602.933 432.254 603.612 432.933 604.291L462.135 642.322C462.814 643.001 462.814 643.68 462.135 644.359H461.456H442.44C441.761 644.359 441.761 644.359 441.082 643.68L418.671 613.12C418.671 613.12 417.313 612.44 416.634 613.12Z" fill="#262626"/>
<path d="M499.492 646.399C468.932 646.399 457.387 632.138 457.387 611.764V611.085C457.387 590.711 472.327 573.733 500.85 573.733C528.015 573.733 542.955 587.995 542.955 609.727V615.839C542.955 616.518 542.276 617.197 541.597 617.197H475.723C477.76 626.705 485.231 631.458 500.85 631.458C511.716 631.458 517.828 628.742 520.545 624.667C520.545 623.988 521.224 623.988 521.903 623.988H540.239C540.918 623.988 541.597 624.667 541.597 625.346V626.025C534.806 640.287 519.865 646.399 499.492 646.399ZM476.402 602.935H524.619C522.582 592.749 515.112 588.674 501.529 588.674C487.268 588.674 479.118 594.107 476.402 602.935Z" fill="#262626"/>
<path d="M549.746 642.325V577.808C549.746 577.129 550.425 576.45 551.104 576.45H564.687C565.366 576.45 566.045 577.129 566.045 577.808L568.082 594.786C570.799 582.562 582.344 574.413 594.568 575.771H600.68C601.359 575.771 602.038 576.45 602.038 577.129V592.749C602.038 593.428 601.359 594.107 600.68 594.107H593.889C573.515 594.107 568.761 600.898 568.761 619.914V643.004C568.761 643.683 568.082 644.362 567.403 644.362H551.104C549.746 643.683 549.746 643.683 549.746 642.325Z" fill="#262626"/>
<path d="M626.481 643.68H610.182C609.503 643.68 608.824 643.001 608.824 642.322V576.447C608.824 575.768 609.503 575.089 610.182 575.089H623.765C624.444 575.089 625.123 575.768 625.123 576.447L625.802 585.955C625.802 586.634 626.481 587.313 627.16 587.313C627.84 587.313 627.839 587.313 627.839 586.634C633.272 578.485 642.101 573.731 651.609 573.731C661.795 573.052 671.982 578.485 676.736 587.992C676.736 588.671 678.094 588.671 678.773 588.671C678.773 588.671 679.452 588.671 679.452 587.992C684.885 578.485 694.393 573.052 705.259 573.731C724.953 573.731 735.14 586.634 735.14 606.328V642.322C735.14 643.001 734.461 643.68 733.782 643.68H717.483C716.804 643.68 716.125 643.001 716.125 642.322V610.403C716.125 598.179 712.05 590.03 699.147 590.03C687.602 590.03 682.169 598.858 682.169 611.761V643.001C682.169 643.68 681.49 644.359 680.811 644.359H664.512C663.833 644.359 663.154 643.68 663.154 643.001V609.045C663.154 597.5 659.758 589.35 646.176 589.35C633.952 589.35 628.519 598.179 628.519 612.44V643.001C627.839 643.68 627.16 643.68 626.481 643.68Z" fill="#262626"/>
<path d="M804.418 632.138C804.418 631.458 803.739 630.779 803.06 630.779C802.381 630.779 802.381 630.779 802.381 631.458C794.232 641.645 781.328 647.078 768.425 645.72C750.768 645.72 740.581 639.608 740.581 626.705C739.902 619.913 743.977 613.122 750.768 609.727C757.559 606.331 763.671 604.973 784.045 603.615C798.306 602.935 803.06 601.577 803.06 596.823C803.06 592.07 798.985 587.995 784.724 587.995C769.104 587.995 763.671 591.39 762.313 598.861C762.313 599.54 761.634 599.54 760.955 599.54H743.977C743.298 599.54 742.619 598.861 742.619 598.182C745.335 581.883 758.918 573.733 783.366 573.733C808.493 573.733 821.396 580.525 821.396 600.898V642.324C821.396 643.003 820.717 643.682 820.038 643.682H807.135C806.456 643.682 805.777 643.003 805.777 642.324L804.418 632.138ZM803.06 613.801C803.06 613.122 802.381 612.443 801.702 612.443H801.023C796.269 613.801 791.515 615.16 786.082 615.16C778.612 615.16 771.821 616.518 765.03 618.555C762.313 619.234 760.955 621.951 760.955 624.667C760.955 629.421 764.35 632.138 773.858 632.138C789.478 632.138 801.023 623.309 803.06 613.801Z" fill="#262626"/>
<path d="M848.563 643.683H831.585C830.906 643.683 830.227 643.004 830.227 642.325V577.809C830.227 577.13 830.906 576.451 831.585 576.451H845.846C846.525 576.451 847.204 577.13 847.204 577.809L848.563 586.638C848.563 587.317 849.242 587.996 849.921 587.996C850.6 587.996 850.6 587.996 850.6 587.317C856.712 578.488 866.899 573.734 877.765 574.414C894.064 573.055 908.325 585.279 909.683 601.578C909.683 603.616 909.683 604.974 909.683 607.011V643.683C909.683 644.363 909.004 645.042 908.325 645.042H892.026C891.347 645.042 890.668 644.363 890.668 643.683V610.407C890.668 597.504 885.914 589.354 871.653 589.354C856.712 589.354 849.921 597.503 849.921 612.444V642.325C849.921 643.683 849.242 643.683 848.563 643.683Z" fill="#262626"/>
<path d="M936.848 643.683H919.87C919.191 643.683 918.512 643.004 918.512 642.325V577.809C918.512 577.13 919.191 576.451 919.87 576.451H934.131C934.81 576.451 935.49 577.13 935.49 577.809L936.848 586.638C936.848 587.317 937.527 587.996 938.206 587.996C938.885 587.996 938.885 587.996 938.885 587.317C944.997 578.488 955.184 573.734 966.05 574.414C982.349 573.055 996.61 585.279 997.968 601.578C997.968 603.616 997.968 604.974 997.968 607.011V643.683C997.968 644.363 997.289 645.042 996.61 645.042H980.311C979.632 645.042 978.953 644.363 978.953 643.683V610.407C978.953 597.504 974.199 589.354 959.938 589.354C944.997 589.354 938.206 597.503 938.206 612.444V642.325C938.206 643.683 937.527 643.683 936.848 643.683Z" fill="#262626"/>
</g>
<defs>
<clipPath id="clip0_6_667">
<rect width="800" height="95.7555" fill="white" transform="translate(200 552)"/>
</clipPath>
</defs>
</svg>
