<svg width="1200" height="1200" viewBox="0 0 1200 1200" fill="none" xmlns="http://www.w3.org/2000/svg">
<rect width="1200" height="1200" fill="white"/>
<path d="M807.786 759.983C806.696 760.117 805.166 760.882 803.215 762.259C796.464 766.983 788.507 769.336 779.365 769.336C773.359 769.336 765.575 765.319 755.974 757.305L746.047 748.89L743.58 746.786L728.374 733.665C723.995 730.223 716.325 724.848 705.327 717.542C712.844 715.61 719.863 713.143 726.404 710.14L556.641 710.159C559.146 713.047 562.015 714.501 565.305 714.501C567.045 714.501 569.551 714.348 572.802 714.061C575.729 713.774 580.472 713.621 586.994 713.621C592.961 713.621 597.15 713.736 599.636 713.985L599.177 714.922C594.071 725.556 591.297 736.362 590.857 747.302C590.838 747.857 590.819 748.412 590.857 748.89C591.01 752.371 592.349 754.092 594.893 754.092C596.538 754.092 597.743 752.39 598.489 748.89C598.623 748.144 598.776 747.341 598.909 746.423C600.114 736.477 603.481 728.004 609.027 721.042C614.574 714.08 620.694 710.58 627.312 710.58C634.943 710.58 646.935 716.184 663.25 727.392L690.696 746.327C691.423 746.843 692.589 747.685 694.196 748.89C698.805 752.294 706.991 758.453 718.792 767.404C736.522 780.888 751.938 787.62 765.02 787.62C774.717 787.62 784.797 784.828 795.316 779.205C805.797 773.601 810.961 768.226 810.732 763.101C810.617 760.882 809.661 759.83 807.786 759.983Z" fill="black"/>
<path d="M987.577 704.921C977.23 702.512 970.382 699.222 966.997 695.033C963.631 690.864 959.366 680.191 954.278 663.054L950.663 651.559L927.444 574.538L880.203 417.685C878.998 413.592 877.563 411.526 875.823 411.526C874.101 411.526 872.533 413.649 871.137 417.914L816.818 574.538H830.455C830.628 573.104 831.316 570.694 832.559 567.328L864.443 475.637C865.418 472.806 866.298 471.467 867.063 471.62C868.593 471.754 870.027 474.088 871.328 478.582L872.629 483.039L898.315 566.888L899.137 570.694C899.52 572.281 899.769 573.582 899.883 574.538C899.941 574.921 899.96 575.284 899.96 575.571C899.96 579.11 897.225 580.869 891.774 580.869H842.352L837.953 580.659C832.923 580.659 830.417 578.804 830.417 575.15C830.417 574.959 830.417 574.749 830.455 574.538H816.818L787.077 660.319L782.334 674.339C779.924 680.861 776.864 687.134 773.173 693.159C769.462 699.164 766.517 702.607 764.336 703.449L758.292 705.801C756.533 706.49 755.596 707.943 755.519 710.124C755.5 710.239 755.5 710.353 755.5 710.487C755.5 713.165 756.973 714.504 759.918 714.504C760.454 714.504 763.495 714.045 769.022 713.107C770.763 712.878 773.211 712.763 776.367 712.763C783.195 712.763 789.239 712.897 794.441 713.203L810.105 714.274C812.611 714.427 814.428 714.504 815.633 714.504C818.788 714.504 820.299 713.299 820.204 710.889C820.185 710.64 820.146 710.372 820.108 710.124C819.745 708.001 818.062 706.547 815.097 705.801C807.561 703.678 802.493 701.134 799.911 698.151C797.348 695.186 796.067 690.386 796.067 683.768C796.067 676.825 798.496 666.248 803.392 651.961L814.236 620.824C817.488 611.222 820.108 605.561 822.078 603.878C824.048 602.176 829.059 601.315 837.13 601.315H896.345C902.465 601.315 906.157 601.927 907.477 603.132C908.796 604.337 910.594 608.832 912.889 616.616L921.094 644.636C927.788 667.013 931.136 681.932 931.136 689.429C931.136 697.634 928.401 702.454 922.911 703.87L917.824 705.342C915.089 706.088 913.712 707.618 913.712 709.933V710.124C913.788 713.05 915.203 714.504 917.958 714.504C919.048 714.504 920.731 714.198 923.026 713.624C926.832 712.763 936.319 712.323 951.448 712.323C965.945 712.323 976.025 712.629 981.686 713.26C984.842 713.49 986.927 713.624 987.902 713.624C990.828 713.624 992.339 712.476 992.473 710.143V710.105C992.588 707.484 990.962 705.763 987.577 704.921Z" fill="black"/>
<path d="M695.642 706.658C672.213 706.658 651.059 695.545 632.124 673.302C610.913 648.208 598.596 615.292 595.192 574.534C594.541 566.75 594.216 558.659 594.216 550.282C594.216 514.287 601.656 485.081 616.517 462.627C631.417 440.173 650.772 428.946 674.623 428.946C702.853 428.946 726.837 444.342 746.594 475.155C764.382 502.926 774.155 536.033 775.915 574.534C776.106 578.78 776.221 583.084 776.221 587.463C776.221 623.019 768.8 651.766 753.977 673.722C739.135 695.679 719.703 706.658 695.642 706.658ZM784.789 645.263C793.817 623.746 798.732 600.182 799.555 574.553C799.65 571.99 799.67 569.408 799.67 566.826C799.67 522.32 788.959 486.114 767.538 458.209C746.116 430.285 718.383 416.322 684.358 416.322C645.972 416.322 616.23 433.039 595.058 466.49C577.29 494.721 568.415 528.956 568.415 569.198C568.415 570.996 568.434 572.775 568.472 574.534C569.563 622.598 585.705 662.304 616.862 693.594C612.424 695.947 608.35 699.887 604.602 705.376L599.017 703.865C588.345 701.035 578.475 693.441 569.41 681.086L491.05 574.534H429.655V656.432C429.655 674.258 428.297 686.939 425.619 694.474C425.026 696.119 424.338 697.592 423.553 698.931C421.66 697.726 420.149 696.444 419.001 695.048C415.616 690.859 411.389 680.187 406.263 663.05L402.668 651.555L379.468 574.534L332.207 417.7C331.021 413.587 329.548 411.522 327.846 411.522C326.125 411.522 324.556 413.664 323.141 417.91L268.842 574.534H282.46C282.632 573.119 283.32 570.709 284.564 567.324L316.466 475.633C317.441 472.802 318.302 471.463 319.086 471.616C320.597 471.75 322.013 474.084 323.313 478.578L324.652 483.054L350.319 566.884L351.142 570.709C351.524 572.296 351.773 573.578 351.888 574.534C351.926 574.917 351.964 575.28 351.964 575.567C351.964 579.105 349.248 580.865 343.778 580.865H294.375L289.957 580.654C284.927 580.654 282.422 578.799 282.422 575.146C282.422 574.955 282.441 574.764 282.46 574.534H268.842L239.082 660.315L234.338 674.354C231.928 680.856 228.887 687.13 225.158 693.155C221.466 699.16 218.521 702.603 216.341 703.444L210.297 705.797C208.537 706.486 207.6 707.939 207.523 710.139V710.483C207.523 713.161 208.977 714.499 211.922 714.499C212.458 714.499 215.499 714.04 221.046 713.103C222.767 712.874 225.215 712.759 228.371 712.759C235.218 712.759 241.243 712.893 246.464 713.199L262.09 714.27C264.596 714.423 266.451 714.499 267.637 714.499C270.793 714.499 272.304 713.294 272.189 710.885C272.189 710.636 272.151 710.368 272.113 710.139C271.73 707.997 270.066 706.543 267.121 705.797C259.547 703.674 254.516 701.13 251.934 698.166C249.352 695.182 248.071 690.381 248.071 683.764C248.071 676.821 250.519 666.244 255.396 651.976L266.241 620.819C269.511 611.218 272.112 605.557 274.082 603.874C276.052 602.171 281.064 601.311 289.135 601.311H348.369C354.47 601.311 358.161 601.923 359.481 603.128C360.781 604.333 362.598 608.827 364.874 616.612L373.118 644.632C379.793 667.009 383.14 681.928 383.14 689.444C383.14 697.63 380.405 702.45 374.916 703.865L369.828 705.357C367.074 706.084 365.716 707.614 365.716 709.928V710.139C365.792 713.046 367.189 714.499 369.962 714.499C371.052 714.499 372.735 714.213 375.03 713.62C378.856 712.759 388.323 712.319 403.471 712.319C411.313 712.319 418.447 712.223 424.261 712.243C428.526 712.434 471.732 714.213 475.175 714.71C479.536 715.264 482.5 715.628 484.05 715.819C486.765 715.934 488.085 714.576 487.99 711.669C487.951 711.114 487.837 710.598 487.645 710.139C486.995 708.647 485.484 707.652 483.074 707.098C470.986 704.554 463.24 700.652 459.855 695.411C456.489 690.171 454.786 679.403 454.786 663.107V585.302C454.786 582.051 455.8 580.406 457.808 580.406C459.147 580.406 460.486 581.19 461.825 582.758L465.096 587.444L552.904 704.975L555.696 708.953C555.983 709.374 556.308 709.775 556.633 710.139H726.397C732.747 707.212 738.638 703.827 744.07 699.887C761.302 687.13 774.882 668.922 784.789 645.263Z" fill="black"/>
<path d="M480.27 556.282C480.385 554.561 481.628 552.304 484.019 549.454L539.925 483.545C567.773 450.993 586.612 433.09 596.424 429.82C601.779 428.156 604.399 426.205 604.284 423.967C604.074 421.194 602.487 419.798 599.522 419.798C598.642 419.798 596.978 420.104 594.454 420.678C592.254 421.117 587.721 421.328 580.836 421.328L568.538 421.538L553.447 420.965C547.767 420.965 542.641 420.716 538.05 420.199C536.08 419.932 534.608 419.798 533.613 419.798C530.228 419.798 528.526 421.232 528.526 424.082C528.526 426.664 531.012 428.424 535.966 429.38C543.827 431.235 547.747 435.424 547.747 441.927C547.747 449.462 542.354 459.446 531.567 471.955L461.335 553.891L458.887 556.454L456.267 558.788C455.272 558.788 454.794 557.296 454.794 554.293V470.865C454.794 456.31 455.712 446.594 457.529 441.678C459.327 436.744 463.707 432.364 470.612 428.5C473.251 427.161 474.571 425.536 474.571 423.642C474.571 420.945 473.27 419.645 470.631 419.798C469.751 419.798 467.112 420.18 462.732 420.888C460.341 421.079 457.491 421.175 454.201 421.175L441.884 421.71L435.802 421.997C423.867 421.997 415.107 421.5 409.504 420.525C407.208 420.046 405.238 419.798 403.594 419.798C400.648 419.798 399.156 421.251 399.156 424.159C399.156 426.224 400.572 427.678 403.421 428.5L411.454 430.661C418.55 432.631 423.37 436.667 425.876 442.711C428.4 448.793 429.662 459.446 429.662 474.69V574.528H491.038L484.191 565.233C481.475 561.389 480.156 558.405 480.27 556.282Z" fill="black"/>
</svg>
