<svg width="1200" height="1200" viewBox="0 0 1200 1200" fill="none" xmlns="http://www.w3.org/2000/svg">
<rect width="1200" height="1200" fill="white"/>
<path d="M390.071 557.334C396.37 560.155 401.24 564.213 404.679 569.508C408.119 574.803 409.82 580.986 409.82 588.175C409.82 595.363 408.08 601.508 404.679 606.764C401.24 612.02 396.37 616.039 390.071 618.899C383.771 621.721 376.274 623.15 367.694 623.15H351.153V647.962H324.293V553.083H367.655C376.235 553.083 383.733 554.513 390.071 557.334ZM378.554 598.378C381.336 596.02 382.766 592.542 382.766 588.136C382.766 583.73 381.336 580.329 378.554 577.856C375.771 575.421 371.597 574.184 366.071 574.184H351.192V601.972H366.071C371.559 601.972 375.733 600.774 378.554 598.378Z" fill="#004F5C"/>
<path d="M513.085 553.083V647.962H486.225V610.977H449.665V647.962H422.805V553.083H449.665V588.716H486.225V553.083C486.264 553.083 513.085 553.083 513.085 553.083Z" fill="#004F5C"/>
<path d="M601.511 652.754L650.439 606.223C656.583 600.078 659.946 591.962 659.946 583.382C659.946 574.725 656.622 566.61 650.516 560.542C644.371 554.397 636.294 551.073 627.675 551.073C619.018 551.073 610.902 554.436 604.835 560.581L601.666 563.75L598.419 560.503C592.274 554.358 584.158 550.996 575.54 550.996C566.883 550.996 558.806 554.358 552.699 560.465C546.554 566.61 543.192 574.725 543.231 583.305C543.231 591.962 546.632 600.039 552.738 606.146L601.511 652.754Z" fill="#004F5C"/>
<path d="M281.509 610.744C281.045 612.097 280.465 613.411 279.77 614.648C277.528 618.744 274.436 621.952 270.533 624.194C266.668 626.435 262.301 627.556 257.509 627.556C252.717 627.556 248.388 626.435 244.485 624.194C240.62 621.952 237.528 618.744 235.248 614.648C233.006 610.551 231.886 605.798 231.886 600.464C231.886 595.131 233.006 590.416 235.248 586.281C237.489 582.184 240.581 579.015 244.485 576.735C248.349 574.493 252.717 573.372 257.509 573.372C262.301 573.372 266.63 574.532 270.533 576.735C274.398 578.976 277.489 582.184 279.77 586.281C280.156 586.976 280.504 587.711 280.813 588.406H308.871C307.75 583.691 305.973 579.247 303.422 575.112C298.861 567.614 292.601 561.74 284.601 557.488C276.601 553.237 267.634 551.227 257.586 551.227C247.538 551.227 238.572 553.314 230.533 557.566C222.494 561.817 216.233 567.691 211.712 575.189C207.19 582.686 204.871 591.112 204.871 600.541C204.871 609.971 207.151 618.397 211.712 625.894C216.272 633.392 222.533 639.266 230.533 643.517C238.533 647.769 247.538 649.855 257.547 649.855C267.557 649.855 276.562 647.769 284.562 643.517C292.562 639.266 298.861 633.392 303.383 625.894C306.204 621.218 308.175 616.194 309.258 610.822L281.509 610.744Z" fill="#004F5C"/>
<path d="M689.664 552.155H711.693V629.449H759.461V647.42H689.664V552.155Z" fill="#004F5C"/>
<path d="M772.68 552.155H794.709V647.42H772.68V552.155Z" fill="#004F5C"/>
<path d="M910.105 552.155L868.868 647.42H847.109L806.027 552.155H829.834L858.82 620.174L888.23 552.155H910.105Z" fill="#004F5C"/>
<path d="M994.513 629.72V647.42H920.773V552.155H992.773V569.855H942.686V590.532H986.86V607.691H942.648V629.72H994.513Z" fill="#004F5C"/>
</svg>
