<svg width="1200" height="1200" viewBox="0 0 1200 1200" fill="none" xmlns="http://www.w3.org/2000/svg">
<rect width="1200" height="1200" fill="#021535"/>
<path d="M303.667 616.374C303.362 617.819 303.038 619.13 302.694 620.31C302.351 621.49 301.895 622.509 301.324 623.364C300.755 624.22 300.032 624.876 299.157 625.334C298.281 625.79 297.178 626.017 295.847 626.017H284.15V589.494H289.57V588.58H273.707V589.494H278.614V626.017H273.707V626.93H303.094C304.198 626.93 304.75 626.322 304.75 625.104V616.544C304.75 615.63 304.598 615.174 304.294 615.174C304.027 615.174 303.818 615.574 303.667 616.374Z" fill="#FFFCF8"/>
<path d="M336.811 589.494V588.58H321.461V589.494H326.368V626.017H321.461V626.93H336.811V626.017H331.904V589.494H336.811Z" fill="#FFFCF8"/>
<path d="M372.693 626.017V589.494H377.603C379.352 589.494 380.882 590.389 382.193 592.177C383.507 593.966 384.373 596.4 384.793 599.48H385.99L385.133 589.55C385.095 588.904 384.715 588.58 383.993 588.58H355.86C355.137 588.58 354.757 588.904 354.72 589.55L353.863 599.48H355.06C355.48 596.4 356.345 593.966 357.657 592.177C358.97 590.389 360.501 589.494 362.25 589.494H367.16V626.017H362.25V626.93H377.603V626.017H372.693Z" fill="#FFFCF8"/>
<path d="M412.572 607.183H417.079C417.916 607.183 418.582 607.308 419.076 607.557C419.571 607.803 419.961 608.156 420.246 608.613C420.532 609.069 420.751 609.62 420.902 610.267C421.056 610.913 421.207 611.637 421.359 612.437C421.474 612.968 421.626 613.233 421.816 613.233C422.044 613.233 422.159 612.987 422.159 612.493V600.907C422.159 600.452 422.044 600.223 421.816 600.223C421.626 600.223 421.474 600.49 421.359 601.023C421.207 601.822 421.056 602.543 420.902 603.19C420.751 603.837 420.532 604.389 420.246 604.847C419.961 605.303 419.571 605.655 419.076 605.903C418.582 606.15 417.916 606.273 417.079 606.273H412.572V589.493H421.246C422.539 589.493 423.623 589.808 424.499 590.437C425.374 591.063 426.077 591.843 426.609 592.777C427.142 593.708 427.532 594.697 427.779 595.743C428.027 596.79 428.171 597.732 428.209 598.567C428.209 599.1 428.361 599.367 428.666 599.367C428.932 599.367 429.066 599.119 429.066 598.623V589.95C429.066 589.037 428.59 588.58 427.639 588.58H402.129V589.493H407.036V626.017H402.186V626.93H429.006C430.11 626.93 430.662 626.322 430.662 625.103V616.543C430.662 615.63 430.51 615.173 430.206 615.173C429.939 615.173 429.73 615.573 429.579 616.373C429.274 617.818 428.951 619.13 428.609 620.31C428.266 621.49 427.81 622.508 427.239 623.363C426.667 624.219 425.944 624.876 425.069 625.333C424.193 625.789 423.09 626.017 421.759 626.017H412.572V607.183Z" fill="#FFFCF8"/>
<path d="M233.229 597.489H239.946C241.192 597.489 242.183 597.674 242.919 598.042C243.657 598.409 244.237 598.932 244.662 599.612C245.087 600.292 245.412 601.115 245.639 602.079C245.866 603.041 246.092 604.118 246.319 605.309C246.49 606.102 246.717 606.499 246.999 606.499C247.339 606.499 247.509 606.13 247.509 605.392V588.139C247.509 587.459 247.339 587.119 246.999 587.119C246.717 587.119 246.49 587.515 246.319 588.309C246.092 589.498 245.866 590.575 245.639 591.539C245.412 592.501 245.087 593.322 244.662 594.002C244.237 594.682 243.657 595.207 242.919 595.575C242.183 595.945 241.192 596.129 239.946 596.129H233.229V571.139H246.149C248.076 571.139 249.69 571.607 250.992 572.542C252.297 573.475 253.346 574.637 254.139 576.025C254.932 577.415 255.513 578.888 255.882 580.445C256.251 582.004 256.463 583.405 256.519 584.652C256.519 585.445 256.746 585.842 257.199 585.842C257.597 585.842 257.796 585.475 257.796 584.739V571.819C257.796 570.459 257.087 569.779 255.669 569.779H217.676V571.139H224.986V625.539H217.759V626.899H257.709C259.353 626.899 260.176 625.992 260.176 624.179V611.429C260.176 610.069 259.949 609.389 259.496 609.389C259.097 609.389 258.786 609.984 258.559 611.172C258.106 613.325 257.623 615.281 257.112 617.039C256.603 618.795 255.923 620.31 255.072 621.585C254.223 622.861 253.147 623.839 251.842 624.519C250.54 625.199 248.897 625.539 246.916 625.539H233.229V597.489Z" fill="#FFFCF8"/>
<path d="M481.902 625.539V626.899H500.772V625.539H490.742L496.099 609.132H513.182L518.709 625.539H509.952V626.899H534.859V625.539H527.462L508.849 569.012H507.829L489.212 625.539H481.902ZM504.599 583.462L512.759 607.772H496.609L504.599 583.462Z" fill="#FFFCF8"/>
<path d="M566.986 588.58H550.152V589.494H555.172V626.017H550.152V626.93H566.986C569.65 626.93 572.086 626.465 574.292 625.534C576.499 624.6 578.381 623.279 579.939 621.567C581.499 619.854 582.707 617.79 583.562 615.374C584.42 612.959 584.849 610.267 584.849 607.3C584.849 604.523 584.411 601.983 583.536 599.68C582.66 597.379 581.432 595.4 579.852 593.747C578.274 592.092 576.392 590.817 574.206 589.924C572.019 589.029 569.612 588.58 566.986 588.58ZM578.572 605.874V608.727C578.572 612.112 578.257 614.917 577.629 617.144C577.002 619.369 576.156 621.137 575.089 622.45C574.024 623.764 572.787 624.687 571.379 625.22C569.972 625.752 568.47 626.017 566.872 626.017H560.709V589.494H566.872C568.432 589.494 569.916 589.77 571.322 590.324C572.731 590.875 573.977 591.789 575.062 593.064C576.147 594.337 577.002 596.02 577.629 598.114C578.257 600.205 578.572 602.792 578.572 605.874Z" fill="#FFFCF8"/>
<path d="M614.961 588.58H599.551V589.494H604.461L617.301 627.5H618.327L630.537 589.494H634.647V588.58H624.434V589.494H629.341L619.867 618.997L609.824 589.494H614.961V588.58Z" fill="#FFFCF8"/>
<path d="M660.139 607.184H664.645C665.483 607.184 666.149 607.309 666.642 607.557C667.137 607.804 667.527 608.156 667.812 608.614C668.099 609.07 668.317 609.62 668.469 610.267C668.622 610.914 668.774 611.637 668.925 612.437C669.04 612.969 669.193 613.234 669.382 613.234C669.61 613.234 669.725 612.987 669.725 612.494V600.907C669.725 600.452 669.61 600.224 669.382 600.224C669.193 600.224 669.04 600.49 668.925 601.024C668.774 601.822 668.622 602.544 668.469 603.19C668.317 603.837 668.099 604.39 667.812 604.847C667.527 605.303 667.137 605.655 666.642 605.904C666.149 606.15 665.483 606.274 664.645 606.274H660.139V589.494H668.812C670.105 589.494 671.189 589.809 672.065 590.437C672.94 591.064 673.644 591.844 674.175 592.777C674.709 593.709 675.099 594.697 675.345 595.744C675.594 596.79 675.737 597.732 675.775 598.567C675.775 599.1 675.927 599.367 676.232 599.367C676.499 599.367 676.632 599.12 676.632 598.624V589.95C676.632 589.037 676.156 588.58 675.205 588.58H649.695V589.494H654.602V626.017H649.752V626.93H676.572C677.676 626.93 678.229 626.322 678.229 625.104V616.544C678.229 615.63 678.076 615.174 677.772 615.174C677.505 615.174 677.296 615.574 677.145 616.374C676.84 617.819 676.517 619.13 676.175 620.31C675.833 621.49 675.376 622.509 674.805 623.364C674.234 624.22 673.51 624.876 672.635 625.334C671.759 625.79 670.656 626.017 669.325 626.017H660.139V607.184Z" fill="#FFFCF8"/>
<path d="M723.53 624.477C723.417 624.097 723.331 623.565 723.273 622.88C723.217 622.194 723.18 621.452 723.16 620.654C723.142 619.854 723.123 619.036 723.103 618.2C723.083 617.363 723.017 616.564 722.903 615.804C722.674 614.282 722.293 613.026 721.76 612.037C721.228 611.049 720.582 610.24 719.82 609.614C719.06 608.985 718.185 608.49 717.197 608.127C716.207 607.765 715.142 607.432 714 607.127C716.968 606.596 719.252 605.542 720.85 603.964C722.447 602.384 723.247 600.395 723.247 597.997C723.247 596.513 722.932 595.182 722.303 594.004C721.677 592.824 720.83 591.835 719.763 591.037C718.698 590.237 717.434 589.629 715.97 589.21C714.505 588.79 712.955 588.58 711.32 588.58H695.227V589.494H700.133V626.017H695.227V626.93H710.577V626.017H705.67V607.357H710.407C711.015 607.357 711.662 607.462 712.347 607.67C713.031 607.88 713.667 608.28 714.257 608.87C714.847 609.46 715.361 610.277 715.797 611.324C716.234 612.369 716.548 613.71 716.74 615.347C716.853 616.336 716.92 617.344 716.94 618.37C716.96 619.397 717.017 620.386 717.11 621.337C717.205 622.289 717.377 623.164 717.623 623.964C717.872 624.762 718.262 625.446 718.793 626.017C719.288 626.55 719.868 626.912 720.533 627.1C721.2 627.291 721.914 627.387 722.677 627.387C723.323 627.387 723.97 627.32 724.617 627.187C725.263 627.054 725.862 626.893 726.413 626.704C726.964 626.513 727.44 626.313 727.84 626.104C728.24 625.895 728.534 625.695 728.723 625.504C728.838 625.39 728.897 625.276 728.897 625.16C728.897 625.047 728.838 624.99 728.723 624.99C728.647 624.99 728.534 625.029 728.383 625.104C727.621 625.637 726.764 625.904 725.813 625.904C724.633 625.904 723.872 625.429 723.53 624.477ZM705.67 606.444V589.494H711.32C715.655 589.494 717.823 591.986 717.823 596.97V599.024C717.823 603.97 715.655 606.444 711.32 606.444H705.67Z" fill="#FFFCF8"/>
<path d="M762.65 626.017V589.494H767.56C769.309 589.494 770.839 590.389 772.15 592.177C773.464 593.966 774.33 596.4 774.75 599.48H775.947L775.09 589.55C775.052 588.904 774.672 588.58 773.95 588.58H745.817C745.094 588.58 744.714 588.904 744.677 589.55L743.82 599.48H745.017C745.437 596.4 746.302 593.966 747.614 592.177C748.927 590.389 750.458 589.494 752.207 589.494H757.117V626.017H752.207V626.93H767.56V626.017H762.65Z" fill="#FFFCF8"/>
<path d="M808.006 589.494V588.58H792.656V589.494H797.563V626.017H792.656V626.93H808.006V626.017H803.1V589.494H808.006Z" fill="#FFFCF8"/>
<path d="M849.04 588.184L847.387 590.294C846.7 589.914 846.052 589.573 845.443 589.268C844.837 588.963 844.218 588.717 843.59 588.528C842.963 588.337 842.298 588.193 841.593 588.098C840.888 588.003 840.08 587.954 839.167 587.954C837.302 587.954 835.638 588.259 834.173 588.868C832.708 589.477 831.463 590.294 830.437 591.321C829.41 592.348 828.63 593.528 828.097 594.861C827.563 596.193 827.297 597.599 827.297 599.081C827.297 601.099 827.914 602.944 829.15 604.618C830.388 606.291 832.318 607.566 834.943 608.441C836.198 608.859 837.264 609.201 838.14 609.468C839.015 609.734 839.833 609.993 840.593 610.241C841.355 610.488 842.127 610.753 842.907 611.038C843.687 611.323 844.59 611.713 845.617 612.208C846.91 612.817 847.784 613.663 848.24 614.748C848.698 615.833 848.927 616.926 848.927 618.028C848.927 619.399 848.66 620.646 848.127 621.768C847.595 622.89 846.892 623.831 846.017 624.591C845.141 625.351 844.132 625.941 842.99 626.361C841.85 626.779 840.69 626.988 839.51 626.988C838.141 626.988 836.828 626.75 835.573 626.274C834.318 625.799 833.157 625.124 832.09 624.251C831.025 623.376 830.103 622.291 829.323 620.998C828.543 619.703 827.944 618.256 827.527 616.658C827.413 616.164 827.204 615.918 826.9 615.918C826.633 615.918 826.5 616.184 826.5 616.718V626.931C826.5 627.426 826.671 627.674 827.013 627.674C827.242 627.674 827.488 627.483 827.753 627.101L829.81 624.134C830.265 624.553 830.825 624.99 831.49 625.448C832.157 625.903 832.898 626.323 833.717 626.704C834.534 627.084 835.408 627.398 836.34 627.644C837.273 627.891 838.234 628.014 839.223 628.014C841.05 628.014 842.743 627.681 844.303 627.014C845.863 626.35 847.213 625.429 848.353 624.251C849.495 623.071 850.398 621.673 851.063 620.054C851.73 618.437 852.063 616.697 852.063 614.834C852.063 612.286 851.464 610.127 850.267 608.358C849.068 606.587 847.177 605.321 844.59 604.561C843.714 604.294 842.895 604.067 842.133 603.878C841.373 603.687 840.593 603.477 839.793 603.248C838.995 603.019 838.158 602.763 837.283 602.478C836.41 602.193 835.44 601.841 834.373 601.421C833.195 600.966 832.302 600.263 831.693 599.311C831.084 598.36 830.78 597.257 830.78 596.001C830.78 594.821 831.027 593.784 831.52 592.891C832.015 591.998 832.653 591.266 833.433 590.694C834.213 590.123 835.107 589.696 836.113 589.411C837.122 589.124 838.14 588.981 839.167 588.981C840.727 588.981 842.097 589.248 843.277 589.781C844.457 590.314 845.445 591.019 846.243 591.894C847.043 592.768 847.681 593.776 848.157 594.918C848.632 596.058 848.945 597.237 849.097 598.454C849.134 598.834 849.305 599.024 849.61 599.024C849.877 599.024 850.01 598.834 850.01 598.454V588.298C850.01 587.918 849.895 587.728 849.667 587.728C849.478 587.728 849.268 587.88 849.04 588.184Z" fill="#FFFCF8"/>
<path d="M884.858 589.494V588.58H869.508V589.494H874.414V626.017H869.508V626.93H884.858V626.017H879.951V589.494H884.858Z" fill="#FFFCF8"/>
<path d="M901.68 626.017V626.93H912.41V626.017H907.5V591.15L929.586 627.387H931.526V589.494H936.433V588.58H925.706V589.494H930.613V617.514L912.923 588.58H901.68V589.494H906.59V626.017H901.68Z" fill="#FFFCF8"/>
<path d="M970.032 587.953C967.636 587.953 965.373 588.486 963.242 589.553C961.11 590.618 959.255 592.063 957.675 593.89C956.097 595.715 954.842 597.845 953.908 600.28C952.977 602.715 952.512 605.283 952.512 607.983C952.512 610.685 952.987 613.255 953.938 615.69C954.889 618.123 956.163 620.253 957.762 622.08C959.359 623.906 961.205 625.352 963.298 626.416C965.392 627.48 967.579 628.013 969.862 628.013C971.688 628.013 973.409 627.775 975.025 627.3C976.643 626.825 978.069 626.092 979.305 625.103C980.543 624.115 981.513 622.85 982.215 621.31C982.919 619.768 983.272 617.932 983.272 615.803V613.863H988.235V612.95H971.288V613.863H977.395V619.226C977.395 620.14 977.299 621.053 977.108 621.966C976.917 622.878 976.555 623.705 976.022 624.446C975.49 625.189 974.739 625.798 973.768 626.273C972.799 626.749 971.535 626.986 969.975 626.986C966.666 626.986 964.098 625.675 962.272 623.05C960.445 620.425 959.532 616.525 959.532 611.35V604.33C959.532 601.63 959.788 599.31 960.302 597.37C960.815 595.43 961.537 593.842 962.468 592.606C963.402 591.369 964.505 590.455 965.778 589.866C967.053 589.275 968.472 588.98 970.032 588.98C972.809 588.98 975.187 589.789 977.165 591.406C979.143 593.022 980.74 595.771 981.958 599.653C982.073 599.995 982.245 600.166 982.472 600.166C982.7 600.166 982.815 599.995 982.815 599.653V588.866C982.815 588.449 982.663 588.24 982.358 588.24C982.167 588.24 982.023 588.278 981.928 588.353C981.835 588.429 981.712 588.543 981.558 588.696L979.105 591.15C978.003 590.161 976.662 589.381 975.082 588.81C973.503 588.239 971.82 587.953 970.032 587.953Z" fill="#FFFCF8"/>
</svg>
