<svg width="1200" height="1200" viewBox="0 0 1200 1200" fill="none" xmlns="http://www.w3.org/2000/svg">
<rect width="1200" height="1200" fill="white"/>
<path opacity="0.97" d="M200.419 442.256V758.582L265.331 694.786H485.893V442.256H200.419ZM306.512 654.443H266.727V614.797H306.373L306.512 654.443ZM373.658 590.229H266.727V550.583H373.518L373.658 590.229ZM436.616 525.735H266.727V485.95H436.476L436.616 525.735Z" fill="#1EE171"/>
<path d="M549.831 506.192V554.074H526.798V442.117H597.294V460.963H549.831V487.347H594.781V506.192H549.831Z" fill="#14141E"/>
<path d="M612.37 474.086H635.404V554.074H612.37V474.086Z" fill="#14141E"/>
<path d="M713.159 547.372L712.182 547.093C707.436 552.258 699.2 555.748 689.428 555.748C666.395 555.748 650.899 537.321 650.899 514.148C650.899 490.975 667.093 472.548 691.103 472.548C700.875 472.548 707.436 474.921 713.159 479.249V474.084H736.193V555.05C736.193 577.944 716.23 592.462 693.057 592.462C682.169 592.462 673.095 591.484 663.463 587.855L666.674 569.987C674.072 572.918 682.309 573.616 691.801 573.616C703.248 573.616 713.299 566.357 713.299 555.05L713.159 547.372ZM713.159 527.27V496.001C707.296 492.79 700.596 491.254 693.895 491.394C681.611 491.394 673.933 500.886 673.933 514.148C673.933 527.41 681.611 536.902 693.895 536.902C701.712 536.763 708.832 534.25 713.159 527.27Z" fill="#14141E"/>
<path d="M811.711 479.529L812.549 479.11V474.224H835.582V554.073H812.549V546.395L811.572 546.116C806.686 551.7 798.31 555.748 788.119 555.748C766.482 555.748 749.591 537.322 749.591 514.149C749.591 490.976 767.18 472.549 789.795 472.549C799.706 472.409 806.546 475.341 811.711 479.529ZM812.409 525.875V496.839C806.407 493.07 799.427 491.255 792.447 491.394C781.419 491.394 772.485 500.887 772.485 514.149C772.485 527.41 781.419 536.903 792.447 536.903C800.683 536.763 808.361 533.832 812.409 525.875Z" fill="#14141E"/>
<path d="M855.688 474.085H878.721V483.019L879.698 483.298C885.003 476.598 893.099 472.549 901.615 472.41H903.848V493.908H899.94C892.262 493.768 884.724 496.42 878.721 501.306V554.213H855.688V474.085Z" fill="#14141E"/>
<path d="M953.262 472.409C978.668 472.409 997.514 490.836 997.514 514.009C997.514 537.182 978.668 555.609 953.262 555.609C927.855 555.609 909.01 537.182 909.01 514.009C909.01 490.836 927.716 472.409 953.262 472.409ZM953.262 536.763C965.546 536.763 974.48 527.271 974.48 514.009C974.48 500.747 965.546 491.255 953.262 491.255C940.977 491.255 932.043 500.887 932.043 514.009C932.043 527.131 940.838 536.763 953.262 536.763Z" fill="#14141E"/>
<path d="M623.954 465.011C630.276 465.011 635.401 459.886 635.401 453.564C635.401 447.242 630.276 442.117 623.954 442.117C617.632 442.117 612.507 447.242 612.507 453.564C612.507 459.886 617.632 465.011 623.954 465.011Z" fill="#14141E"/>
<path d="M527.493 596.371H555.552C585.844 596.371 605.946 617.45 605.946 645.09C605.946 672.73 585.705 693.949 555.552 693.949H527.493V596.371ZM543.128 609.493V680.827H555.552C576.91 680.827 590.451 665.611 590.451 645.09C590.451 625.686 576.91 609.353 555.552 609.353H543.128V609.493Z" fill="#64646E"/>
<path d="M621.862 624.291H637.497V693.95H621.862V624.291Z" fill="#64646E"/>
<path d="M707.854 687.806L707.017 687.527C702.55 692.134 695.291 695.344 686.357 695.344C666.953 695.344 652.714 679.291 652.714 659.049C652.714 638.808 667.511 622.754 687.753 622.754C696.547 622.754 702.689 624.848 707.854 628.198V624.15H723.489V696.461C723.489 715.725 707.436 727.451 688.59 727.451C679.516 727.451 671.839 726.614 663.882 723.403L666.673 711.119C672.955 713.631 679.935 714.329 688.032 714.329C698.781 714.329 707.854 707.908 707.854 696.461V687.806ZM707.854 673.288V640.343C703.108 637.412 696.128 635.876 689.707 635.876C677.422 635.876 668.349 645.927 668.349 659.049C668.349 672.171 677.422 682.222 689.707 682.222C696.966 682.222 703.667 679.709 707.854 673.288Z" fill="#64646E"/>
<path d="M741.634 624.29H757.269V693.949H741.634V624.29Z" fill="#64646E"/>
<path d="M771.787 624.29H782.536V596.51H798.171V624.29H817.016V636.854H798.171V669.38C798.171 677.616 802.777 681.106 809.059 681.106C812.41 681.245 815.76 680.687 818.971 679.57L821.763 691.855C817.295 693.949 812.41 694.926 807.384 694.786C793.285 694.786 782.536 685.852 782.536 669.938V636.854H771.787V624.29Z" fill="#64646E"/>
<path d="M882.486 629.455L883.184 629.176V624.29H898.819V693.949H883.184V686.829L882.347 686.55C877.879 691.715 870.202 695.345 860.709 695.345C842.003 695.345 827.066 679.291 827.066 659.05C827.066 638.808 842.562 622.755 862.105 622.755C871.458 622.894 877.879 625.546 882.486 629.455ZM883.184 671.753V641.879C877.6 637.971 870.9 635.877 864.059 636.016C852.333 636.016 842.701 646.067 842.701 659.189C842.701 672.311 852.333 682.362 864.059 682.362C871.877 682.223 879.136 679.291 883.184 671.753Z" fill="#64646E"/>
<path d="M936.231 695.205C920.038 695.205 911.383 687.527 911.383 672.87V596.371H927.018V671.892C927.018 678.314 931.206 681.245 937.627 681.664L936.231 695.205Z" fill="#64646E"/>
<path d="M629.677 612.651C634.428 612.651 638.279 608.799 638.279 604.049C638.279 599.298 634.428 595.446 629.677 595.446C624.927 595.446 621.075 599.298 621.075 604.049C621.075 608.799 624.927 612.651 629.677 612.651Z" fill="#64646E"/>
<path d="M749.59 612.651C754.341 612.651 758.193 608.799 758.193 604.049C758.193 599.298 754.341 595.446 749.59 595.446C744.84 595.446 740.988 599.298 740.988 604.049C740.988 608.799 744.84 612.651 749.59 612.651Z" fill="#64646E"/>
</svg>
