<svg width="1200" height="1200" viewBox="0 0 1200 1200" fill="none" xmlns="http://www.w3.org/2000/svg">
<rect width="1200" height="1200" fill="white"/>
<path d="M371.983 671.967C354.186 678.498 330.546 684.212 305.843 685.028C252.852 686.661 205.705 665.164 206.635 599.586C207.431 546.253 250.993 515.777 305.711 515.777C329.616 515.777 351.663 522.987 368.795 534.96L345.952 558.634L334.663 561.491L341.702 548.702C341.702 548.702 329.882 525.709 298.937 525.709C267.992 525.709 245.149 554.28 245.149 590.606C245.282 635.64 267.594 672.783 311.554 675.096C325.898 675.096 334.663 671.015 334.663 671.015V633.872H302.921L319.921 623.94H378.623V626.525L371.983 634.008V671.967Z" fill="#2D2926"/>
<path d="M475.842 588.294H456.717L469.467 578.362H514.224V580.947L507.583 588.43C507.583 588.43 507.583 660.266 507.583 665.845C507.583 678.634 530.028 673.328 530.028 673.328C530.028 673.328 524.051 684.212 498.154 684.212C476.373 684.212 475.974 668.974 475.974 668.974C475.974 668.974 460.037 684.212 434.405 684.212C401.203 684.212 402.796 655.368 402.796 655.368V625.436V588.294H383.672L396.421 578.362H441.178V580.947L434.538 588.43V642.035C434.538 642.035 433.077 666.933 452.733 666.933C468.537 666.933 475.974 659.314 475.974 659.314V588.294H475.842Z" fill="#2D2926"/>
<path d="M773.215 667.611C773.215 667.611 772.415 673.734 780.382 673.734C788.219 673.734 793.4 673.734 793.4 673.734L784.366 681.489H734.83V680.264L741.205 671.421V611.149C741.205 611.149 742.666 590.196 725.932 590.196C710.128 590.196 703.089 611.693 703.089 611.693V667.475C703.089 667.475 701.894 673.598 709.729 673.598C717.565 673.598 722.744 673.598 722.744 673.598L713.714 681.353H664.176V680.128L670.551 671.285V585.434H651.426L664.176 578.359H706.144V580.264L703.089 584.482V595.094C703.089 595.094 716.503 575.502 741.471 575.502C774.673 575.502 773.215 604.346 773.215 604.346V667.611Z" fill="#2D2926"/>
<path d="M628.973 630.059C620.872 598.494 615.825 578.494 588.334 578.494H568.279L549.288 586.386V587.61H566.686C566.686 587.61 584.482 586.114 591.919 616.726C591.919 616.726 542.647 622.032 535.608 652.644C529.764 678.358 553.67 685.025 565.756 685.161C582.888 685.297 598.161 681.624 607.06 666.522C607.06 666.522 619.012 691.284 650.488 683.528C650.754 683.256 640.926 675.909 628.973 630.059ZM587.935 669.923C583.419 669.923 569.209 666.386 569.076 649.379C569.076 628.426 592.982 626.114 594.31 626.114C595.372 630.195 605.732 663.12 605.732 663.12C605.732 663.12 599.49 669.923 587.935 669.923Z" fill="#2D2926"/>
<path d="M870.686 621.083L899.508 592.375L913.451 578.362H885.56L872.809 585.436C872.809 585.436 885.696 585.436 887.687 585.436C889.81 585.436 891.274 586.525 891.274 588.158C891.274 589.79 889.413 591.151 889.413 591.151L865.772 614.008C863.383 610.607 851.562 593.328 849.434 589.79C846.115 584.212 849.434 580.947 849.434 580.947V578.362H804.678L794.719 585.436H806.806L842.795 636.185L796.047 681.355H830.975L843.726 674.28C843.726 674.28 826.724 674.28 824.602 674.28C822.474 674.28 821.015 673.192 821.015 671.559C821.015 669.926 822.877 668.566 822.877 668.566L847.976 643.532L858.071 657.001C884.101 691.287 921.554 682.715 921.554 682.715C906.811 672.103 881.309 637.273 870.686 621.083Z" fill="#2D2926"/>
<path d="M970.424 584.484L973.477 580.266V578.362H931.513L918.762 585.436H937.886V671.287L931.513 680.13V681.355H981.047L990.081 673.6C990.081 673.6 984.9 673.6 977.064 673.6C969.232 673.6 969.896 667.477 969.896 667.477L970.424 584.484Z" fill="#2D2926"/>
<path d="M954.089 563.123C965.681 563.123 975.074 553.499 975.074 541.626C975.074 529.754 965.681 520.13 954.089 520.13C942.503 520.13 933.109 529.754 933.109 541.626C933.109 553.499 942.503 563.123 954.089 563.123Z" fill="#FF00AA"/>
</svg>
