<svg width="1200" height="1200" viewBox="0 0 1200 1200" fill="none" xmlns="http://www.w3.org/2000/svg">
<rect width="1200" height="1200" fill="#231E22"/>
<path d="M982.52 557.276H984.862C986.291 557.276 987.396 558.172 987.396 559.451C987.396 560.793 986.291 561.688 984.862 561.688H982.52V557.276ZM979.412 569.884H982.52V564.501H984.47L987.462 569.872H991.1L987.521 564.051C988.448 563.675 989.241 563.029 989.798 562.197C990.354 561.365 990.648 560.385 990.641 559.384C990.641 556.509 988.237 554.384 985.312 554.384H979.395L979.412 569.884ZM972.649 562.084C972.649 555.417 977.591 549.871 984.679 549.871C991.766 549.871 996.687 555.422 996.687 562.072C996.687 568.655 991.746 574.28 984.662 574.28C977.579 574.28 972.649 568.655 972.649 562.072V562.084ZM969.316 562.084C969.316 565.119 970.216 568.085 971.901 570.608C973.587 573.131 975.983 575.097 978.787 576.258C981.59 577.42 984.675 577.723 987.651 577.131C990.627 576.54 993.361 575.078 995.506 572.933C997.652 570.787 999.113 568.053 999.705 565.077C1000.3 562.101 999.993 559.016 998.832 556.213C997.671 553.41 995.705 551.014 993.182 549.328C990.659 547.642 987.692 546.742 984.658 546.742C982.641 546.728 980.642 547.114 978.776 547.88C976.91 548.645 975.215 549.774 973.789 551.2C972.363 552.627 971.236 554.323 970.471 556.189C969.707 558.055 969.321 560.055 969.337 562.072L969.316 562.084Z" fill="white"/>
<path d="M288.181 619.736V580.985H249.43L288.181 619.736ZM200 531.55L224.584 556.134H313.015V644.57L337.599 669.154V531.55H200Z" fill="white"/>
<path d="M939.628 568.551C926.823 568.551 916.998 573.135 910.377 582.214C904.152 573.143 895.006 568.551 883.135 568.551C872.389 568.551 863.792 572.085 857.526 579.072V571.043H833.292V670.329H857.517V614.94C857.517 600.223 864.797 591.439 876.997 591.439C887.46 591.439 893.247 598.219 893.247 610.536V670.329H917.477V614.94C917.477 599.785 924.257 591.439 936.574 591.439C947.253 591.439 953.374 598.402 953.374 610.536V670.329H977.604V609.194C977.591 584.885 962.337 568.551 939.628 568.551ZM785.911 641.47C780.536 646.845 773.678 649.566 765.527 649.566C757.377 649.566 750.527 646.845 745.164 641.49C739.698 635.845 737.043 629.048 737.043 620.707C737.043 612.427 739.768 605.506 745.164 600.11C750.473 594.623 757.323 591.843 765.527 591.843C773.732 591.843 780.582 594.627 785.911 600.131C791.286 605.506 794.007 612.427 794.007 620.707C794.007 629.028 791.353 635.824 785.911 641.449V641.47ZM794.007 581.468C786.09 572.893 775.424 568.551 762.269 568.551C748.494 568.551 737.048 573.493 727.268 583.651C717.685 593.652 712.793 606.102 712.793 620.686C712.793 635.269 717.664 647.724 727.268 657.72C737.031 667.883 748.473 672.816 762.269 672.816C775.457 672.816 786.111 668.437 794.007 659.774V670.329H818.237V571.043H794.007V581.468ZM677.896 670.329H702.126V527H677.896V670.329ZM638.799 670.329H663.029V527H638.799V670.329ZM591.41 641.449C586.039 646.824 579.181 649.545 571.027 649.545C562.872 649.545 556.026 646.824 550.663 641.47C545.197 635.824 542.542 629.028 542.542 620.686C542.542 612.406 545.268 605.485 550.663 600.089C555.972 594.602 562.822 591.823 571.027 591.823C579.231 591.823 586.081 594.606 591.41 600.11C596.786 605.485 599.511 612.406 599.511 620.686C599.511 629.028 596.856 635.824 591.41 641.449ZM599.511 581.447C591.594 572.872 580.923 568.53 567.772 568.53C553.993 568.53 542.547 573.472 532.771 583.631C523.188 593.631 518.296 606.081 518.296 620.665C518.296 635.249 523.167 647.703 532.771 657.699C542.534 667.862 553.976 672.795 567.772 672.795C580.956 672.795 591.61 668.416 599.511 659.753V670.308H623.761V571.043H599.511V581.447ZM481.703 587.697H427.806V532.746H402.239V670.329H427.806V612.311H481.703V670.329H507.271V532.746H481.703V587.697Z" fill="white"/>
</svg>
