<svg width="1200" height="1200" viewBox="0 0 1200 1200" fill="none" xmlns="http://www.w3.org/2000/svg">
<rect width="1200" height="1200" fill="black"/>
<g clip-path="url(#clip0_6_218)">
<path d="M273.62 515L347.239 557.331V641.993L273.62 684.325L200 641.993V557.331L273.62 515Z" fill="#EF9F44"/>
<path d="M423.312 562.852H433.575V586.354H459.565V562.852H469.83V620.177H459.565V595.613H433.575V620.177H423.312V562.852ZM481.371 579.314H491.465V620.173H481.371V579.314ZM486.25 573.743C485.47 573.753 484.695 573.606 483.972 573.311C483.25 573.016 482.594 572.579 482.044 572.025C481.502 571.491 481.074 570.853 480.786 570.149C480.497 569.445 480.353 568.69 480.363 567.93C480.363 566.347 480.922 564.985 482.044 563.836C483.222 562.69 484.623 562.119 486.25 562.119C487.877 562.119 489.278 562.69 490.456 563.836C491.69 564.982 492.306 566.347 492.306 567.93C492.306 569.515 491.69 570.879 490.456 572.025C489.278 573.171 487.877 573.743 486.25 573.743ZM540.424 579.314L524.527 620.173H513.928L498.032 579.314H508.378L519.229 609.039L530.078 579.314H540.424ZM552.601 602.98C552.77 604.725 553.359 606.391 554.368 607.974C555.384 609.563 556.77 610.883 558.407 611.822C560.144 612.749 562.081 613.213 564.211 613.213C566.903 613.213 569.116 612.587 570.856 611.331C572.65 610.074 573.855 608.629 574.473 606.99L582.969 609.53C581.678 613.024 579.435 615.861 576.24 618.045C573.099 620.229 569.089 621.321 564.211 621.321C560.228 621.321 556.613 620.393 553.359 618.536C550.174 616.69 547.533 614.035 545.705 610.84C543.855 607.564 542.93 603.851 542.93 599.704C542.93 595.662 543.855 592.006 545.705 588.73C547.533 585.534 550.174 582.879 553.359 581.034C556.613 579.12 560.201 578.168 564.125 578.168C568.108 578.168 571.585 579.068 574.557 580.867C577.557 582.585 579.986 585.149 581.538 588.239C583.165 591.404 583.978 595.061 583.978 599.211V602.977L552.601 602.98ZM575.062 595.446C574.949 594.079 574.473 592.688 573.632 591.269C572.79 589.849 571.555 588.676 569.931 587.748C568.36 586.766 566.454 586.273 564.211 586.273C561.013 586.273 558.407 587.174 556.387 588.975C554.463 590.655 553.16 592.933 552.687 595.444H575.062V595.446ZM636.527 621.24C630.697 621.24 625.816 619.846 621.892 617.063C618.022 614.278 615.386 610.241 613.985 604.943L623.573 602.244C624.638 605.679 626.154 608.219 628.117 609.856C630.078 611.439 632.883 612.231 636.527 612.231C639.948 612.231 642.697 611.52 644.77 610.104C646.903 608.683 647.968 606.663 647.968 604.042C647.968 601.969 647.126 600.249 645.443 598.884C643.762 597.52 640.76 596.482 636.444 595.773C629.546 594.516 624.358 592.523 620.883 589.795C617.406 587.066 615.666 583.326 615.666 578.575C615.666 575.301 616.535 572.381 618.274 569.814C620.068 567.247 622.537 565.255 625.676 563.836C628.817 562.364 632.407 561.625 636.444 561.625C641.828 561.625 646.284 562.99 649.818 565.721C653.352 568.45 655.762 572.298 657.052 577.265L647.462 579.885C646.62 576.774 645.332 574.455 643.592 572.926C641.911 571.397 639.528 570.634 636.444 570.634C633.246 570.634 630.697 571.316 628.79 572.68C626.883 574.045 625.928 576.011 625.928 578.575C625.928 580.705 626.883 582.315 628.79 583.409C630.751 584.499 633.919 585.483 638.294 586.354C645.136 587.665 650.154 589.741 653.352 592.577C656.603 595.363 658.23 599.184 658.23 604.042C658.23 607.429 657.276 610.43 655.369 613.049C653.462 615.672 650.856 617.692 647.546 619.11C644.238 620.531 640.564 621.24 636.527 621.24ZM681.509 621.321C678.088 621.321 675.256 620.283 673.013 618.209C670.77 616.079 669.649 613.078 669.649 609.203V587.907H662.414V579.311H669.649V568.668H679.742V579.314H690.427V587.91H679.742V607.812C679.742 610.703 681.06 612.15 683.695 612.15C685.209 612.15 686.5 611.684 687.565 610.757L691.771 617.719C690.986 618.646 689.725 619.466 687.985 620.173C686.247 620.938 684.088 621.321 681.509 621.321ZM698.144 579.314H706.473L707.901 584.062C708.937 582.344 710.382 580.908 712.108 579.885C713.901 578.739 716.034 578.168 718.5 578.168C720.071 578.168 721.472 578.357 722.706 578.739C723.941 579.122 724.949 579.586 725.735 580.131L722.117 588.73C721.612 588.347 720.913 588.018 720.014 587.748C719.061 587.459 718.068 587.32 717.072 587.338C714.547 587.338 712.444 588.295 710.763 590.204C709.079 592.06 708.238 594.627 708.238 597.9V620.175H698.144V579.314ZM736.935 602.98C737.104 604.725 737.693 606.391 738.701 607.974C739.718 609.563 741.104 610.883 742.741 611.822C744.478 612.749 746.412 613.213 748.544 613.213C751.236 613.213 753.45 612.587 755.19 611.331C756.984 610.074 758.189 608.629 758.807 606.99L767.303 609.53C766.012 613.024 763.769 615.861 760.571 618.045C757.433 620.229 753.423 621.321 748.544 621.321C744.562 621.321 740.944 620.393 737.693 618.536C734.508 616.69 731.867 614.035 730.039 610.84C728.189 607.564 727.263 603.851 727.263 599.704C727.263 595.662 728.189 592.006 730.039 588.73C731.867 585.534 734.508 582.879 737.693 581.034C740.944 579.12 744.535 578.168 748.461 578.168C752.441 578.168 755.919 579.068 758.89 580.867C761.891 582.585 764.319 585.149 765.872 588.239C767.499 591.404 768.311 595.061 768.311 599.211V602.977L736.935 602.98ZM759.394 595.446C759.283 594.079 758.807 592.688 757.965 591.269C757.124 589.849 755.889 588.676 754.265 587.748C752.694 586.766 750.787 586.273 748.544 586.273C745.347 586.273 742.741 587.174 740.721 588.975C738.796 590.654 737.493 592.933 737.02 595.444H759.394V595.446ZM788.959 621.321C786.324 621.321 783.911 620.803 781.725 619.765C779.615 618.794 777.811 617.265 776.508 615.343C775.219 613.431 774.574 611.22 774.574 608.71C774.574 605.272 775.779 602.379 778.191 600.03C780.657 597.628 784.976 596.018 791.146 595.198L800.144 593.971V593.48C800.144 588.511 797.565 586.028 792.407 586.028C789.828 586.028 787.865 586.602 786.517 587.746C785.229 588.84 784.417 590.477 784.078 592.661L775.163 590.531C776.341 586.384 778.331 583.299 781.136 581.279C783.938 579.203 787.808 578.168 792.743 578.168C797.791 578.168 801.968 579.449 805.276 582.015C808.586 584.526 810.24 588.293 810.24 593.316V620.175H801.744L800.65 616.489C798.294 619.711 794.397 621.321 788.959 621.321ZM791.649 613.377C794.061 613.377 796.081 612.722 797.705 611.414C799.332 610.047 800.144 608.192 800.144 605.844V601.095L791.818 602.322C789.182 602.705 787.249 603.36 786.014 604.288C784.836 605.161 784.247 606.445 784.247 608.138C784.247 609.721 784.893 611.004 786.181 611.986C787.528 612.914 789.352 613.377 791.649 613.377ZM819.472 579.314H827.801L829.146 584.146C830.493 582.398 832.287 580.98 834.53 579.885C836.773 578.739 839.295 578.168 842.1 578.168C845.016 578.168 847.398 578.739 849.249 579.885C851.099 581.034 852.503 582.506 853.455 584.307C854.912 582.506 856.765 581.034 859.008 579.885C861.251 578.739 863.887 578.168 866.915 578.168C871.065 578.168 874.341 579.422 876.758 581.934C879.224 584.388 880.459 588.128 880.459 593.152V620.177H870.36V595.858C870.36 590.126 867.98 587.26 863.214 587.26C860.802 587.26 858.839 588.104 857.325 589.797C855.811 591.49 855.055 593.893 855.055 597.002V620.177H844.959V595.858C844.959 592.909 844.314 590.754 843.025 589.387C841.735 587.969 839.968 587.26 837.725 587.26C835.315 587.26 833.352 588.104 831.838 589.797C830.324 591.434 829.568 593.836 829.568 597.002V620.177H819.472V579.314ZM890.866 579.314H900.957V620.173H890.866V579.314ZM895.74 573.743C894.959 573.753 894.185 573.606 893.462 573.311C892.74 573.015 892.084 572.578 891.533 572.025C890.993 571.49 890.565 570.852 890.277 570.148C889.989 569.445 889.845 568.69 889.855 567.93C889.855 566.347 890.414 564.985 891.533 563.836C892.084 563.283 892.74 562.846 893.462 562.551C894.185 562.256 894.959 562.109 895.74 562.119C897.371 562.119 898.773 562.69 899.946 563.836C901.182 564.982 901.803 566.347 901.803 567.93C901.803 569.515 901.182 570.879 899.946 572.025C898.773 573.171 897.371 573.743 895.74 573.743ZM911.396 579.314H919.72L921.153 584.226C924.294 580.187 928.554 578.165 933.933 578.165C938.817 578.165 942.544 579.586 945.126 582.425C947.705 585.265 948.996 589.603 948.996 595.444V620.177H938.898V596.757C938.898 590.425 936.181 587.26 930.738 587.26C928.049 587.26 925.83 588.187 924.095 590.042C922.355 591.844 921.487 594.411 921.487 597.741V620.177H911.396V579.314ZM978.547 637.699C973.168 637.699 968.851 636.496 965.595 634.096C962.4 631.692 960.243 628.472 959.121 624.433L968.537 622.386C969.043 624.57 970.108 626.263 971.74 627.463C973.418 628.717 975.693 629.346 978.547 629.346C982.137 629.346 984.917 628.418 986.876 626.563C988.898 624.759 989.909 622.168 989.909 618.784V613.787C988.898 615.48 987.273 616.928 985.025 618.128C982.841 619.274 980.26 619.846 977.29 619.846C973.418 619.846 969.97 618.946 966.94 617.147C963.925 615.357 961.454 612.781 959.791 609.694C958.112 606.528 957.271 602.98 957.271 599.049C957.271 595.171 958.112 591.65 959.791 588.484C961.531 585.265 963.914 582.752 966.94 580.95C970.027 579.095 973.447 578.168 977.202 578.168C980.287 578.168 982.895 578.766 985.025 579.969C987.212 581.171 988.844 582.587 989.909 584.226L991.759 579.314H1000V618.619C1000 624.406 998.095 629.019 994.277 632.46C990.522 635.952 985.278 637.699 978.547 637.699ZM978.719 611.004C981.968 611.004 984.638 609.91 986.706 607.728C988.844 605.544 989.909 602.651 989.909 599.049C989.909 595.392 988.844 592.469 986.706 590.288C984.638 588.104 981.941 587.009 978.635 587.009C975.325 587.009 972.606 588.101 970.476 590.285C968.4 592.469 967.364 595.39 967.364 599.046C967.364 602.651 968.429 605.544 970.559 607.728C972.689 609.912 975.413 611.004 978.719 611.004Z" fill="white"/>
<path d="M249.078 571.441H262.219V593.132H282.563V571.441H295.704V627.883H282.563V605.628H262.219V627.883H249.078V571.441Z" fill="white"/>
</g>
<defs>
<clipPath id="clip0_6_218">
<rect width="800" height="169.325" fill="white" transform="translate(200 515)"/>
</clipPath>
</defs>
</svg>
