<svg width="1200" height="1200" viewBox="0 0 1200 1200" fill="none" xmlns="http://www.w3.org/2000/svg">
<rect width="1200" height="1200" fill="white"/>
<g clip-path="url(#clip0_6_192)">
<path d="M200.094 527.323H227.988V589.295H286.817V527.323H314.747V679.445H286.817V616.171H227.988V679.445H200.094V527.323ZM403.114 629.896C403.114 642.63 392.739 652.993 380.008 652.993C367.272 652.993 356.903 642.63 356.903 629.896V564.402H330.45V629.896C330.45 657.22 352.683 679.445 380.008 679.445C407.327 679.445 429.558 657.22 429.558 629.896V564.402H403.114V629.896ZM503.405 565.17C490.283 565.17 481.123 568.977 472.278 577.66V527.323H445.739V620.612C445.739 655.53 470.986 679.445 499.35 679.445C530.883 679.445 558.511 655.104 558.511 622.309C558.511 589.929 533.034 565.17 503.405 565.17ZM504.064 654.893C486.081 654.893 472.33 639.874 472.33 622.309C472.33 604.74 486.081 589.716 504.064 589.716C519.302 589.716 533.061 604.74 533.061 622.309C533.061 639.874 519.302 654.893 504.064 654.893ZM603.084 571.855C603.084 558.515 611.973 554.285 621.705 554.285C629.539 554.285 639.906 560.21 646.672 567.407L664.02 547.093C655.35 535.455 637.789 527.412 623.398 527.412C594.616 527.412 573.877 544.13 573.877 571.855C573.877 623.277 637.153 606.977 637.153 635.765C637.153 644.643 628.48 652.48 618.539 652.48C602.873 652.48 597.792 644.862 590.6 636.818L571.339 656.707C583.62 671.734 598.852 679.355 617.053 679.355C644.35 679.355 666.359 662.426 666.359 635.97C666.359 578.835 603.084 596.613 603.084 571.855ZM736.225 563.679C707.864 563.679 682.614 587.579 682.614 622.505V716.035H709.152V665.459C717.998 674.135 727.153 677.949 740.28 677.949C769.908 677.949 795.388 653.193 795.388 620.813C795.388 588.013 767.752 563.679 736.225 563.679ZM740.941 653.405C722.959 653.405 709.206 638.366 709.206 620.813C709.206 603.245 722.959 588.221 740.941 588.221C756.175 588.221 769.936 603.245 769.936 620.813C769.936 638.366 756.175 653.405 740.941 653.405ZM990.733 654.893C975.08 654.893 970.636 648.124 970.636 637.751V591.832H994.967V568.557H970.636V537.87L943.769 549.929V643.465C943.769 667.38 960.269 679.445 982.902 679.445C986.288 679.445 990.948 679.226 993.491 678.599L1000.05 654.477C997.089 654.682 993.705 654.893 990.733 654.893Z" fill="#45535E"/>
<path d="M920.747 593.185C915.659 584.432 908.503 577.415 899.556 572.132C892.87 568.24 885.938 565.77 878.125 564.709V536.896C885.938 533.579 890.786 526.237 890.786 517.671C890.786 505.996 881.423 496.535 869.758 496.535C858.083 496.535 848.556 505.996 848.556 517.671C848.556 526.237 853.125 533.579 860.938 536.896V564.721C854.688 565.624 848.206 567.573 842.287 570.566C830.198 561.385 790.558 531.265 767.369 513.673C767.919 511.69 768.342 509.646 768.342 507.49C768.342 494.559 757.87 484.077 744.934 484.077C731.998 484.077 721.531 494.559 721.531 507.49C721.531 520.42 732.009 530.904 744.945 530.904C749.358 530.904 753.439 529.613 756.961 527.491L761.855 531.204L829.098 579.654C825.544 582.918 822.233 586.63 819.584 590.796C814.217 599.288 810.938 608.632 810.938 618.824V620.951C810.938 628.105 812.297 634.86 814.612 641.205C816.652 646.746 819.633 651.784 823.325 656.338L801.008 678.71C797.773 677.506 794.261 677.259 790.89 677.999C787.519 678.738 784.432 680.432 781.998 682.879C780.313 684.556 778.978 686.55 778.069 688.747C777.16 690.943 776.697 693.299 776.705 695.676C776.706 700.509 778.589 705.051 782.008 708.468C783.683 710.154 785.677 711.491 787.873 712.402C790.069 713.312 792.424 713.777 794.802 713.771C797.18 713.777 799.535 713.312 801.732 712.401C803.929 711.491 805.923 710.154 807.6 708.468C809.284 706.791 810.619 704.797 811.528 702.602C812.437 700.406 812.903 698.052 812.897 695.676C812.897 693.805 812.608 691.98 812.064 690.246L835.131 667.176C838.294 669.36 841.709 671.199 845.381 672.785C852.623 675.916 860.617 677.824 869.366 677.824H870.969C880.641 677.824 889.764 675.552 898.341 670.905C907.378 665.995 914.452 659.279 919.795 650.705C925.167 642.109 928.125 632.61 928.125 622.16V621.638C928.125 611.359 925.745 601.874 920.747 593.185ZM892.562 641.58C886.302 648.538 879.105 652.824 870.969 652.824H869.628C864.981 652.824 860.436 651.54 855.986 649.204C850.97 646.632 847.158 642.963 844.037 638.318C840.812 633.759 839.063 628.78 839.063 623.502V621.899C839.063 616.71 840.058 611.79 842.567 607.143C845.25 602.063 848.873 598.113 853.692 594.973C858.423 591.854 863.477 590.324 869.105 590.324H869.628C874.731 590.324 879.563 591.33 884.122 593.663C888.767 596.151 892.562 599.549 895.505 604.02C898.362 608.491 900.063 613.315 900.609 618.57C900.695 619.662 900.739 620.78 900.739 621.849C900.739 628.98 898.014 635.585 892.562 641.58Z" fill="#F8761F"/>
</g>
<defs>
<clipPath id="clip0_6_192">
<rect width="800" height="232.96" fill="white" transform="translate(200 484)"/>
</clipPath>
</defs>
</svg>
