<svg width="1200" height="1200" viewBox="0 0 1200 1200" fill="none" xmlns="http://www.w3.org/2000/svg">
<rect width="1200" height="1200" fill="#1F1F1F"/>
<g clip-path="url(#clip0_1_922)">
<mask id="mask0_1_922" style="mask-type:luminance" maskUnits="userSpaceOnUse" x="307" y="400" width="587" height="400">
<path d="M893.093 400H307.002V800H893.093V400Z" fill="white"/>
</mask>
<g mask="url(#mask0_1_922)">
<path d="M881.776 777.394C879.54 777.394 877.355 778.057 875.496 779.299C873.637 780.541 872.189 782.306 871.333 784.372C870.478 786.437 870.254 788.71 870.69 790.902C871.126 793.095 872.202 795.109 873.783 796.69C875.364 798.27 877.378 799.347 879.57 799.783C881.763 800.219 884.036 799.995 886.101 799.14C888.166 798.284 889.932 796.835 891.173 794.977C892.415 793.118 893.078 790.933 893.078 788.697C893.091 787.21 892.807 785.734 892.243 784.357C891.679 782.981 890.847 781.73 889.795 780.678C888.743 779.626 887.492 778.794 886.115 778.23C884.738 777.666 883.263 777.382 881.776 777.394Z" fill="white"/>
<path d="M843.828 777.394C841.593 777.394 839.407 778.057 837.549 779.299C835.69 780.541 834.241 782.306 833.386 784.372C832.53 786.437 832.306 788.71 832.743 790.902C833.179 793.095 834.255 795.109 835.836 796.69C837.417 798.27 839.431 799.347 841.623 799.783C843.816 800.219 846.088 799.995 848.154 799.14C850.219 798.284 851.984 796.835 853.226 794.977C854.468 793.118 855.131 790.933 855.131 788.697C855.143 787.21 854.859 785.734 854.296 784.357C853.732 782.981 852.9 781.73 851.848 780.678C850.796 779.626 849.545 778.794 848.168 778.23C846.791 777.666 845.316 777.382 843.828 777.394Z" fill="white"/>
<path d="M805.883 777.394C803.647 777.394 801.462 778.057 799.603 779.299C797.745 780.541 796.296 782.306 795.44 784.371C794.585 786.437 794.361 788.709 794.797 790.902C795.233 793.095 796.31 795.108 797.891 796.689C799.471 798.27 801.485 799.346 803.678 799.783C805.87 800.219 808.143 799.995 810.208 799.139C812.274 798.284 814.039 796.835 815.281 794.976C816.523 793.118 817.186 790.932 817.186 788.697C817.198 787.209 816.914 785.734 816.35 784.357C815.787 782.98 814.954 781.729 813.902 780.677C812.85 779.625 811.6 778.793 810.223 778.23C808.846 777.666 807.371 777.382 805.883 777.394Z" fill="white"/>
<path d="M616.127 777.394C613.892 777.394 611.706 778.057 609.848 779.299C607.989 780.541 606.54 782.306 605.685 784.372C604.829 786.437 604.605 788.71 605.041 790.902C605.478 793.095 606.554 795.109 608.135 796.69C609.715 798.27 611.729 799.347 613.922 799.783C616.115 800.219 618.387 799.995 620.452 799.14C622.518 798.284 624.283 796.835 625.525 794.977C626.767 793.118 627.43 790.933 627.43 788.697C627.442 787.21 627.158 785.734 626.594 784.357C626.031 782.981 625.199 781.73 624.147 780.678C623.095 779.626 621.844 778.794 620.467 778.23C619.09 777.666 617.615 777.382 616.127 777.394Z" fill="white"/>
<path d="M578.17 777.394C575.935 777.394 573.749 778.057 571.891 779.299C570.032 780.541 568.583 782.306 567.728 784.372C566.872 786.437 566.648 788.71 567.084 790.902C567.52 793.095 568.597 795.109 570.178 796.69C571.758 798.27 573.772 799.347 575.965 799.783C578.158 800.219 580.43 799.995 582.495 799.14C584.561 798.284 586.326 796.835 587.568 794.977C588.81 793.118 589.473 790.933 589.473 788.697C589.485 787.21 589.201 785.734 588.637 784.357C588.074 782.981 587.242 781.73 586.19 780.678C585.138 779.626 583.887 778.794 582.51 778.23C581.133 777.666 579.658 777.382 578.17 777.394Z" fill="white"/>
<path d="M540.223 777.394C537.987 777.394 535.802 778.057 533.943 779.299C532.085 780.541 530.636 782.306 529.78 784.372C528.925 786.437 528.701 788.71 529.137 790.902C529.573 793.095 530.65 795.109 532.23 796.69C533.811 798.27 535.825 799.347 538.018 799.783C540.21 800.219 542.483 799.995 544.548 799.14C546.614 798.284 548.379 796.835 549.621 794.977C550.863 793.118 551.526 790.933 551.526 788.697C551.538 787.21 551.254 785.734 550.69 784.357C550.126 782.981 549.294 781.73 548.242 780.678C547.19 779.626 545.939 778.794 544.563 778.23C543.186 777.666 541.71 777.382 540.223 777.394Z" fill="white"/>
<path d="M881.776 739.657C879.54 739.657 877.355 740.32 875.496 741.562C873.637 742.804 872.189 744.569 871.333 746.635C870.478 748.7 870.254 750.973 870.69 753.165C871.126 755.358 872.202 757.372 873.783 758.952C875.364 760.533 877.378 761.61 879.57 762.046C881.763 762.482 884.036 762.258 886.101 761.402C888.166 760.547 889.932 759.098 891.173 757.24C892.415 755.381 893.078 753.196 893.078 750.96C893.091 749.472 892.807 747.997 892.243 746.62C891.679 745.243 890.847 743.993 889.795 742.941C888.743 741.889 887.492 741.056 886.115 740.493C884.738 739.929 883.263 739.645 881.776 739.657Z" fill="white"/>
<path d="M843.828 739.657C841.593 739.657 839.407 740.32 837.549 741.562C835.69 742.804 834.241 744.569 833.386 746.635C832.53 748.7 832.306 750.973 832.743 753.165C833.179 755.358 834.255 757.372 835.836 758.952C837.417 760.533 839.431 761.61 841.623 762.046C843.816 762.482 846.088 762.258 848.154 761.402C850.219 760.547 851.984 759.098 853.226 757.24C854.468 755.381 855.131 753.196 855.131 750.96C855.143 749.472 854.859 747.997 854.296 746.62C853.732 745.243 852.9 743.993 851.848 742.941C850.796 741.889 849.545 741.056 848.168 740.493C846.791 739.929 845.316 739.645 843.828 739.657Z" fill="white"/>
<path d="M805.883 739.657C803.647 739.657 801.462 740.32 799.603 741.562C797.745 742.804 796.296 744.569 795.44 746.634C794.585 748.7 794.361 750.972 794.797 753.165C795.233 755.357 796.31 757.371 797.891 758.952C799.471 760.533 801.485 761.609 803.678 762.045C805.87 762.482 808.143 762.258 810.208 761.402C812.274 760.547 814.039 759.098 815.281 757.239C816.523 755.381 817.186 753.195 817.186 750.96C817.198 749.472 816.914 747.997 816.35 746.62C815.787 745.243 814.954 743.992 813.902 742.94C812.85 741.888 811.6 741.056 810.223 740.492C808.846 739.929 807.371 739.645 805.883 739.657Z" fill="white"/>
<path d="M616.127 739.657C613.892 739.657 611.706 740.32 609.848 741.562C607.989 742.804 606.54 744.569 605.685 746.635C604.829 748.7 604.605 750.973 605.041 753.165C605.478 755.358 606.554 757.372 608.135 758.952C609.715 760.533 611.729 761.61 613.922 762.046C616.115 762.482 618.387 762.258 620.452 761.402C622.518 760.547 624.283 759.098 625.525 757.24C626.767 755.381 627.43 753.196 627.43 750.96C627.442 749.472 627.158 747.997 626.594 746.62C626.031 745.243 625.199 743.993 624.147 742.941C623.095 741.889 621.844 741.056 620.467 740.493C619.09 739.929 617.615 739.645 616.127 739.657Z" fill="white"/>
<path d="M578.17 739.657C575.935 739.657 573.749 740.32 571.891 741.562C570.032 742.804 568.583 744.569 567.728 746.635C566.872 748.7 566.648 750.973 567.084 753.165C567.52 755.358 568.597 757.372 570.178 758.952C571.758 760.533 573.772 761.61 575.965 762.046C578.158 762.482 580.43 762.258 582.495 761.402C584.561 760.547 586.326 759.098 587.568 757.24C588.81 755.381 589.473 753.196 589.473 750.96C589.485 749.472 589.201 747.997 588.637 746.62C588.074 745.243 587.242 743.993 586.19 742.941C585.138 741.889 583.887 741.056 582.51 740.493C581.133 739.929 579.658 739.645 578.17 739.657Z" fill="white"/>
<path d="M540.223 739.657C537.987 739.657 535.802 740.32 533.943 741.562C532.085 742.804 530.636 744.569 529.78 746.635C528.925 748.7 528.701 750.973 529.137 753.165C529.573 755.358 530.65 757.372 532.23 758.952C533.811 760.533 535.825 761.61 538.018 762.046C540.21 762.482 542.483 762.258 544.548 761.402C546.614 760.547 548.379 759.098 549.621 757.24C550.863 755.381 551.526 753.196 551.526 750.96C551.538 749.472 551.254 747.997 550.69 746.62C550.126 745.243 549.294 743.993 548.242 742.941C547.19 741.889 545.939 741.056 544.563 740.493C543.186 739.929 541.71 739.645 540.223 739.657Z" fill="white"/>
<path d="M881.776 701.92C879.54 701.92 877.355 702.583 875.496 703.825C873.637 705.067 872.189 706.832 871.333 708.898C870.478 710.963 870.254 713.235 870.69 715.428C871.126 717.621 872.202 719.635 873.783 721.215C875.364 722.796 877.378 723.872 879.57 724.309C881.763 724.745 884.036 724.521 886.101 723.665C888.166 722.81 889.932 721.361 891.173 719.502C892.415 717.644 893.078 715.458 893.078 713.223C893.091 711.735 892.807 710.26 892.243 708.883C891.679 707.506 890.847 706.255 889.795 705.203C888.743 704.151 887.492 703.319 886.115 702.756C884.738 702.192 883.263 701.908 881.776 701.92Z" fill="white"/>
<path d="M843.834 701.92C841.599 701.921 839.414 702.585 837.556 703.828C835.698 705.07 834.25 706.836 833.396 708.901C832.541 710.967 832.318 713.239 832.755 715.431C833.192 717.624 834.269 719.637 835.85 721.217C837.431 722.797 839.445 723.873 841.637 724.309C843.829 724.745 846.102 724.521 848.167 723.665C850.232 722.809 851.997 721.36 853.238 719.502C854.48 717.643 855.143 715.458 855.143 713.223C855.155 711.735 854.871 710.26 854.307 708.883C853.744 707.506 852.911 706.255 851.859 705.203C850.807 704.151 849.557 703.319 848.18 702.756C846.803 702.192 845.322 701.908 843.834 701.92Z" fill="white"/>
<path d="M805.883 701.92C803.647 701.92 801.462 702.583 799.603 703.825C797.745 705.067 796.296 706.832 795.44 708.897C794.585 710.963 794.361 713.235 794.797 715.428C795.233 717.62 796.31 719.634 797.891 721.215C799.471 722.796 801.485 723.872 803.678 724.308C805.87 724.744 808.143 724.521 810.208 723.665C812.274 722.81 814.039 721.361 815.281 719.502C816.523 717.643 817.186 715.458 817.186 713.223C817.198 711.735 816.914 710.26 816.35 708.883C815.787 707.506 814.954 706.255 813.902 705.203C812.85 704.151 811.6 703.319 810.223 702.755C808.846 702.192 807.371 701.908 805.883 701.92Z" fill="white"/>
<path d="M616.127 701.92C613.892 701.92 611.706 702.583 609.848 703.825C607.989 705.067 606.54 706.832 605.685 708.898C604.829 710.963 604.605 713.235 605.041 715.428C605.478 717.621 606.554 719.635 608.135 721.215C609.715 722.796 611.729 723.872 613.922 724.309C616.115 724.745 618.387 724.521 620.452 723.665C622.518 722.81 624.283 721.361 625.525 719.502C626.767 717.644 627.43 715.458 627.43 713.223C627.442 711.735 627.158 710.26 626.594 708.883C626.031 707.506 625.199 706.255 624.147 705.203C623.095 704.151 621.844 703.319 620.467 702.756C619.09 702.192 617.615 701.908 616.127 701.92Z" fill="white"/>
<path d="M578.17 701.92C575.935 701.92 573.749 702.583 571.891 703.825C570.032 705.067 568.583 706.832 567.728 708.898C566.872 710.963 566.648 713.235 567.084 715.428C567.52 717.621 568.597 719.635 570.178 721.215C571.758 722.796 573.772 723.872 575.965 724.309C578.158 724.745 580.43 724.521 582.495 723.665C584.561 722.81 586.326 721.361 587.568 719.502C588.81 717.644 589.473 715.458 589.473 713.223C589.485 711.735 589.201 710.26 588.637 708.883C588.074 707.506 587.242 706.255 586.19 705.203C585.138 704.151 583.887 703.319 582.51 702.756C581.133 702.192 579.658 701.908 578.17 701.92Z" fill="white"/>
<path d="M540.223 701.92C537.987 701.92 535.802 702.583 533.943 703.825C532.085 705.067 530.636 706.832 529.78 708.898C528.925 710.963 528.701 713.235 529.137 715.428C529.573 717.621 530.65 719.635 532.23 721.215C533.811 722.796 535.825 723.872 538.018 724.309C540.21 724.745 542.483 724.521 544.548 723.665C546.614 722.81 548.379 721.361 549.621 719.502C550.863 717.644 551.526 715.458 551.526 713.223C551.538 711.735 551.254 710.26 550.69 708.883C550.126 707.506 549.294 706.255 548.242 705.203C547.19 704.151 545.939 703.319 544.563 702.756C543.186 702.192 541.71 701.908 540.223 701.92Z" fill="white"/>
<path d="M502.266 701.92C500.03 701.92 497.845 702.583 495.986 703.825C494.127 705.067 492.679 706.832 491.823 708.897C490.968 710.963 490.744 713.235 491.18 715.428C491.616 717.62 492.693 719.634 494.273 721.215C495.854 722.796 497.868 723.872 500.061 724.308C502.253 724.744 504.526 724.521 506.591 723.665C508.656 722.81 510.422 721.361 511.664 719.502C512.906 717.643 513.569 715.458 513.569 713.223C513.581 711.735 513.297 710.26 512.733 708.883C512.169 707.506 511.337 706.255 510.285 705.203C509.233 704.151 507.982 703.319 506.606 702.755C505.229 702.192 503.753 701.908 502.266 701.92Z" fill="white"/>
<path d="M464.325 705.257C462.751 705.257 461.212 705.724 459.903 706.599C458.594 707.473 457.574 708.716 456.971 710.171C456.369 711.625 456.211 713.226 456.518 714.77C456.825 716.314 457.583 717.732 458.697 718.846C459.81 719.959 461.228 720.717 462.772 721.024C464.316 721.331 465.917 721.174 467.371 720.571C468.826 719.969 470.069 718.948 470.944 717.639C471.818 716.33 472.285 714.791 472.285 713.217C472.294 712.169 472.095 711.13 471.698 710.16C471.301 709.19 470.715 708.309 469.974 707.568C469.233 706.827 468.352 706.241 467.382 705.844C466.412 705.448 465.373 705.248 464.325 705.257Z" fill="white"/>
<path d="M414.128 706.971C412.891 706.97 411.682 707.336 410.653 708.022C409.624 708.709 408.822 709.685 408.348 710.828C407.874 711.97 407.75 713.228 407.991 714.441C408.232 715.654 408.827 716.768 409.702 717.643C410.577 718.518 411.691 719.113 412.904 719.354C414.118 719.595 415.375 719.471 416.517 718.997C417.66 718.523 418.636 717.721 419.323 716.692C420.009 715.663 420.375 714.454 420.374 713.217C420.381 712.395 420.224 711.58 419.912 710.819C419.601 710.058 419.141 709.367 418.56 708.785C417.979 708.204 417.287 707.744 416.526 707.433C415.766 707.121 414.95 706.964 414.128 706.971Z" fill="white"/>
<path d="M502.076 588.897C499.841 588.897 497.656 589.56 495.797 590.802C493.938 592.044 492.489 593.809 491.634 595.874C490.778 597.94 490.554 600.212 490.991 602.405C491.427 604.597 492.503 606.611 494.084 608.192C495.665 609.773 497.679 610.849 499.871 611.285C502.064 611.722 504.336 611.498 506.402 610.642C508.467 609.787 510.232 608.338 511.474 606.479C512.716 604.621 513.379 602.435 513.379 600.2C513.391 598.712 513.107 597.237 512.544 595.86C511.98 594.483 511.148 593.232 510.096 592.18C509.044 591.128 507.793 590.296 506.416 589.732C505.039 589.169 503.564 588.885 502.076 588.897Z" fill="white"/>
<path d="M464.112 592.234C462.538 592.234 460.999 592.701 459.69 593.575C458.381 594.45 457.361 595.693 456.758 597.148C456.156 598.602 455.998 600.203 456.305 601.747C456.612 603.291 457.371 604.709 458.484 605.822C459.597 606.936 461.015 607.694 462.559 608.001C464.104 608.308 465.704 608.15 467.159 607.548C468.613 606.945 469.856 605.925 470.731 604.616C471.606 603.307 472.072 601.768 472.072 600.194C472.081 599.146 471.882 598.107 471.485 597.137C471.088 596.167 470.502 595.286 469.761 594.545C469.02 593.804 468.139 593.218 467.169 592.821C466.199 592.424 465.16 592.225 464.112 592.234Z" fill="white"/>
<path d="M502.076 437.737C499.841 437.737 497.656 438.4 495.797 439.642C493.938 440.884 492.489 442.649 491.634 444.714C490.778 446.78 490.554 449.052 490.991 451.245C491.427 453.437 492.503 455.451 494.084 457.032C495.665 458.613 497.679 459.689 499.871 460.125C502.064 460.561 504.336 460.338 506.402 459.482C508.467 458.627 510.232 457.178 511.474 455.319C512.716 453.46 513.379 451.275 513.379 449.04C513.391 447.552 513.107 446.077 512.544 444.7C511.98 443.323 511.148 442.072 510.096 441.02C509.044 439.968 507.793 439.136 506.416 438.572C505.039 438.009 503.564 437.725 502.076 437.737Z" fill="white"/>
<path d="M464.112 441.08C462.538 441.08 460.999 441.547 459.69 442.422C458.381 443.296 457.361 444.539 456.758 445.994C456.156 447.448 455.998 449.049 456.305 450.593C456.612 452.137 457.371 453.555 458.484 454.669C459.597 455.782 461.015 456.54 462.559 456.847C464.104 457.154 465.704 456.997 467.159 456.394C468.613 455.792 469.856 454.771 470.731 453.462C471.606 452.153 472.072 450.614 472.072 449.04C472.081 447.992 471.882 446.953 471.485 445.983C471.088 445.013 470.502 444.132 469.761 443.391C469.02 442.65 468.139 442.064 467.169 441.667C466.199 441.271 465.16 441.071 464.112 441.08Z" fill="white"/>
<path d="M413.927 442.794C412.69 442.793 411.481 443.159 410.452 443.845C409.423 444.532 408.621 445.508 408.147 446.651C407.673 447.793 407.549 449.05 407.79 450.264C408.031 451.477 408.626 452.591 409.501 453.466C410.376 454.341 411.49 454.936 412.703 455.177C413.916 455.418 415.174 455.294 416.316 454.82C417.459 454.346 418.435 453.544 419.122 452.515C419.808 451.486 420.174 450.277 420.173 449.04C420.18 448.218 420.023 447.402 419.711 446.642C419.4 445.881 418.94 445.189 418.359 444.608C417.777 444.027 417.086 443.567 416.325 443.256C415.564 442.944 414.749 442.787 413.927 442.794Z" fill="white"/>
<path d="M350.814 442.794C349.577 442.793 348.367 443.159 347.339 443.845C346.31 444.532 345.507 445.508 345.034 446.651C344.56 447.793 344.435 449.05 344.676 450.264C344.918 451.477 345.513 452.591 346.388 453.466C347.262 454.341 348.377 454.936 349.59 455.177C350.803 455.418 352.06 455.294 353.203 454.82C354.346 454.346 355.322 453.544 356.008 452.515C356.695 451.486 357.061 450.277 357.059 449.04C357.066 448.218 356.909 447.402 356.598 446.642C356.287 445.881 355.827 445.189 355.245 444.608C354.664 444.027 353.973 443.567 353.212 443.256C352.451 442.944 351.636 442.787 350.814 442.794Z" fill="white"/>
<path d="M464.508 550.959C462.273 550.962 460.089 551.627 458.232 552.87C456.375 554.113 454.928 555.879 454.074 557.945C453.22 560.01 452.998 562.283 453.435 564.474C453.873 566.666 454.95 568.679 456.531 570.259C458.113 571.838 460.127 572.914 462.319 573.349C464.511 573.784 466.783 573.56 468.848 572.704C470.912 571.848 472.677 570.399 473.918 568.541C475.16 566.682 475.823 564.497 475.823 562.262C475.835 560.775 475.551 559.299 474.987 557.923C474.423 556.546 473.591 555.295 472.539 554.243C471.487 553.191 470.236 552.359 468.859 551.795C467.483 551.231 466.007 550.947 464.52 550.959" fill="white"/>
<path d="M426.546 554.297C424.971 554.297 423.431 554.764 422.121 555.64C420.812 556.516 419.791 557.76 419.19 559.216C418.588 560.672 418.432 562.274 418.741 563.818C419.05 565.363 419.81 566.781 420.925 567.894C422.041 569.006 423.461 569.762 425.007 570.067C426.553 570.371 428.154 570.21 429.608 569.605C431.062 568.999 432.304 567.975 433.176 566.663C434.047 565.351 434.51 563.809 434.506 562.234C434.515 561.186 434.315 560.147 433.919 559.177C433.522 558.207 432.936 557.326 432.195 556.585C431.454 555.844 430.573 555.258 429.603 554.861C428.633 554.465 427.594 554.265 426.546 554.274" fill="white"/>
<path d="M376.372 556.005C375.135 556.004 373.926 556.37 372.897 557.057C371.868 557.743 371.066 558.719 370.592 559.862C370.118 561.004 369.994 562.262 370.235 563.475C370.476 564.688 371.072 565.803 371.946 566.677C372.821 567.552 373.935 568.147 375.148 568.388C376.362 568.629 377.619 568.505 378.762 568.031C379.904 567.557 380.88 566.755 381.567 565.726C382.253 564.697 382.619 563.488 382.618 562.251C382.625 561.429 382.468 560.614 382.157 559.853C381.845 559.092 381.385 558.401 380.804 557.819C380.223 557.238 379.531 556.778 378.771 556.467C378.01 556.155 377.194 555.999 376.372 556.005Z" fill="white"/>
<path d="M313.242 556.005C311.618 556.055 310.076 556.735 308.944 557.901C307.813 559.067 307.18 560.629 307.18 562.254C307.18 563.879 307.813 565.441 308.944 566.607C310.076 567.774 311.618 568.454 313.242 568.503C314.867 568.454 316.408 567.774 317.54 566.607C318.672 565.441 319.305 563.879 319.305 562.254C319.305 560.629 318.672 559.067 317.54 557.901C316.408 556.735 314.867 556.055 313.242 556.005Z" fill="white"/>
<path d="M881.776 664.149C879.54 664.149 877.355 664.812 875.496 666.054C873.637 667.295 872.189 669.061 871.333 671.126C870.478 673.191 870.254 675.464 870.69 677.657C871.126 679.849 872.202 681.863 873.783 683.444C875.364 685.025 877.378 686.101 879.57 686.537C881.763 686.973 884.036 686.749 886.101 685.894C888.166 685.038 889.932 683.59 891.173 681.731C892.415 679.872 893.078 677.687 893.078 675.452C893.091 673.964 892.807 672.489 892.243 671.112C891.679 669.735 890.847 668.484 889.795 667.432C888.743 666.38 887.492 665.548 886.115 664.984C884.738 664.421 883.263 664.136 881.776 664.149Z" fill="white"/>
<path d="M843.828 664.149C841.593 664.149 839.407 664.812 837.549 666.054C835.69 667.295 834.241 669.061 833.386 671.126C832.53 673.191 832.306 675.464 832.743 677.657C833.179 679.849 834.255 681.863 835.836 683.444C837.417 685.025 839.431 686.101 841.623 686.537C843.816 686.973 846.088 686.749 848.154 685.894C850.219 685.038 851.984 683.59 853.226 681.731C854.468 679.872 855.131 677.687 855.131 675.452C855.143 673.964 854.859 672.489 854.296 671.112C853.732 669.735 852.9 668.484 851.848 667.432C850.796 666.38 849.545 665.548 848.168 664.984C846.791 664.421 845.316 664.136 843.828 664.149Z" fill="white"/>
<path d="M805.883 664.148C803.647 664.148 801.462 664.811 799.603 666.053C797.745 667.295 796.296 669.06 795.44 671.126C794.585 673.191 794.361 675.464 794.797 677.656C795.233 679.849 796.31 681.863 797.891 683.444C799.471 685.024 801.485 686.101 803.678 686.537C805.87 686.973 808.143 686.749 810.208 685.894C812.274 685.038 814.039 683.589 815.281 681.731C816.523 679.872 817.186 677.687 817.186 675.451C817.198 673.964 816.914 672.488 816.35 671.111C815.787 669.735 814.954 668.484 813.902 667.432C812.85 666.38 811.6 665.548 810.223 664.984C808.846 664.42 807.371 664.136 805.883 664.148Z" fill="white"/>
<path d="M616.127 664.149C613.892 664.149 611.706 664.812 609.848 666.054C607.989 667.295 606.54 669.061 605.685 671.126C604.829 673.191 604.605 675.464 605.041 677.657C605.478 679.849 606.554 681.863 608.135 683.444C609.715 685.025 611.729 686.101 613.922 686.537C616.115 686.973 618.387 686.749 620.452 685.894C622.518 685.038 624.283 683.59 625.525 681.731C626.767 679.872 627.43 677.687 627.43 675.452C627.442 673.964 627.158 672.489 626.594 671.112C626.031 669.735 625.199 668.484 624.147 667.432C623.095 666.38 621.844 665.548 620.467 664.984C619.09 664.421 617.615 664.136 616.127 664.149Z" fill="white"/>
<path d="M578.17 664.149C575.935 664.149 573.749 664.812 571.891 666.054C570.032 667.295 568.583 669.061 567.728 671.126C566.872 673.191 566.648 675.464 567.084 677.657C567.52 679.849 568.597 681.863 570.178 683.444C571.758 685.025 573.772 686.101 575.965 686.537C578.158 686.973 580.43 686.749 582.495 685.894C584.561 685.038 586.326 683.59 587.568 681.731C588.81 679.872 589.473 677.687 589.473 675.452C589.485 673.964 589.201 672.489 588.637 671.112C588.074 669.735 587.242 668.484 586.19 667.432C585.138 666.38 583.887 665.548 582.51 664.984C581.133 664.421 579.658 664.136 578.17 664.149Z" fill="white"/>
<path d="M540.223 664.149C537.987 664.149 535.802 664.812 533.943 666.054C532.085 667.295 530.636 669.061 529.78 671.126C528.925 673.191 528.701 675.464 529.137 677.657C529.573 679.849 530.65 681.863 532.23 683.444C533.811 685.025 535.825 686.101 538.018 686.537C540.21 686.973 542.483 686.749 544.548 685.894C546.614 685.038 548.379 683.59 549.621 681.731C550.863 679.872 551.526 677.687 551.526 675.452C551.538 673.964 551.254 672.489 550.69 671.112C550.126 669.735 549.294 668.484 548.242 667.432C547.19 666.38 545.939 665.548 544.563 664.984C543.186 664.421 541.71 664.136 540.223 664.149Z" fill="white"/>
<path d="M881.78 626.44C879.545 626.441 877.361 627.104 875.503 628.346C873.646 629.588 872.198 631.353 871.343 633.417C870.488 635.482 870.264 637.753 870.699 639.945C871.134 642.137 872.21 644.15 873.789 645.731C875.368 647.312 877.381 648.389 879.572 648.827C881.763 649.264 884.035 649.042 886.1 648.189C888.165 647.336 889.932 645.89 891.175 644.034C892.419 642.178 893.085 639.994 893.088 637.76C893.1 636.272 892.816 634.797 892.253 633.42C891.689 632.043 890.857 630.792 889.805 629.74C888.753 628.688 887.502 627.856 886.125 627.292C884.748 626.729 883.273 626.445 881.785 626.457" fill="white"/>
<path d="M843.834 626.44C841.6 626.441 839.416 627.104 837.558 628.346C835.7 629.588 834.253 631.353 833.397 633.417C832.542 635.482 832.318 637.753 832.754 639.945C833.189 642.137 834.264 644.15 835.844 645.731C837.423 647.312 839.435 648.389 841.627 648.827C843.818 649.264 846.09 649.042 848.155 648.189C850.22 647.336 851.986 645.89 853.23 644.034C854.474 642.178 855.139 639.994 855.143 637.76C855.155 636.272 854.871 634.797 854.307 633.42C853.744 632.043 852.911 630.792 851.859 629.74C850.807 628.688 849.557 627.856 848.18 627.292C846.803 626.729 845.328 626.445 843.84 626.457" fill="white"/>
<path d="M805.887 626.44C803.652 626.441 801.468 627.104 799.611 628.346C797.753 629.588 796.305 631.353 795.45 633.417C794.595 635.482 794.371 637.753 794.806 639.945C795.242 642.137 796.317 644.15 797.896 645.731C799.476 647.312 801.488 648.389 803.679 648.827C805.87 649.264 808.142 649.042 810.208 648.189C812.273 647.336 814.039 645.89 815.283 644.034C816.527 642.178 817.192 639.994 817.196 637.76C817.208 636.272 816.924 634.797 816.36 633.42C815.796 632.043 814.964 630.792 813.912 629.74C812.86 628.688 811.609 627.856 810.233 627.292C808.856 626.729 807.38 626.445 805.893 626.457" fill="white"/>
<path d="M767.93 626.44C765.695 626.441 763.511 627.104 761.654 628.346C759.796 629.588 758.348 631.353 757.493 633.417C756.638 635.482 756.414 637.753 756.849 639.945C757.285 642.137 758.36 644.15 759.939 645.731C761.519 647.312 763.531 648.389 765.722 648.827C767.913 649.264 770.185 649.042 772.251 648.189C774.316 647.336 776.082 645.89 777.326 644.034C778.569 642.178 779.235 639.994 779.238 637.76C779.251 636.272 778.967 634.797 778.403 633.42C777.839 632.043 777.007 630.792 775.955 629.74C774.903 628.688 773.652 627.856 772.275 627.292C770.899 626.729 769.423 626.445 767.936 626.457" fill="white"/>
<path d="M729.973 626.44C727.738 626.441 725.554 627.104 723.697 628.346C721.839 629.588 720.391 631.353 719.536 633.417C718.681 635.482 718.457 637.753 718.892 639.945C719.328 642.137 720.403 644.15 721.982 645.731C723.562 647.312 725.574 648.389 727.765 648.827C729.956 649.264 732.228 649.042 734.294 648.189C736.359 647.336 738.125 645.89 739.369 644.034C740.612 642.178 741.278 639.994 741.282 637.76C741.294 636.272 741.01 634.797 740.446 633.42C739.882 632.043 739.05 630.792 737.998 629.74C736.946 628.688 735.695 627.856 734.318 627.292C732.942 626.729 731.466 626.445 729.979 626.457" fill="white"/>
<path d="M692.02 626.44C689.785 626.44 687.6 627.102 685.742 628.343C683.884 629.585 682.435 631.349 681.579 633.413C680.723 635.478 680.498 637.749 680.933 639.941C681.367 642.133 682.442 644.147 684.021 645.729C685.6 647.31 687.613 648.388 689.804 648.826C691.995 649.264 694.268 649.043 696.333 648.19C698.399 647.337 700.165 645.891 701.409 644.035C702.653 642.178 703.319 639.994 703.322 637.76C703.335 636.272 703.051 634.797 702.487 633.42C701.923 632.043 701.091 630.792 700.039 629.74C698.987 628.688 697.736 627.856 696.359 627.292C694.983 626.729 693.507 626.445 692.02 626.457" fill="white"/>
<path d="M654.074 626.44C651.84 626.44 649.655 627.103 647.797 628.344C645.938 629.585 644.489 631.349 643.634 633.414C642.778 635.478 642.553 637.75 642.987 639.942C643.422 642.134 644.497 644.148 646.076 645.729C647.655 647.311 649.667 648.388 651.859 648.827C654.05 649.265 656.322 649.043 658.388 648.19C660.454 647.337 662.22 645.891 663.464 644.035C664.708 642.178 665.374 639.995 665.377 637.76C665.392 636.271 665.109 634.794 664.547 633.415C663.984 632.036 663.152 630.783 662.1 629.729C661.048 628.676 659.796 627.842 658.418 627.277C657.04 626.712 655.563 626.428 654.074 626.44Z" fill="white"/>
<path d="M616.121 626.44C613.887 626.441 611.703 627.104 609.845 628.346C607.988 629.588 606.54 631.353 605.685 633.417C604.829 635.482 604.605 637.753 605.041 639.945C605.476 642.137 606.551 644.15 608.131 645.731C609.71 647.312 611.722 648.389 613.914 648.827C616.105 649.264 618.377 649.042 620.442 648.189C622.507 647.336 624.273 645.89 625.517 644.034C626.761 642.178 627.427 639.994 627.43 637.76C627.442 636.272 627.158 634.797 626.594 633.42C626.031 632.043 625.199 630.792 624.147 629.74C623.095 628.688 621.844 627.856 620.467 627.292C619.09 626.729 617.615 626.445 616.127 626.457" fill="white"/>
<path d="M578.176 626.44C575.942 626.441 573.757 627.104 571.9 628.346C570.042 629.588 568.594 631.353 567.739 633.417C566.884 635.482 566.66 637.753 567.096 639.945C567.531 642.137 568.606 644.15 570.185 645.731C571.765 647.312 573.777 648.389 575.968 648.827C578.16 649.264 580.431 649.042 582.497 648.189C584.562 647.336 586.328 645.89 587.572 644.034C588.816 642.178 589.481 639.994 589.485 637.76C589.497 636.272 589.213 634.797 588.649 633.42C588.085 632.043 587.253 630.792 586.201 629.74C585.149 628.688 583.898 627.856 582.522 627.292C581.145 626.729 579.669 626.445 578.182 626.457" fill="white"/>
<path d="M540.229 626.44C537.994 626.441 535.81 627.104 533.953 628.346C532.095 629.588 530.647 631.353 529.792 633.417C528.937 635.482 528.713 637.753 529.148 639.945C529.584 642.137 530.659 644.15 532.238 645.731C533.817 647.312 535.83 648.389 538.021 648.827C540.212 649.264 542.484 649.042 544.549 648.189C546.615 647.336 548.381 645.89 549.625 644.034C550.868 642.178 551.534 639.994 551.537 637.76C551.55 636.272 551.265 634.797 550.702 633.42C550.138 632.043 549.306 630.792 548.254 629.74C547.202 628.688 545.951 627.856 544.574 627.292C543.197 626.729 541.722 626.445 540.234 626.457" fill="white"/>
<path d="M881.776 588.697C879.54 588.697 877.355 589.36 875.496 590.602C873.637 591.844 872.189 593.609 871.333 595.674C870.478 597.739 870.254 600.012 870.69 602.205C871.126 604.397 872.202 606.411 873.783 607.992C875.364 609.573 877.378 610.649 879.57 611.085C881.763 611.521 884.036 611.297 886.101 610.442C888.166 609.587 889.932 608.138 891.173 606.279C892.415 604.42 893.078 602.235 893.078 600C893.091 598.512 892.807 597.037 892.243 595.66C891.679 594.283 890.847 593.032 889.795 591.98C888.743 590.928 887.492 590.096 886.115 589.532C884.738 588.969 883.263 588.684 881.776 588.697Z" fill="white"/>
<path d="M843.834 588.697C841.599 588.698 839.414 589.362 837.556 590.604C835.698 591.847 834.25 593.613 833.396 595.678C832.541 597.743 832.318 600.016 832.755 602.208C833.192 604.4 834.269 606.414 835.85 607.994C837.431 609.574 839.445 610.65 841.637 611.086C843.829 611.521 846.102 611.297 848.167 610.441C850.232 609.586 851.997 608.137 853.238 606.278C854.48 604.42 855.143 602.235 855.143 600C855.155 598.512 854.871 597.037 854.307 595.66C853.744 594.283 852.911 593.032 851.859 591.98C850.807 590.928 849.557 590.096 848.18 589.532C846.803 588.969 845.322 588.684 843.834 588.697Z" fill="white"/>
<path d="M805.883 588.697C803.647 588.697 801.462 589.36 799.603 590.602C797.745 591.844 796.296 593.609 795.44 595.674C794.585 597.74 794.361 600.012 794.797 602.205C795.233 604.397 796.31 606.411 797.891 607.992C799.471 609.573 801.485 610.649 803.678 611.085C805.87 611.522 808.143 611.298 810.208 610.442C812.274 609.587 814.039 608.138 815.281 606.279C816.523 604.421 817.186 602.235 817.186 600C817.198 598.512 816.914 597.037 816.35 595.66C815.787 594.283 814.954 593.032 813.902 591.98C812.85 590.928 811.6 590.096 810.223 589.532C808.846 588.969 807.371 588.685 805.883 588.697Z" fill="white"/>
<path d="M767.924 588.697C765.688 588.697 763.503 589.36 761.644 590.602C759.786 591.844 758.337 593.609 757.481 595.674C756.626 597.739 756.402 600.012 756.838 602.205C757.274 604.397 758.351 606.411 759.932 607.992C761.512 609.573 763.526 610.649 765.719 611.085C767.911 611.521 770.184 611.297 772.249 610.442C774.315 609.587 776.08 608.138 777.322 606.279C778.564 604.42 779.227 602.235 779.227 600C779.239 598.512 778.955 597.037 778.391 595.66C777.828 594.283 776.995 593.032 775.943 591.98C774.891 590.928 773.641 590.096 772.264 589.532C770.887 588.969 769.412 588.684 767.924 588.697Z" fill="white"/>
<path d="M729.979 588.697C727.743 588.697 725.558 589.36 723.699 590.602C721.84 591.844 720.392 593.609 719.536 595.674C718.681 597.739 718.457 600.012 718.893 602.205C719.329 604.397 720.406 606.411 721.986 607.992C723.567 609.573 725.581 610.649 727.774 611.085C729.966 611.521 732.239 611.297 734.304 610.442C736.369 609.587 738.135 608.138 739.377 606.279C740.619 604.42 741.281 602.235 741.281 600C741.294 598.512 741.01 597.037 740.446 595.66C739.882 594.283 739.05 593.032 737.998 591.98C736.946 590.928 735.695 590.096 734.318 589.532C732.942 588.969 731.466 588.684 729.979 588.697Z" fill="white"/>
<path d="M692.02 588.697C689.784 588.697 687.599 589.36 685.74 590.602C683.881 591.844 682.433 593.609 681.577 595.674C680.722 597.739 680.498 600.012 680.934 602.205C681.37 604.397 682.447 606.411 684.027 607.992C685.608 609.573 687.622 610.649 689.815 611.085C692.007 611.521 694.28 611.297 696.345 610.442C698.41 609.587 700.176 608.138 701.418 606.279C702.66 604.42 703.323 602.235 703.323 600C703.335 598.512 703.051 597.037 702.487 595.66C701.923 594.283 701.091 593.032 700.039 591.98C698.987 590.928 697.736 590.096 696.359 589.532C694.983 588.969 693.507 588.684 692.02 588.697Z" fill="white"/>
<path d="M654.074 588.697C651.839 588.697 649.654 589.36 647.795 590.602C645.936 591.844 644.487 593.609 643.632 595.674C642.776 597.739 642.553 600.012 642.989 602.205C643.425 604.397 644.501 606.411 646.082 607.992C647.663 609.573 649.677 610.649 651.869 611.085C654.062 611.521 656.334 611.297 658.4 610.442C660.465 609.587 662.23 608.138 663.472 606.279C664.714 604.42 665.377 602.235 665.377 600C665.389 598.512 665.105 597.037 664.542 595.66C663.978 594.283 663.146 593.032 662.094 591.98C661.042 590.928 659.791 590.096 658.414 589.532C657.037 588.969 655.562 588.684 654.074 588.697Z" fill="white"/>
<path d="M616.127 588.697C613.892 588.697 611.706 589.36 609.848 590.602C607.989 591.844 606.54 593.609 605.685 595.674C604.829 597.739 604.605 600.012 605.041 602.205C605.478 604.397 606.554 606.411 608.135 607.992C609.715 609.573 611.729 610.649 613.922 611.085C616.115 611.521 618.387 611.297 620.452 610.442C622.518 609.587 624.283 608.138 625.525 606.279C626.767 604.42 627.43 602.235 627.43 600C627.442 598.512 627.158 597.037 626.594 595.66C626.031 594.283 625.199 593.032 624.147 591.98C623.095 590.928 621.844 590.096 620.467 589.532C619.09 588.969 617.615 588.684 616.127 588.697Z" fill="white"/>
<path d="M578.17 588.697C575.935 588.697 573.749 589.36 571.891 590.602C570.032 591.844 568.583 593.609 567.728 595.674C566.872 597.739 566.648 600.012 567.084 602.205C567.52 604.397 568.597 606.411 570.178 607.992C571.758 609.573 573.772 610.649 575.965 611.085C578.158 611.521 580.43 611.297 582.495 610.442C584.561 609.587 586.326 608.138 587.568 606.279C588.81 604.42 589.473 602.235 589.473 600C589.485 598.512 589.201 597.037 588.637 595.66C588.074 594.283 587.242 593.032 586.19 591.98C585.138 590.928 583.887 590.096 582.51 589.532C581.133 588.969 579.658 588.684 578.17 588.697Z" fill="white"/>
<path d="M540.223 588.697C537.987 588.697 535.802 589.36 533.943 590.602C532.085 591.844 530.636 593.609 529.78 595.674C528.925 597.739 528.701 600.012 529.137 602.205C529.573 604.397 530.65 606.411 532.23 607.992C533.811 609.573 535.825 610.649 538.018 611.085C540.21 611.521 542.483 611.297 544.548 610.442C546.614 609.587 548.379 608.138 549.621 606.279C550.863 604.42 551.526 602.235 551.526 600C551.538 598.512 551.254 597.037 550.69 595.66C550.126 594.283 549.294 593.032 548.242 591.98C547.19 590.928 545.939 590.096 544.563 589.532C543.186 588.969 541.71 588.684 540.223 588.697Z" fill="white"/>
<path d="M881.776 550.959C879.54 550.959 877.355 551.622 875.496 552.864C873.637 554.106 872.189 555.872 871.333 557.937C870.478 560.002 870.254 562.275 870.69 564.467C871.126 566.66 872.202 568.674 873.783 570.255C875.364 571.835 877.378 572.912 879.57 573.348C881.763 573.784 884.036 573.56 886.101 572.705C888.166 571.849 889.932 570.401 891.173 568.542C892.415 566.683 893.078 564.498 893.078 562.262C893.091 560.775 892.807 559.299 892.243 557.923C891.679 556.546 890.847 555.295 889.795 554.243C888.743 553.191 887.492 552.359 886.115 551.795C884.738 551.231 883.263 550.947 881.776 550.959Z" fill="white"/>
<path d="M843.828 550.959C841.593 550.959 839.407 551.622 837.549 552.864C835.69 554.106 834.241 555.872 833.386 557.937C832.53 560.002 832.306 562.275 832.743 564.467C833.179 566.66 834.255 568.674 835.836 570.255C837.417 571.835 839.431 572.912 841.623 573.348C843.816 573.784 846.088 573.56 848.154 572.705C850.219 571.849 851.984 570.401 853.226 568.542C854.468 566.683 855.131 564.498 855.131 562.262C855.143 560.775 854.859 559.299 854.296 557.923C853.732 556.546 852.9 555.295 851.848 554.243C850.796 553.191 849.545 552.359 848.168 551.795C846.791 551.231 845.316 550.947 843.828 550.959Z" fill="white"/>
<path d="M805.883 550.96C803.647 550.96 801.462 551.623 799.603 552.865C797.745 554.107 796.296 555.872 795.44 557.937C794.585 560.003 794.361 562.275 794.797 564.468C795.233 566.66 796.31 568.674 797.891 570.255C799.471 571.836 801.485 572.912 803.678 573.348C805.87 573.784 808.143 573.561 810.208 572.705C812.274 571.85 814.039 570.401 815.281 568.542C816.523 566.683 817.186 564.498 817.186 562.263C817.198 560.775 816.914 559.3 816.35 557.923C815.787 556.546 814.954 555.295 813.902 554.243C812.85 553.191 811.6 552.359 810.223 551.795C808.846 551.232 807.371 550.948 805.883 550.96Z" fill="white"/>
<path d="M767.924 550.959C765.688 550.959 763.503 551.622 761.644 552.864C759.786 554.106 758.337 555.872 757.481 557.937C756.626 560.002 756.402 562.275 756.838 564.467C757.274 566.66 758.351 568.674 759.932 570.255C761.512 571.835 763.526 572.912 765.719 573.348C767.911 573.784 770.184 573.56 772.249 572.705C774.315 571.849 776.08 570.401 777.322 568.542C778.564 566.683 779.227 564.498 779.227 562.262C779.239 560.775 778.955 559.299 778.391 557.923C777.828 556.546 776.995 555.295 775.943 554.243C774.891 553.191 773.641 552.359 772.264 551.795C770.887 551.231 769.412 550.947 767.924 550.959Z" fill="white"/>
<path d="M729.979 550.959C727.743 550.959 725.558 551.622 723.699 552.864C721.84 554.106 720.392 555.872 719.536 557.937C718.681 560.002 718.457 562.275 718.893 564.467C719.329 566.66 720.406 568.674 721.986 570.255C723.567 571.835 725.581 572.912 727.774 573.348C729.966 573.784 732.239 573.56 734.304 572.705C736.369 571.849 738.135 570.401 739.377 568.542C740.619 566.683 741.281 564.498 741.281 562.262C741.294 560.775 741.01 559.299 740.446 557.923C739.882 556.546 739.05 555.295 737.998 554.243C736.946 553.191 735.695 552.359 734.318 551.795C732.942 551.231 731.466 550.947 729.979 550.959Z" fill="white"/>
<path d="M692.02 550.959C689.784 550.959 687.599 551.622 685.74 552.864C683.881 554.106 682.433 555.872 681.577 557.937C680.722 560.002 680.498 562.275 680.934 564.467C681.37 566.66 682.447 568.674 684.027 570.255C685.608 571.835 687.622 572.912 689.815 573.348C692.007 573.784 694.28 573.56 696.345 572.705C698.41 571.849 700.176 570.401 701.418 568.542C702.66 566.683 703.323 564.498 703.323 562.262C703.335 560.775 703.051 559.299 702.487 557.923C701.923 556.546 701.091 555.295 700.039 554.243C698.987 553.191 697.736 552.359 696.359 551.795C694.983 551.231 693.507 550.947 692.02 550.959Z" fill="white"/>
<path d="M654.074 550.959C651.839 550.959 649.654 551.622 647.795 552.864C645.936 554.106 644.487 555.872 643.632 557.937C642.776 560.002 642.553 562.275 642.989 564.467C643.425 566.66 644.501 568.674 646.082 570.255C647.663 571.835 649.677 572.912 651.869 573.348C654.062 573.784 656.334 573.56 658.4 572.705C660.465 571.849 662.23 570.401 663.472 568.542C664.714 566.683 665.377 564.498 665.377 562.262C665.389 560.775 665.105 559.299 664.542 557.923C663.978 556.546 663.146 555.295 662.094 554.243C661.042 553.191 659.791 552.359 658.414 551.795C657.037 551.231 655.562 550.947 654.074 550.959Z" fill="white"/>
<path d="M616.127 550.959C613.892 550.959 611.706 551.622 609.848 552.864C607.989 554.106 606.54 555.872 605.685 557.937C604.829 560.002 604.605 562.275 605.041 564.467C605.478 566.66 606.554 568.674 608.135 570.255C609.715 571.835 611.729 572.912 613.922 573.348C616.115 573.784 618.387 573.56 620.452 572.705C622.518 571.849 624.283 570.401 625.525 568.542C626.767 566.683 627.43 564.498 627.43 562.262C627.442 560.775 627.158 559.299 626.594 557.923C626.031 556.546 625.199 555.295 624.147 554.243C623.095 553.191 621.844 552.359 620.467 551.795C619.09 551.231 617.615 550.947 616.127 550.959Z" fill="white"/>
<path d="M578.17 550.959C575.935 550.959 573.749 551.622 571.891 552.864C570.032 554.106 568.583 555.872 567.728 557.937C566.872 560.002 566.648 562.275 567.084 564.467C567.52 566.66 568.597 568.674 570.178 570.255C571.758 571.835 573.772 572.912 575.965 573.348C578.158 573.784 580.43 573.56 582.495 572.705C584.561 571.849 586.326 570.401 587.568 568.542C588.81 566.683 589.473 564.498 589.473 562.262C589.485 560.775 589.201 559.299 588.637 557.923C588.074 556.546 587.242 555.295 586.19 554.243C585.138 553.191 583.887 552.359 582.51 551.795C581.133 551.231 579.658 550.947 578.17 550.959Z" fill="white"/>
<path d="M540.223 550.959C537.987 550.959 535.802 551.622 533.943 552.864C532.085 554.106 530.636 555.872 529.78 557.937C528.925 560.002 528.701 562.275 529.137 564.467C529.573 566.66 530.65 568.674 532.23 570.255C533.811 571.835 535.825 572.912 538.018 573.348C540.21 573.784 542.483 573.56 544.548 572.705C546.614 571.849 548.379 570.401 549.621 568.542C550.863 566.683 551.526 564.498 551.526 562.262C551.538 560.775 551.254 559.299 550.69 557.923C550.126 556.546 549.294 555.295 548.242 554.243C547.19 553.191 545.939 552.359 544.563 551.795C543.186 551.231 541.71 550.947 540.223 550.959Z" fill="white"/>
<path d="M881.776 513.217C879.54 513.217 877.355 513.88 875.496 515.122C873.637 516.364 872.189 518.129 871.333 520.194C870.478 522.26 870.254 524.532 870.69 526.725C871.126 528.917 872.202 530.931 873.783 532.512C875.364 534.093 877.378 535.169 879.57 535.605C881.763 536.041 884.036 535.818 886.101 534.962C888.166 534.107 889.932 532.658 891.173 530.799C892.415 528.94 893.078 526.755 893.078 524.52C893.091 523.032 892.807 521.557 892.243 520.18C891.679 518.803 890.847 517.552 889.795 516.5C888.743 515.448 887.492 514.616 886.115 514.052C884.738 513.489 883.263 513.205 881.776 513.217Z" fill="white"/>
<path d="M843.828 513.217C841.593 513.217 839.407 513.88 837.549 515.122C835.69 516.364 834.241 518.129 833.386 520.194C832.53 522.26 832.306 524.532 832.743 526.725C833.179 528.917 834.255 530.931 835.836 532.512C837.417 534.093 839.431 535.169 841.623 535.605C843.816 536.041 846.088 535.818 848.154 534.962C850.219 534.107 851.984 532.658 853.226 530.799C854.468 528.94 855.131 526.755 855.131 524.52C855.143 523.032 854.859 521.557 854.296 520.18C853.732 518.803 852.9 517.552 851.848 516.5C850.796 515.448 849.545 514.616 848.168 514.052C846.791 513.489 845.316 513.205 843.828 513.217Z" fill="white"/>
<path d="M805.883 513.217C803.647 513.217 801.462 513.88 799.603 515.122C797.745 516.364 796.296 518.129 795.44 520.194C794.585 522.26 794.361 524.532 794.797 526.725C795.233 528.917 796.31 530.931 797.891 532.512C799.471 534.093 801.485 535.169 803.678 535.605C805.87 536.042 808.143 535.818 810.208 534.962C812.274 534.107 814.039 532.658 815.281 530.799C816.523 528.941 817.186 526.755 817.186 524.52C817.198 523.032 816.914 521.557 816.35 520.18C815.787 518.803 814.954 517.552 813.902 516.5C812.85 515.448 811.6 514.616 810.223 514.052C808.846 513.489 807.371 513.205 805.883 513.217Z" fill="white"/>
<path d="M616.127 513.217C613.892 513.217 611.706 513.88 609.848 515.122C607.989 516.364 606.54 518.129 605.685 520.194C604.829 522.26 604.605 524.532 605.041 526.725C605.478 528.917 606.554 530.931 608.135 532.512C609.715 534.093 611.729 535.169 613.922 535.605C616.115 536.041 618.387 535.818 620.452 534.962C622.518 534.107 624.283 532.658 625.525 530.799C626.767 528.94 627.43 526.755 627.43 524.52C627.442 523.032 627.158 521.557 626.594 520.18C626.031 518.803 625.199 517.552 624.147 516.5C623.095 515.448 621.844 514.616 620.467 514.052C619.09 513.489 617.615 513.205 616.127 513.217Z" fill="white"/>
<path d="M578.17 513.217C575.935 513.217 573.749 513.88 571.891 515.122C570.032 516.364 568.583 518.129 567.728 520.194C566.872 522.26 566.648 524.532 567.084 526.725C567.52 528.917 568.597 530.931 570.178 532.512C571.758 534.093 573.772 535.169 575.965 535.605C578.158 536.041 580.43 535.818 582.495 534.962C584.561 534.107 586.326 532.658 587.568 530.799C588.81 528.94 589.473 526.755 589.473 524.52C589.485 523.032 589.201 521.557 588.637 520.18C588.074 518.803 587.242 517.552 586.19 516.5C585.138 515.448 583.887 514.616 582.51 514.052C581.133 513.489 579.658 513.205 578.17 513.217Z" fill="white"/>
<path d="M540.223 513.217C537.987 513.217 535.802 513.88 533.943 515.122C532.085 516.364 530.636 518.129 529.78 520.194C528.925 522.26 528.701 524.532 529.137 526.725C529.573 528.917 530.65 530.931 532.23 532.512C533.811 534.093 535.825 535.169 538.018 535.605C540.21 536.041 542.483 535.818 544.548 534.962C546.614 534.107 548.379 532.658 549.621 530.799C550.863 528.94 551.526 526.755 551.526 524.52C551.538 523.032 551.254 521.557 550.69 520.18C550.126 518.803 549.294 517.552 548.242 516.5C547.19 515.448 545.939 514.616 544.563 514.052C543.186 513.489 541.71 513.205 540.223 513.217Z" fill="white"/>
<path d="M881.776 475.48C879.54 475.48 877.355 476.142 875.496 477.384C873.637 478.626 872.189 480.392 871.333 482.457C870.478 484.522 870.254 486.795 870.69 488.988C871.126 491.18 872.202 493.194 873.783 494.775C875.364 496.356 877.378 497.432 879.57 497.868C881.763 498.304 884.036 498.08 886.101 497.225C888.166 496.369 889.932 494.921 891.173 493.062C892.415 491.203 893.078 489.018 893.078 486.782C893.091 485.295 892.807 483.819 892.243 482.443C891.679 481.066 890.847 479.815 889.795 478.763C888.743 477.711 887.492 476.879 886.115 476.315C884.738 475.751 883.263 475.467 881.776 475.48Z" fill="white"/>
<path d="M843.828 475.48C841.593 475.48 839.407 476.142 837.549 477.384C835.69 478.626 834.241 480.392 833.386 482.457C832.53 484.522 832.306 486.795 832.743 488.988C833.179 491.18 834.255 493.194 835.836 494.775C837.417 496.356 839.431 497.432 841.623 497.868C843.816 498.304 846.088 498.08 848.154 497.225C850.219 496.369 851.984 494.921 853.226 493.062C854.468 491.203 855.131 489.018 855.131 486.782C855.143 485.295 854.859 483.819 854.296 482.443C853.732 481.066 852.9 479.815 851.848 478.763C850.796 477.711 849.545 476.879 848.168 476.315C846.791 475.751 845.316 475.467 843.828 475.48Z" fill="white"/>
<path d="M805.883 475.48C803.647 475.48 801.462 476.143 799.603 477.385C797.745 478.627 796.296 480.392 795.44 482.457C794.585 484.523 794.361 486.795 794.797 488.988C795.233 491.18 796.31 493.194 797.891 494.775C799.471 496.356 801.485 497.432 803.678 497.868C805.87 498.304 808.143 498.081 810.208 497.225C812.274 496.37 814.039 494.921 815.281 493.062C816.523 491.203 817.186 489.018 817.186 486.783C817.198 485.295 816.914 483.82 816.35 482.443C815.787 481.066 814.954 479.815 813.902 478.763C812.85 477.711 811.6 476.879 810.223 476.315C808.846 475.752 807.371 475.468 805.883 475.48Z" fill="white"/>
<path d="M616.127 475.48C613.892 475.48 611.706 476.142 609.848 477.384C607.989 478.626 606.54 480.392 605.685 482.457C604.829 484.522 604.605 486.795 605.041 488.988C605.478 491.18 606.554 493.194 608.135 494.775C609.715 496.356 611.729 497.432 613.922 497.868C616.115 498.304 618.387 498.08 620.452 497.225C622.518 496.369 624.283 494.921 625.525 493.062C626.767 491.203 627.43 489.018 627.43 486.782C627.442 485.295 627.158 483.819 626.594 482.443C626.031 481.066 625.199 479.815 624.147 478.763C623.095 477.711 621.844 476.879 620.467 476.315C619.09 475.751 617.615 475.467 616.127 475.48Z" fill="white"/>
<path d="M578.17 475.48C575.935 475.48 573.749 476.142 571.891 477.384C570.032 478.626 568.583 480.392 567.728 482.457C566.872 484.522 566.648 486.795 567.084 488.988C567.52 491.18 568.597 493.194 570.178 494.775C571.758 496.356 573.772 497.432 575.965 497.868C578.158 498.304 580.43 498.08 582.495 497.225C584.561 496.369 586.326 494.921 587.568 493.062C588.81 491.203 589.473 489.018 589.473 486.782C589.485 485.295 589.201 483.819 588.637 482.443C588.074 481.066 587.242 479.815 586.19 478.763C585.138 477.711 583.887 476.879 582.51 476.315C581.133 475.751 579.658 475.467 578.17 475.48Z" fill="white"/>
<path d="M540.223 475.48C537.987 475.48 535.802 476.142 533.943 477.384C532.085 478.626 530.636 480.392 529.78 482.457C528.925 484.522 528.701 486.795 529.137 488.988C529.573 491.18 530.65 493.194 532.23 494.775C533.811 496.356 535.825 497.432 538.018 497.868C540.21 498.304 542.483 498.08 544.548 497.225C546.614 496.369 548.379 494.921 549.621 493.062C550.863 491.203 551.526 489.018 551.526 486.782C551.538 485.295 551.254 483.819 550.69 482.443C550.126 481.066 549.294 479.815 548.242 478.763C547.19 477.711 545.939 476.879 544.563 476.315C543.186 475.751 541.71 475.467 540.223 475.48Z" fill="white"/>
<path d="M881.776 437.737C879.54 437.737 877.355 438.4 875.496 439.642C873.637 440.884 872.189 442.649 871.333 444.714C870.478 446.78 870.254 449.052 870.69 451.245C871.126 453.437 872.202 455.451 873.783 457.032C875.364 458.613 877.378 459.689 879.57 460.125C881.763 460.561 884.036 460.338 886.101 459.482C888.166 458.627 889.932 457.178 891.173 455.319C892.415 453.46 893.078 451.275 893.078 449.04C893.091 447.552 892.807 446.077 892.243 444.7C891.679 443.323 890.847 442.072 889.795 441.02C888.743 439.968 887.492 439.136 886.115 438.572C884.738 438.009 883.263 437.725 881.776 437.737Z" fill="white"/>
<path d="M843.834 437.737C841.599 437.738 839.414 438.402 837.556 439.644C835.698 440.887 834.25 442.653 833.396 444.718C832.541 446.784 832.318 449.056 832.755 451.248C833.192 453.44 834.269 455.454 835.85 457.034C837.431 458.614 839.445 459.69 841.637 460.126C843.829 460.561 846.102 460.337 848.167 459.482C850.232 458.626 851.997 457.177 853.238 455.319C854.48 453.46 855.143 451.275 855.143 449.04C855.155 447.552 854.871 446.077 854.307 444.7C853.744 443.323 852.911 442.072 851.859 441.02C850.807 439.968 849.557 439.136 848.18 438.572C846.803 438.009 845.322 437.725 843.834 437.737Z" fill="white"/>
<path d="M805.883 437.737C803.647 437.737 801.462 438.4 799.603 439.642C797.745 440.884 796.296 442.649 795.44 444.714C794.585 446.78 794.361 449.052 794.797 451.245C795.233 453.437 796.31 455.451 797.891 457.032C799.471 458.613 801.485 459.689 803.678 460.125C805.87 460.562 808.143 460.338 810.208 459.482C812.274 458.627 814.039 457.178 815.281 455.319C816.523 453.461 817.186 451.275 817.186 449.04C817.198 447.552 816.914 446.077 816.35 444.7C815.787 443.323 814.954 442.072 813.902 441.02C812.85 439.968 811.6 439.136 810.223 438.572C808.846 438.009 807.371 437.725 805.883 437.737Z" fill="white"/>
<path d="M616.127 437.737C613.892 437.737 611.706 438.4 609.848 439.642C607.989 440.884 606.54 442.649 605.685 444.714C604.829 446.78 604.605 449.052 605.041 451.245C605.478 453.437 606.554 455.451 608.135 457.032C609.715 458.613 611.729 459.689 613.922 460.125C616.115 460.561 618.387 460.338 620.452 459.482C622.518 458.627 624.283 457.178 625.525 455.319C626.767 453.46 627.43 451.275 627.43 449.04C627.442 447.552 627.158 446.077 626.594 444.7C626.031 443.323 625.199 442.072 624.147 441.02C623.095 439.968 621.844 439.136 620.467 438.572C619.09 438.009 617.615 437.725 616.127 437.737Z" fill="white"/>
<path d="M578.17 437.737C575.935 437.737 573.749 438.4 571.891 439.642C570.032 440.884 568.583 442.649 567.728 444.714C566.872 446.78 566.648 449.052 567.084 451.245C567.52 453.437 568.597 455.451 570.178 457.032C571.758 458.613 573.772 459.689 575.965 460.125C578.158 460.561 580.43 460.338 582.495 459.482C584.561 458.627 586.326 457.178 587.568 455.319C588.81 453.46 589.473 451.275 589.473 449.04C589.485 447.552 589.201 446.077 588.637 444.7C588.074 443.323 587.242 442.072 586.19 441.02C585.138 439.968 583.887 439.136 582.51 438.572C581.133 438.009 579.658 437.725 578.17 437.737Z" fill="white"/>
<path d="M540.223 437.737C537.987 437.737 535.802 438.4 533.943 439.642C532.085 440.884 530.636 442.649 529.78 444.714C528.925 446.78 528.701 449.052 529.137 451.245C529.573 453.437 530.65 455.451 532.23 457.032C533.811 458.613 535.825 459.689 538.018 460.125C540.21 460.561 542.483 460.338 544.548 459.482C546.614 458.627 548.379 457.178 549.621 455.319C550.863 453.46 551.526 451.275 551.526 449.04C551.538 447.552 551.254 446.077 550.69 444.7C550.126 443.323 549.294 442.072 548.242 441.02C547.19 439.968 545.939 439.136 544.563 438.572C543.186 438.009 541.71 437.725 540.223 437.737Z" fill="white"/>
<path d="M881.776 400C880.288 399.988 878.813 400.272 877.436 400.835C876.059 401.399 874.808 402.231 873.756 403.283C872.704 404.335 871.872 405.586 871.309 406.963C870.745 408.34 870.461 409.815 870.473 411.303C870.473 414.301 871.664 417.177 873.784 419.297C875.905 421.417 878.78 422.608 881.779 422.608C884.777 422.608 887.653 421.417 889.773 419.297C891.893 417.177 893.084 414.301 893.084 411.303C893.097 409.814 892.812 408.339 892.248 406.961C891.684 405.584 890.852 404.333 889.799 403.281C888.746 402.229 887.495 401.397 886.117 400.834C884.74 400.27 883.264 399.987 881.776 400Z" fill="white"/>
<path d="M843.829 400C842.341 399.988 840.866 400.272 839.489 400.835C838.112 401.399 836.861 402.231 835.809 403.283C834.757 404.335 833.925 405.586 833.361 406.963C832.798 408.34 832.514 409.815 832.526 411.303C832.526 414.301 833.717 417.177 835.837 419.297C837.957 421.417 840.833 422.608 843.831 422.608C846.83 422.608 849.706 421.417 851.826 419.297C853.946 417.177 855.137 414.301 855.137 411.303C855.149 409.814 854.865 408.339 854.301 406.961C853.737 405.584 852.904 404.333 851.852 403.281C850.799 402.229 849.548 401.397 848.17 400.834C846.793 400.27 845.317 399.987 843.829 400Z" fill="white"/>
<path d="M805.877 400C804.389 399.987 802.913 400.27 801.536 400.834C800.158 401.397 798.907 402.229 797.854 403.281C796.801 404.333 795.969 405.584 795.405 406.961C794.841 408.339 794.557 409.814 794.569 411.303C794.569 414.302 795.76 417.178 797.881 419.299C800.002 421.42 802.878 422.611 805.877 422.611C808.877 422.611 811.753 421.42 813.874 419.299C815.994 417.178 817.186 414.302 817.186 411.303C817.198 409.814 816.914 408.339 816.35 406.961C815.786 405.584 814.953 404.333 813.9 403.281C812.848 402.229 811.596 401.397 810.219 400.834C808.841 400.27 807.365 399.987 805.877 400Z" fill="white"/>
<path d="M616.122 400C614.634 399.988 613.16 400.273 611.784 400.837C610.408 401.401 609.157 402.233 608.106 403.285C607.055 404.337 606.223 405.588 605.66 406.964C605.096 408.341 604.812 409.815 604.825 411.303C604.825 414.301 606.016 417.177 608.136 419.297C610.256 421.417 613.132 422.608 616.13 422.608C619.129 422.608 622.004 421.417 624.125 419.297C626.245 417.177 627.436 414.301 627.436 411.303C627.448 409.814 627.164 408.338 626.599 406.96C626.035 405.583 625.202 404.331 624.149 403.279C623.095 402.227 621.843 401.395 620.465 400.832C619.087 400.269 617.61 399.986 616.122 400Z" fill="white"/>
<path d="M578.17 400C576.683 399.988 575.207 400.272 573.831 400.835C572.454 401.399 571.203 402.231 570.151 403.283C569.099 404.335 568.267 405.586 567.703 406.963C567.139 408.34 566.855 409.815 566.868 411.303C566.868 414.301 568.059 417.177 570.179 419.297C572.299 421.417 575.175 422.608 578.173 422.608C581.172 422.608 584.047 421.417 586.168 419.297C588.288 417.177 589.479 414.301 589.479 411.303C589.491 409.814 589.207 408.339 588.643 406.961C588.079 405.584 587.246 404.333 586.194 403.281C585.141 402.229 583.889 401.397 582.512 400.834C581.134 400.27 579.659 399.987 578.17 400Z" fill="white"/>
<path d="M540.225 400C538.737 399.988 537.262 400.272 535.885 400.835C534.508 401.399 533.258 402.231 532.206 403.283C531.154 404.335 530.322 405.586 529.758 406.963C529.194 408.34 528.91 409.815 528.922 411.303C528.922 414.301 530.113 417.177 532.234 419.297C534.354 421.417 537.23 422.608 540.228 422.608C543.226 422.608 546.102 421.417 548.222 419.297C550.343 417.177 551.534 414.301 551.534 411.303C551.546 409.814 551.262 408.339 550.698 406.962C550.134 405.584 549.301 404.333 548.248 403.281C547.196 402.229 545.944 401.397 544.567 400.834C543.189 400.27 541.713 399.987 540.225 400Z" fill="white"/>
</g>
</g>
<defs>
<clipPath id="clip0_1_922">
<rect width="586.091" height="400" fill="white" transform="translate(307 400)"/>
</clipPath>
</defs>
</svg>
