<svg width="1200" height="1200" viewBox="0 0 1200 1200" fill="none" xmlns="http://www.w3.org/2000/svg">
<rect width="1200" height="1200" fill="white"/>
<g clip-path="url(#clip0_6_196)">
<path d="M321.163 556.648C303.534 556.648 290.343 563.86 283.994 576.374V559.525H248.016V675.41H283.994V617.201C283.994 599.407 291.288 587.859 305.876 587.859C320.937 587.859 325.868 599.407 325.868 616.009V675.41H361.867V606.619C361.867 590.017 359.977 578.716 352.929 569.819C346.806 561.641 335.752 556.648 321.163 556.648Z" fill="#0020A6"/>
<path d="M698.039 576.065C692.614 565.483 677.841 558.025 663.623 558.025C631.734 558.025 609.707 583.606 609.707 617.385C609.707 651.165 631.734 676.746 663.623 676.746C677.841 676.746 692.614 669.637 698.039 659.055V675.492H734.017V559.463H698.039V576.065ZM670.978 647.055C654.746 647.055 643.938 633.576 643.938 617.468C643.938 601.359 654.746 587.88 670.978 587.88C687.211 587.88 698.039 601.585 698.039 617.468C698.039 633.35 687.293 647.055 670.978 647.055Z" fill="#0020A6"/>
<path d="M781.812 578.245V559.465H745.793V675.412H781.812V630.209C781.812 601.833 794.757 591.169 814.523 591.169C818.814 591.134 823.088 591.701 827.221 592.854V559.465C823.797 558.035 820.099 557.383 816.393 557.554C800.592 557.554 786.949 567.417 781.812 578.245Z" fill="#0020A6"/>
<path d="M936.961 556.341C897.921 556.341 874.148 584.244 874.148 617.448C874.148 650.652 897.921 678.555 936.961 678.555C976.473 678.555 999.999 650.652 999.999 617.448C999.999 584.244 976.473 556.341 936.961 556.341ZM936.961 647.036C920.729 647.036 910.147 633.804 910.147 617.448C910.147 601.093 920.729 587.861 936.961 587.861C953.193 587.861 964.247 601.319 964.247 617.448C964.247 633.578 953.44 647.057 936.961 647.057V647.036Z" fill="#0020A6"/>
<path d="M200 588.743H231.375L200 605.715V675.411H235.998V559.464H200V588.743Z" fill="#0020A6"/>
<path d="M834.594 588.743H865.825L834.594 605.633V675.411H870.572V559.464H834.594V588.743Z" fill="#0020A6"/>
<path d="M582.237 628.276V588.764H608.106V559.464H582.237V521H581.806L546.485 540.212V559.567H446.277L418.518 632.468L391.006 559.464H353.363L403.93 675.411H432.696L481.515 565.053V588.744H512.891L481.515 605.716V675.411H517.493V588.764H546.547V636.454C546.547 675.185 569.827 677.343 586.757 677.343C594.798 677.406 602.829 676.759 610.756 675.411V647.282C606.461 647.792 602.137 648.032 597.812 648.001C588.812 648.001 582.237 645.351 582.237 628.276Z" fill="#0020A6"/>
</g>
<defs>
<clipPath id="clip0_6_196">
<rect width="800" height="157.555" fill="white" transform="translate(200 521)"/>
</clipPath>
</defs>
</svg>
