<svg width="1200" height="1200" viewBox="0 0 1200 1200" fill="none" xmlns="http://www.w3.org/2000/svg">
<rect width="1200" height="1200" fill="white"/>
<g clip-path="url(#clip0_7_726)">
<mask id="mask0_7_726" style="mask-type:luminance" maskUnits="userSpaceOnUse" x="200" y="505" width="800" height="189">
<path d="M200 505.999H1000V693.058H200V505.999Z" fill="white"/>
</mask>
<g mask="url(#mask0_7_726)">
<path fill-rule="evenodd" clip-rule="evenodd" d="M277.853 569.678C277.853 569.791 278.423 581.053 270.194 591.914C260.478 604.772 243.269 612.264 220.007 613.919V569.737H200V684.344H220.007V633.926C225.835 633.582 231.211 632.954 236.184 632.041C239.611 659.535 259.962 686.111 297.398 686.111V666.109C277.107 666.109 256.987 652.219 255.789 626.498C298.145 609.461 297.398 570.252 297.398 569.737L277.853 569.678Z" fill="black"/>
<path fill-rule="evenodd" clip-rule="evenodd" d="M330.039 569.678V647.128C330.039 666.85 344.272 688.001 367.937 688.001C382.858 688.001 396.629 679.252 406.061 668.451H407.892V684.344H427.384V569.678H407.892V646.902C395.947 661.818 384.001 669.364 372.282 669.364C358.505 669.364 350.218 658.391 350.218 642.042L349.987 569.678H330.039Z" fill="black"/>
<path fill-rule="evenodd" clip-rule="evenodd" d="M524.153 583.97C547.591 583.97 565.482 603.462 565.482 627.127C565.482 650.791 547.591 670.283 524.153 670.283C500.949 670.283 482.828 650.33 482.828 627.127C482.828 603.918 500.949 583.97 524.153 583.97ZM463.277 506.004V684.57H482.828V671.196C493.629 681.771 508.093 688.228 524.153 688.228C557.249 688.228 583.889 661.136 583.889 627.127C583.889 593.112 557.249 566.021 524.153 566.021C508.093 566.021 493.629 572.482 482.828 582.998V506.004L463.277 506.004Z" fill="black"/>
<path fill-rule="evenodd" clip-rule="evenodd" d="M677.688 583.97C701.122 583.97 719.072 603.462 719.072 627.127C719.072 650.791 701.122 670.283 677.688 670.283C654.48 670.283 636.358 650.33 636.358 627.127C636.358 603.918 654.48 583.97 677.688 583.97ZM616.812 506.004V684.57H636.358V671.196C647.164 681.771 661.623 688.228 677.688 688.228C710.779 688.228 737.419 661.136 737.419 627.127C737.419 593.112 710.779 566.021 677.688 566.021C661.623 566.021 647.164 572.482 636.358 582.998V506.004L616.812 506.004Z" fill="black"/>
<path fill-rule="evenodd" clip-rule="evenodd" d="M822.701 566.021C788.917 566.021 763.883 591.055 763.883 627.127C763.883 663.193 785.947 688.228 822.244 688.228C831.219 688.228 842.192 686.401 850.711 683.141V662.737H848.879C842.423 667.082 833.964 669.821 824.758 669.821C795.835 669.821 783.433 651.248 783.433 627.127C783.433 605.288 796.522 584.427 822.932 584.427C833.276 584.427 842.192 587.854 848.879 593.8H850.711V571.107C843.106 567.852 832.589 566.021 822.701 566.021Z" fill="black"/>
<path fill-rule="evenodd" clip-rule="evenodd" d="M936.617 584.427C960.738 584.427 979.773 603.462 979.773 626.896C979.773 650.561 960.738 669.821 936.617 669.821C913.183 669.821 894.32 650.561 894.32 626.896C894.32 603.462 913.183 584.427 936.617 584.427ZM936.848 566.021C903.295 566.021 875.973 593.343 875.973 626.896C875.973 660.905 903.295 688.228 936.848 688.228C970.798 688.228 998.18 660.905 998.18 626.896C998.18 593.343 970.798 566.021 936.848 566.021Z" fill="black"/>
</g>
</g>
<defs>
<clipPath id="clip0_7_726">
<rect width="800" height="187.059" fill="white" transform="translate(200 506)"/>
</clipPath>
</defs>
</svg>
