<svg width="1200" height="1200" viewBox="0 0 1200 1200" fill="none" xmlns="http://www.w3.org/2000/svg">
<rect width="1200" height="1200" fill="#1E1F9F"/>
<path d="M246.468 714.095V494.094H209.039V714.095H246.468Z" fill="#F2CECF"/>
<path d="M302.424 532.092C310.805 532.092 316.995 530.188 320.995 526.378C325.186 522.378 327.281 515.997 327.281 507.235C327.281 498.092 325.186 491.712 320.995 488.092C316.805 484.473 310.614 482.664 302.424 482.664C294.233 482.664 288.043 484.473 283.852 488.092C279.662 491.712 277.566 498.092 277.566 507.235C277.566 516.569 279.471 523.045 283.281 526.664C287.09 530.283 293.471 532.092 302.424 532.092ZM320.995 714.093V549.807H282.995V714.093H320.995Z" fill="#F2CECF"/>
<path d="M394.628 626.096C394.628 612.001 397.58 600.573 403.485 591.811C409.39 582.858 418.437 578.382 430.628 578.382C439.199 578.382 445.866 580.287 450.628 584.096C455.58 587.716 459.009 592.668 460.914 598.954C462.056 602.192 462.818 605.62 463.199 609.239C463.771 612.668 464.056 616.287 464.056 620.096V714.096H501.199V620.954C501.199 608.573 503.866 598.382 509.199 590.382C514.533 582.382 523.294 578.382 535.485 578.382C548.056 578.382 556.914 582.382 562.056 590.382C567.199 598.192 569.771 608.573 569.771 621.525V714.096H607.199V611.239C607.199 590.858 602.247 574.858 592.342 563.239C582.628 551.62 568.152 545.81 548.914 545.81C535.58 545.81 524.437 548.953 515.485 555.239C506.533 561.334 499.961 569.62 495.771 580.096C492.152 569.429 486.152 561.048 477.771 554.953C469.39 548.858 458.152 545.81 444.056 545.81C431.104 545.81 420.247 548.953 411.485 555.239C402.914 561.334 396.437 569.525 392.056 579.811L388.628 549.81H357.199V714.096H394.628V626.096Z" fill="#F2CECF"/>
<path d="M730.701 718.381C752.225 718.381 769.368 710.952 782.129 696.095C794.891 681.047 801.272 660 801.272 632.952V628.666C801.272 610.381 798.32 595.142 792.415 582.952C786.51 570.761 778.32 561.523 767.844 555.237C762.51 552.19 756.891 549.904 750.987 548.38C745.082 546.666 738.701 545.809 731.844 545.809C718.51 545.809 707.082 549.047 697.558 555.523C688.034 561.809 680.891 570.38 676.129 581.238V494.094H639.844V714.095H671.558L674.987 680.952C679.368 692.19 686.225 701.238 695.558 708.095C704.891 714.952 716.606 718.381 730.701 718.381ZM719.272 685.238C705.939 685.238 695.272 680.476 687.272 670.952C679.272 661.428 675.272 648.19 675.272 631.238V628.381C675.272 613.333 679.368 601.047 687.558 591.523C695.749 582 706.606 577.238 720.129 577.238C732.891 577.238 743.272 581.809 751.272 590.952C759.272 600.095 763.272 612.857 763.272 629.238V632.666C763.272 650 759.463 663.142 751.844 672.095C744.225 680.857 733.368 685.238 719.272 685.238Z" fill="#F2CECF"/>
<path d="M908.619 718.382C925.19 718.382 939.666 715.144 952.047 708.668C964.428 702.192 974.143 692.763 981.19 680.382C984.619 674.287 987.19 667.525 988.905 660.096C990.619 652.477 991.476 644.192 991.476 635.239V630.954C991.476 612.858 987.952 597.525 980.905 584.954C973.857 572.192 964.047 562.477 951.476 555.81C945.381 552.382 938.714 549.906 931.476 548.382C924.428 546.667 916.809 545.81 908.619 545.81C892.619 545.81 878.333 549.144 865.762 555.81C853.381 562.286 843.666 571.811 836.619 584.382C833 590.668 830.238 597.716 828.333 605.525C826.619 613.335 825.762 621.811 825.762 630.954V635.239C825.762 661.906 832.905 682.477 847.19 696.954C861.666 711.239 882.143 718.382 908.619 718.382ZM908.619 685.525C894.714 685.525 883.762 681.144 875.762 672.382C867.952 663.43 864.047 650.858 864.047 634.668V630.954C864.047 613.62 868.143 600.477 876.333 591.525C884.714 582.382 895.571 577.811 908.905 577.811C922.428 577.811 933.19 582.477 941.19 591.811C949.381 601.144 953.476 614.192 953.476 630.954V634.668C953.476 650.858 949.476 663.43 941.476 672.382C933.666 681.144 922.714 685.525 908.619 685.525Z" fill="#F2CECF"/>
</svg>
