<svg width="1200" height="1200" viewBox="0 0 1200 1200" fill="none" xmlns="http://www.w3.org/2000/svg">
<rect width="1200" height="1200" fill="#0C2836"/>
<g clip-path="url(#clip0_1_497)">
<path d="M599.857 400C552.332 400 400 400 400 400C400 400 400 552.332 400 599.857C400 710.233 489.48 799.713 599.857 799.713C710.233 799.713 799.713 710.233 799.713 599.857C799.713 489.48 710.233 400 599.857 400ZM599.857 765.695C508.269 765.695 434.018 691.444 434.018 599.857C434.018 560.422 434.018 434.018 434.018 434.018C434.018 434.018 560.422 434.018 599.857 434.018C691.444 434.018 765.695 508.269 765.695 599.857C765.695 691.444 691.444 765.695 599.857 765.695Z" fill="#BB327B"/>
<path d="M731.788 599.856C731.788 672.726 672.72 731.794 599.85 731.794C526.98 731.794 467.913 672.726 467.913 599.856C467.913 566.422 467.913 467.919 467.913 467.919C467.913 467.919 522.227 467.919 565.357 467.919C578.514 467.919 590.631 467.919 599.85 467.919C608.927 467.919 617.788 468.834 626.353 470.583C634.873 472.323 643.097 474.879 650.927 478.17C661.734 482.708 671.814 488.655 680.927 495.767C690.209 503.004 698.496 511.462 705.545 520.888C722.03 542.897 731.788 570.242 731.788 599.856Z" fill="#BB327B"/>
</g>
<defs>
<clipPath id="clip0_1_497">
<rect width="400" height="400" fill="white" transform="translate(400 400)"/>
</clipPath>
</defs>
</svg>
