<svg width="1200" height="1200" viewBox="0 0 1200 1200" fill="none" xmlns="http://www.w3.org/2000/svg">
<rect width="1200" height="1200" fill="#262739"/>
<g clip-path="url(#clip0_1_710)">
<path d="M200.029 656.966H204.189V686.182H221.525V690.019H200.029V656.966Z" fill="#F2EFE8"/>
<path d="M241.078 679.34V656.966H245.239V678.925C245.239 684.564 248.43 686.968 253.884 686.968C259.107 686.968 262.252 684.564 262.252 678.925V656.966H266.412V679.34C266.412 687.338 260.819 690.527 253.746 690.527C246.534 690.527 241.078 687.338 241.078 679.34Z" fill="#F2EFE8"/>
<path d="M287.717 673.469C287.717 663.576 293.911 656.226 303.896 656.226C313.882 656.226 320.076 663.576 320.076 673.469C320.076 683.363 313.882 690.713 303.896 690.713C293.911 690.713 287.717 683.361 287.717 673.469ZM315.824 673.469C315.824 665.702 311.663 659.832 303.896 659.832C296.13 659.832 291.969 665.702 291.969 673.469C291.969 681.236 296.13 687.06 303.896 687.06C311.663 687.06 315.824 681.236 315.824 673.469Z" fill="#F2EFE8"/>
<path d="M337.682 656.966H342.166L350.303 681.56C350.811 683.084 351.596 685.998 351.596 685.998H351.689C351.689 685.998 352.475 683.039 352.984 681.56L361.028 656.966H365.373L353.77 690.019H349.194L337.682 656.966Z" fill="#F2EFE8"/>
<path d="M392.137 656.966H396.807L409.01 690.019H404.481L400.966 679.941H387.792L384.232 690.019H379.979L392.137 656.966ZM388.994 676.566H399.811L396.02 665.472C395.373 663.622 394.541 660.803 394.541 660.803H394.449C394.449 660.803 393.571 663.576 392.924 665.472L388.994 676.566Z" fill="#F2EFE8"/>
<path d="M450.375 656.966H454.859L462.996 681.56C463.504 683.084 464.29 685.998 464.29 685.998H464.383C464.383 685.998 465.168 683.039 465.678 681.56L473.722 656.966H478.067L466.463 690.019H461.887L450.375 656.966Z" fill="#F2EFE8"/>
<path d="M498.635 656.966H502.795V690.019H498.635V656.966Z" fill="#F2EFE8"/>
<path d="M526 656.966H538.019C547.958 656.966 552.673 663.715 552.673 673.607C552.673 683.499 547.634 690.019 537.695 690.019H526V656.966ZM537.556 686.367C545.323 686.367 548.421 681.374 548.421 673.607C548.421 665.841 545.646 660.572 537.88 660.572H530.159V686.367H537.556Z" fill="#F2EFE8"/>
<path d="M574.535 656.966H597.881V660.617H578.695V671.065H596.124V674.578H578.695V686.182H598.435V690.019H574.535L574.535 656.966Z" fill="#F2EFE8"/>
<path d="M618.262 673.469C618.262 663.576 624.456 656.226 634.441 656.226C644.426 656.226 650.621 663.576 650.621 673.469C650.621 683.363 644.426 690.713 634.441 690.713C624.456 690.713 618.262 683.361 618.262 673.469ZM646.369 673.469C646.369 665.702 642.208 659.832 634.441 659.832C626.674 659.832 622.514 665.702 622.514 673.469C622.514 681.236 626.675 687.06 634.441 687.06C642.208 687.06 646.369 681.236 646.369 673.469Z" fill="#F2EFE8"/>
<path d="M668.324 656.966H694.489V660.617H683.486V690.019H679.326V660.617H668.324L668.324 656.966Z" fill="#F2EFE8"/>
<path d="M712.189 673.469C712.189 663.576 718.384 656.226 728.369 656.226C738.354 656.226 744.549 663.576 744.549 673.469C744.549 683.363 738.354 690.713 728.369 690.713C718.384 690.713 712.189 683.361 712.189 673.469ZM740.296 673.469C740.296 665.702 736.136 659.832 728.369 659.832C720.602 659.832 716.442 665.702 716.442 673.469C716.442 681.236 720.602 687.06 728.369 687.06C736.136 687.06 740.296 681.236 740.296 673.469Z" fill="#F2EFE8"/>
<path d="M766.504 656.966H770.665V690.019H766.504V656.966Z" fill="#F2EFE8"/>
<path d="M793.865 656.966H799.182L809.906 684.425H809.998L820.631 656.966H826.04V690.019H822.064V662.837H821.972C821.972 662.837 821.093 665.425 820.493 666.997L811.431 690.019H808.242L799.182 666.997C798.534 665.332 797.702 662.837 797.702 662.837H797.61V690.019H793.865L793.865 656.966Z" fill="#F2EFE8"/>
<path d="M849.242 656.966H853.403V690.019H849.242V656.966Z" fill="#F2EFE8"/>
<path d="M874.527 678.832H878.595C879.15 684.426 882.57 687.338 888.811 687.338C893.388 687.338 896.671 685.257 896.671 681.143C896.671 676.612 892.695 675.55 886.777 674.255C880.953 672.961 875.96 671.296 875.96 665.055C875.96 659.601 880.49 656.319 887.194 656.319C895.469 656.319 898.889 660.526 899.721 666.628H895.793C895.192 661.912 892.14 659.555 887.286 659.555C882.803 659.555 879.844 661.45 879.844 664.871C879.844 668.615 883.542 669.725 888.488 670.695C894.914 671.99 900.785 673.562 900.785 681.004C900.785 687.2 895.746 690.667 888.627 690.667C879.334 690.667 874.896 685.488 874.527 678.832Z" fill="#F2EFE8"/>
<path d="M918.762 656.966H944.926V660.617H933.924V690.019H929.763V660.617H918.762L918.762 656.966Z" fill="#F2EFE8"/>
<path d="M962.631 673.469C962.631 663.576 968.825 656.226 978.81 656.226C988.796 656.226 994.99 663.576 994.99 673.469C994.99 683.363 988.796 690.713 978.81 690.713C968.825 690.713 962.631 683.361 962.631 673.469ZM990.738 673.469C990.738 665.702 986.577 659.832 978.81 659.832C971.044 659.832 966.883 665.702 966.883 673.469C966.883 681.236 971.044 687.06 978.81 687.06C986.577 687.06 990.738 681.236 990.738 673.469Z" fill="#F2EFE8"/>
<path d="M347.794 509C330.553 509 316.761 515.21 306.874 525.325C298.371 514.518 284.584 509 269.642 509C256.999 509 246.65 513.597 239.988 520.265L238.61 519.578V511.304H199.994V626.23H238.609V549.227C243.202 544.864 251.247 540.267 259.984 540.267C270.1 540.267 277.911 546.242 277.911 560.263V626.229H316.532V555.203C316.532 552.218 316.298 549.462 315.84 546.7C321.358 541.874 329.633 540.267 338.136 540.267C348.251 540.267 356.068 546.008 356.068 559.801V626.229H394.683V559.801C394.683 526.011 374.224 509 347.794 509Z" fill="#F2EFE8"/>
<path d="M502.92 511.304V517.966L501.765 518.658C494.874 512.911 485.451 509 471.429 509C439.013 509 413.732 535.44 413.732 568.767C413.732 602.093 438.098 628.533 469.125 628.533C483.38 628.533 494.874 623.015 501.541 615.428L502.92 615.885V626.23H541.535V511.304H502.92ZM480.598 597.235C464.874 597.235 452.13 584.491 452.13 568.767C452.13 553.043 464.874 540.299 480.598 540.299C496.322 540.299 509.066 553.043 509.066 568.767C509.066 584.491 496.322 597.235 480.598 597.235Z" fill="#F2EFE8"/>
<path d="M719.2 509C701.959 509 688.167 515.21 678.28 525.325C669.777 514.518 655.99 509 641.048 509C628.405 509 618.061 513.597 611.394 520.265L610.016 519.578V511.304H571.4V626.23H610.016V549.227C614.613 544.864 622.659 540.267 631.391 540.267C641.506 540.267 649.317 546.242 649.317 560.263V626.229H687.938V555.203C687.938 552.218 687.709 549.462 687.252 546.7C692.77 541.874 701.039 540.267 709.542 540.267C719.657 540.267 727.474 546.008 727.474 559.801V626.229H766.089V559.801C766.089 526.011 745.63 509 719.2 509Z" fill="#F2EFE8"/>
<path d="M874.336 511.304V517.966L873.181 518.658C866.29 512.911 856.867 509 842.845 509C810.429 509 785.148 535.44 785.148 568.767C785.148 602.093 809.514 628.533 840.541 628.533C854.796 628.533 866.29 623.015 872.957 615.428L874.336 615.885V626.23H912.951V511.304H874.336ZM852.014 597.235C836.29 597.235 823.546 584.491 823.546 568.767C823.546 553.043 836.29 540.299 852.014 540.299C867.738 540.299 880.482 553.043 880.482 568.767C880.482 584.491 867.738 597.235 852.014 597.235Z" fill="#F2EFE8"/>
<path d="M968.365 600.163C985.833 600.163 999.993 586.003 999.993 568.535C999.993 551.067 985.833 536.906 968.365 536.906C950.897 536.906 936.736 551.067 936.736 568.535C936.736 586.003 950.897 600.163 968.365 600.163Z" fill="url(#paint0_linear_1_710)"/>
</g>
<defs>
<linearGradient id="paint0_linear_1_710" x1="946" y1="546.17" x2="990.73" y2="590.9" gradientUnits="userSpaceOnUse">
<stop stop-color="#FFCE38"/>
<stop offset="0.1922" stop-color="#FF5118"/>
<stop offset="0.3333" stop-color="#FF0033"/>
<stop offset="1" stop-color="#003366"/>
</linearGradient>
<clipPath id="clip0_1_710">
<rect width="800" height="181.713" fill="white" transform="translate(200 509)"/>
</clipPath>
</defs>
</svg>
