<svg width="1200" height="1200" viewBox="0 0 1200 1200" fill="none" xmlns="http://www.w3.org/2000/svg">
<rect width="1200" height="1200" fill="white"/>
<path d="M366.75 589.18V531.81H382.44L397.26 552.73L412 531.81H427.53V589.18H411.21V570.48C411.21 565.96 411.29 560.97 411.37 557.01L411.21 556.93C408.83 560.57 406.21 564.3 403.68 567.93L396.87 577.6L389.97 567.93C387.36 564.29 384.82 560.56 382.44 556.93L382.29 557.01C382.37 561.01 382.44 565.96 382.44 570.48V589.18H366.75Z" fill="black"/>
<path d="M456.999 531.81H473.089L496.309 589.18H478.559L474.509 577.45H454.859L450.659 589.18H433.789L456.999 531.81ZM464.769 549.24C463.659 552.89 462.549 556.24 461.199 559.94L459.199 565.41H470.299L468.389 559.94C467.049 556.06 466.019 552.81 464.909 549.24H464.769Z" fill="black"/>
<path d="M502.561 531.81H522.611C529.611 531.81 534.731 532.68 538.691 534.66C544.241 537.36 547.961 542.19 547.961 549.66C547.961 556.66 544.561 562.1 537.431 565.11L552.641 589.2H534.181L521.421 567.39H518.881V589.18H502.561V531.81ZM522.931 556.22C525.937 556.22 528.074 555.823 529.341 555.03C530.091 554.491 530.694 553.773 531.094 552.941C531.495 552.109 531.68 551.189 531.634 550.267C531.587 549.344 531.309 548.449 530.827 547.661C530.344 546.874 529.671 546.22 528.871 545.76C527.521 545.12 525.621 544.76 521.871 544.76H518.871V556.17L522.931 556.22Z" fill="black"/>
<path d="M561.91 531.81H578.23V556.69L578.39 556.77L594.95 531.77H614.12L595.19 558.39L615.71 589.14H595.9L578.39 561.01L578.23 561.09V589.14H561.91V531.81Z" fill="black"/>
<path d="M625.061 531.81H641.381V556.69L641.541 556.77L658.101 531.77H677.271L658.341 558.39L678.861 589.14H659.051L641.541 561.01L641.381 561.09V589.14H625.061V531.81Z" fill="black"/>
<path d="M688.199 531.81H704.529V589.18H688.199V531.81Z" fill="black"/>
<path d="M744.38 568.39C741.21 564.11 738.44 560.23 735.59 556.11L735.43 556.19C735.51 561.02 735.59 565.93 735.59 570.77V589.15H719.9V531.81H735.19L750.4 552.57C753.57 556.85 756.4 560.73 759.2 564.85L759.36 564.77C759.28 559.94 759.2 555.03 759.2 550.19V531.81H774.89V589.18H759.59L744.38 568.39Z" fill="black"/>
<path d="M814.19 530.94C831.46 530.94 844.849 543.94 844.849 560.5C844.849 577.06 831.46 590.05 814.19 590.05C796.92 590.05 783.52 577.05 783.52 560.5C783.52 543.95 796.91 530.94 814.19 530.94ZM814.19 575.39C822.27 575.39 828.53 568.82 828.53 560.5C828.53 552.18 822.27 545.6 814.19 545.6C806.11 545.6 799.84 552.17 799.84 560.5C799.84 568.83 806.1 575.39 814.19 575.39Z" fill="black"/>
<path d="M853.48 531.81H869.81V589.18H853.48V531.81Z" fill="black"/>
<path d="M909.66 568.39C906.49 564.11 903.72 560.23 900.87 556.11L900.71 556.19C900.79 561.02 900.87 565.93 900.87 570.77V589.15H885.18V531.81H900.47L915.68 552.57C918.85 556.85 921.68 560.73 924.48 564.85L924.64 564.77C924.56 559.94 924.48 555.03 924.48 550.19V531.81H940.17V589.18H924.88L909.66 568.39Z" fill="black"/>
<path d="M969.72 545.6H951.5V531.81H1004.27V545.6H986V589.18H969.72V545.6Z" fill="black"/>
<path d="M1015.6 531.81H1031.92V589.18H1015.6V531.81Z" fill="black"/>
<path d="M366.75 607.59H383.08V632.47L383.24 632.55L399.8 607.55H419L400 634.22L420.52 664.96H400.75L383.24 636.83L383.08 636.91V664.91H366.75V607.59Z" fill="black"/>
<path d="M452.25 606.72C469.52 606.72 482.92 619.72 482.92 636.28C482.92 652.84 469.52 665.83 452.25 665.83C434.98 665.83 421.58 652.83 421.58 636.28C421.58 619.73 435 606.72 452.25 606.72ZM452.25 651.17C460.33 651.17 466.59 644.6 466.59 636.28C466.59 627.96 460.33 621.39 452.25 621.39C444.17 621.39 437.91 627.97 437.91 636.29C437.91 644.61 444.17 651.17 452.25 651.17Z" fill="black"/>
<path d="M491.551 607.59H507.871V651.17H531.801V664.96H491.551V607.59Z" fill="black"/>
<path d="M543.76 607.59H560.08V651.17H584V664.96H543.76V607.59Z" fill="black"/>
<path d="M596 607.59H633.4V621.39H612.3V628.68H630.13V641.68H612.3V651.18H634.3V664.97H596V607.59Z" fill="black"/>
<path d="M648 607.59H664.33V632.47L664.48 632.55L681.05 607.55H700.22L681.28 634.18L701.81 664.92H682L664.48 636.79L664.33 636.87V664.87H648V607.59Z" fill="black"/>
<path d="M725.291 621.39H707.061V607.59H759.831V621.39H741.611V664.97H725.291V621.39Z" fill="black"/>
<path d="M771.16 607.59H787.48V664.96H771.16V607.59Z" fill="black"/>
<path d="M802.85 607.59H819.18V664.96H802.85V607.59Z" fill="black"/>
<path d="M829.471 607.59H847.001L854.921 630.02C856.581 634.77 858.171 639.37 859.681 643.96H859.831C861.421 639.29 863.161 634.38 864.831 629.86L873.001 607.59H889.801L867.851 664.96H851.421L829.471 607.59Z" fill="black"/>
<path d="M900.07 607.59H916.39V664.96H900.07V607.59Z" fill="black"/>
<path d="M248.87 519C227.422 519 206.852 527.52 191.686 542.686C176.52 557.852 168 578.422 168 599.87C168 644.49 205.36 680.75 250 680.75C315.55 680.75 343.09 638.9 343.09 638.9H343.18C339.963 639.869 336.629 640.397 333.27 640.47C326.14 640.47 318.37 637.38 322.02 622.56C334.53 571.63 303.35 520.39 251 519.03C250.31 519.03 249.61 519.03 248.91 519.03L248.87 519Z" fill="black"/>
<path d="M233.52 619.66V602.59L228.52 620.25C228.393 620.71 228.119 621.115 227.739 621.404C227.36 621.693 226.896 621.85 226.42 621.85H216.81C216.336 621.85 215.874 621.698 215.494 621.415C215.114 621.132 214.835 620.734 214.7 620.28L209.49 602.59V619.66C209.49 620.241 209.259 620.798 208.848 621.209C208.437 621.619 207.88 621.85 207.3 621.85H196.47C195.888 621.85 195.33 621.62 194.917 621.209C194.505 620.799 194.272 620.242 194.27 619.66V582.92C194.272 582.338 194.505 581.781 194.917 581.371C195.33 580.96 195.888 580.73 196.47 580.73H214.18C214.654 580.729 215.115 580.883 215.494 581.168C215.873 581.453 216.149 581.854 216.28 582.31L221.6 600.46L227.41 582.26C227.55 581.816 227.828 581.428 228.204 581.153C228.58 580.878 229.034 580.73 229.5 580.73H246.58C247.16 580.73 247.717 580.961 248.128 581.371C248.539 581.782 248.77 582.339 248.77 582.92V619.66C248.77 620.241 248.539 620.798 248.128 621.209C247.717 621.619 247.16 621.85 246.58 621.85H235.71C235.129 621.85 234.572 621.619 234.161 621.209C233.75 620.798 233.52 620.241 233.52 619.66Z" fill="white"/>
<path d="M282.54 621.85L272.6 608.58L271 610.24V619.66C271 620.241 270.769 620.798 270.359 621.209C269.948 621.619 269.391 621.85 268.81 621.85H256.93C256.349 621.85 255.792 621.619 255.382 621.209C254.971 620.798 254.74 620.241 254.74 619.66V582.92C254.74 582.339 254.971 581.782 255.382 581.371C255.792 580.961 256.349 580.73 256.93 580.73H268.84C269.421 580.73 269.978 580.961 270.389 581.371C270.799 581.782 271.03 582.339 271.03 582.92V593.07L282.31 581.39C282.513 581.178 282.757 581.009 283.027 580.894C283.296 580.779 283.587 580.72 283.88 580.72H297C297.43 580.719 297.851 580.845 298.21 581.082C298.569 581.319 298.85 581.656 299.019 582.052C299.187 582.448 299.235 582.884 299.157 583.307C299.079 583.73 298.879 584.12 298.58 584.43L284.49 599.09L299.61 618.29C299.862 618.614 300.018 619.002 300.061 619.41C300.104 619.818 300.032 620.23 299.853 620.599C299.674 620.969 299.395 621.28 299.049 621.5C298.702 621.719 298.301 621.837 297.89 621.84L282.54 621.85Z" fill="white"/>
</svg>
