<svg width="1200" height="1200" viewBox="0 0 1200 1200" fill="none" xmlns="http://www.w3.org/2000/svg">
<rect width="1200" height="1200" fill="white"/>
<g clip-path="url(#clip0_6_87)">
<path d="M935.648 642.187C914.247 642.187 903.383 628.971 903.383 609.569V609.337C903.383 591.363 912.858 576.597 934.096 576.597C958.013 576.597 963.981 593.022 963.981 607.556C963.981 611.608 960.884 614.464 957.197 614.464H917.223C917.223 625.042 924.01 630.412 935.879 630.412C944.663 630.412 947.776 628.06 950.752 624.933C951.69 623.954 952.778 623.628 954.452 623.628C957.661 623.628 960.164 626.129 960.164 629.461C960.164 631.242 959.277 632.751 958.26 633.866C953.84 638.652 946.061 642.187 935.648 642.187ZM950.493 604.919C950.493 595.999 946.756 588.372 933.975 588.372C922.893 588.372 917.101 595.156 917.101 604.919H950.493Z" fill="black"/>
<path d="M583.55 635.212C581.998 634.383 580.801 632.588 580.801 630.209C580.801 627 583.303 624.376 586.634 624.376C587.831 624.376 588.906 624.73 589.735 625.205C595.812 629.257 601.55 630.712 607.274 630.712C613.476 630.712 617.038 627.802 617.038 623.642V623.41C617.038 618.529 610.375 616.857 602.993 615.212C593.706 613.376 583.345 608.74 583.345 596.72V596.475C583.345 584.565 593.23 577.019 605.726 577.019C612.388 577.019 619.418 578.365 625.495 581.574C627.521 582.648 628.948 584.551 628.948 587.053C628.948 590.384 626.324 592.886 622.993 592.886C621.796 592.886 621.089 592.655 620.138 592.165C615.025 589.541 609.777 588.44 605.37 588.44C599.77 588.44 596.561 591.921 596.561 595.497V595.741C596.561 600.391 603.345 601.724 610.727 603.491C619.892 605.585 630.254 610.562 630.254 621.874V622.119C630.254 635.335 620.014 642.147 606.922 642.147C598.942 642.16 590.81 640.216 583.55 635.212Z" fill="black"/>
<path d="M777.399 634.206C777.399 638.135 774.189 641.344 770.138 641.344C766.208 641.344 762.877 638.258 762.877 634.206V630.997C759.927 634.954 754.612 642.065 744.672 642.065C730.503 642.065 720.852 634.845 720.852 619.752V584.442C720.852 580.39 724.058 577.181 727.988 577.181C732.042 577.181 735.248 580.39 735.248 584.442V616.421C735.248 626.184 738.324 629.406 748.506 629.406C756.842 629.406 762.864 623.138 762.864 613.376V584.442C762.864 580.39 766.087 577.181 770.125 577.181C774.055 577.181 777.386 580.39 777.386 584.442V634.206H777.399Z" fill="black"/>
<path d="M790.082 622.662V622.431C790.082 608.862 798.623 602.186 816.04 602.186C823.068 602.186 828.06 603.26 832.94 604.81V603.26C832.94 594.327 827.461 589.568 817.346 589.568C811.864 589.568 807.336 590.52 803.423 592.07C802.591 592.315 801.871 592.423 801.151 592.423C797.82 592.423 795.074 589.799 795.074 586.468C795.074 583.844 796.853 581.587 799.004 580.758C804.959 578.487 811.036 577.059 819.247 577.059C828.658 577.059 835.672 579.561 840.079 584.089C844.728 588.616 846.863 595.279 846.863 603.491V634.451C846.863 638.38 843.762 641.358 839.832 641.358C835.66 641.358 832.805 638.503 832.805 635.28V632.901C828.52 638.027 822.824 642.065 811.919 642.065C798.104 642.065 790.082 634.872 790.082 622.662ZM833.186 618.135V613.852C829.487 612.424 824.62 611.35 818.895 611.35C807.391 611.35 801.884 614.369 801.884 622.39V622.635C801.884 629.964 807.717 632.724 817.522 632.166C825.775 631.677 833.186 624.96 833.186 618.135Z" fill="black"/>
<path d="M864.145 584.442C864.145 580.391 867.245 577.182 871.284 577.182C875.335 577.182 878.545 580.391 878.545 584.442V590.874C881.876 583.015 888.061 577.059 894.385 577.059C898.913 577.059 901.524 580.037 901.524 584.198C901.524 588.005 899.021 590.506 895.812 591.105C885.575 592.886 878.545 600.745 878.545 615.633V634.206C878.545 638.135 875.335 641.344 871.284 641.344C867.354 641.344 864.145 638.244 864.145 634.206V584.442Z" fill="black"/>
<path d="M708.452 633.947L701.652 627.176C704.996 622.036 706.916 618.161 706.916 609.432V609.187C706.916 591.212 698.104 576.569 673.454 576.569C650.148 576.569 639.883 591.457 639.883 609.432V609.663C639.883 627.515 649.496 642.173 673.224 642.173C681.243 642.173 686.152 640.323 691.291 637.183L698.267 644.13C701.137 647 705.595 646.904 708.369 644.13C711.224 641.275 711.307 636.816 708.452 633.947ZM673.454 629.555C659.083 629.555 653.726 620.391 653.726 609.432V609.187C653.726 598.242 659.083 589.186 673.224 589.186C687.524 589.186 692.516 598.351 692.516 609.432V609.663C692.504 614.979 691.32 629.555 673.454 629.555Z" fill="black"/>
<path d="M306.082 621.766V621.535C306.082 608.917 314.349 601.765 332.636 601.765C341.094 601.765 346.927 602.839 352.759 604.389V601.765C352.759 589.501 345.254 583.192 332.759 583.192C326.096 583.192 320.495 584.864 315.491 587.244C315.015 587.475 314.539 587.597 314.186 587.597C312.758 587.597 311.453 586.292 311.453 584.864C311.453 583.437 312.527 582.485 313.125 582.24C319.311 579.507 325.389 577.712 333.126 577.712C341.338 577.712 347.892 579.97 352.297 584.375C356.349 588.427 358.484 594.015 358.484 601.52V636.885C358.484 638.666 357.287 639.863 355.628 639.863C353.956 639.863 352.773 638.666 352.773 636.885V629.271C348.612 635.104 341.107 640.815 329.55 640.815C314.689 640.815 306.082 634.383 306.082 621.766ZM352.882 616.653V609.746C347.756 608.441 340.985 607.013 332.283 607.013C317.299 607.013 312.282 612.724 312.282 621.181V621.412C312.282 630.223 317.653 635.349 329.903 635.349C342.276 635.349 352.882 627.721 352.882 616.653Z" fill="black"/>
<path d="M377.18 581.166C377.18 579.494 378.376 578.188 380.035 578.188C381.694 578.188 383.013 579.385 383.013 581.166V595.932C388.247 584.144 398.853 577.712 407.418 577.712C409.2 577.712 410.519 579.14 410.519 580.921C410.519 582.594 409.322 584.021 407.418 584.144C394.556 585.34 383.013 594.98 383.013 614.505V636.885C383.013 638.557 381.816 639.863 380.157 639.863C378.485 639.863 377.18 638.666 377.18 636.885V581.166Z" fill="black"/>
<path d="M504.783 640.812C485.081 640.812 475.02 628.072 475.02 609.146V608.901C475.02 591.28 484.388 577.234 503.831 577.234C524.102 577.234 531.69 591.28 531.69 608.67C531.69 610.098 530.262 611.403 528.835 611.403H481.206C482.28 626.522 489.609 635.333 505.014 635.333C516.421 635.333 519.78 631.757 524.662 626.998C525.136 626.522 525.734 626.169 526.563 626.169C528.115 626.169 529.421 627.365 529.421 628.902C529.421 629.5 529.107 630.139 528.467 630.928C525.014 635.129 518.638 640.812 504.783 640.812ZM525.939 606.168C525.11 593.904 520.474 582.591 504.157 582.591C489.717 582.591 482.851 592.707 481.777 606.168H525.939Z" fill="black"/>
<path d="M544.091 623.79V584.02H537.538C536.11 584.02 534.805 582.714 534.805 581.287C534.805 579.859 536.11 578.663 537.538 578.663H544.091V561.762C544.091 560.09 545.288 558.784 546.949 558.784C548.606 558.784 549.925 560.09 549.925 561.762V578.663H568.974C570.401 578.663 571.707 579.968 571.707 581.396C571.707 582.823 570.401 584.02 568.974 584.02H549.925V623.192C549.925 631.88 555.051 634.98 562.065 634.98C566.229 634.98 568.129 633.784 568.974 633.784C570.28 633.784 571.598 634.98 571.598 636.408C571.598 637.604 570.878 638.434 569.694 638.909C567.313 639.739 564.568 640.459 561.115 640.459C551.707 640.459 544.091 635.347 544.091 623.79Z" fill="black"/>
<path d="M468.21 634.98L444.389 605.571L451.038 598.99C454.627 595.373 461.004 589.704 465.885 588.956C467.775 588.67 468.754 587.025 468.55 585.38C468.319 583.612 466.851 582.416 465.069 582.579C460.134 583.041 452.914 589.105 448.563 593.891L425.571 617.604V554.978C425.571 553.305 424.266 552 422.594 552C420.921 552 419.738 553.305 419.738 554.978V636.898C419.738 638.679 421.044 639.875 422.716 639.875C424.375 639.875 425.571 638.692 425.571 636.898V624.633L440.337 609.745L463.669 638.556C464.498 639.508 465.097 639.861 466.171 639.861C467.829 639.861 469.026 638.788 469.026 637.129C469.04 636.299 468.795 635.701 468.21 634.98Z" fill="black"/>
<path d="M268.459 577.234C257.024 577.234 249.913 583.543 245.997 590.328C245.97 590.274 245.93 590.206 245.902 590.151C245.875 590.206 245.834 590.274 245.807 590.328C241.878 583.543 234.767 577.234 223.345 577.234C205.738 577.234 200 587.364 200 602.606V636.897C200 638.678 201.183 639.874 202.855 639.874C204.528 639.874 205.833 638.678 205.833 636.897V603.313C205.833 590.219 209.994 582.591 223.808 582.591C234.046 582.591 242.979 590.45 242.979 604.02V636.883C242.979 638.664 244.176 639.861 245.834 639.861C245.848 639.861 245.875 639.861 245.889 639.861C245.916 639.861 245.93 639.861 245.943 639.861C247.615 639.861 248.798 638.664 248.798 636.883V604.034C248.798 590.464 257.732 582.605 267.97 582.605C282.804 582.605 285.944 590.219 285.944 603.326V636.897C285.944 638.678 287.25 639.874 288.922 639.874C290.595 639.874 291.777 638.678 291.777 636.897V602.606C291.791 587.364 286.978 577.234 268.459 577.234Z" fill="black"/>
<path d="M999.88 622.104C1000.9 616.353 995.147 615.333 995.147 615.333L981.579 612.94C975.826 611.934 974.808 617.685 974.808 617.685L972.414 631.255C971.394 637.006 977.147 638.026 977.147 638.026L996.482 641.425L999.88 622.104Z" fill="black"/>
</g>
<defs>
<clipPath id="clip0_6_87">
<rect width="800" height="96" fill="white" transform="translate(200 552)"/>
</clipPath>
</defs>
</svg>
