<svg width="1200" height="1200" viewBox="0 0 1200 1200" fill="none" xmlns="http://www.w3.org/2000/svg">
<rect width="1200" height="1200" fill="#E0EBFA"/>
<g clip-path="url(#clip0_1_31)">
<path opacity="0.6" d="M794.44 550.518L696.596 543.999L739.861 455.611C741.412 452.451 741.708 448.82 740.688 445.451C739.668 442.082 737.408 439.225 734.365 437.456L672.964 401.866C669.925 400.106 666.33 399.572 662.911 400.371C659.492 401.171 656.506 403.243 654.562 406.167L600.002 488.017L545.423 406.13C543.477 403.213 540.492 401.149 537.077 400.356C533.661 399.564 530.073 400.104 527.041 401.866L465.658 437.437C462.619 439.209 460.362 442.066 459.343 445.434C458.323 448.802 458.616 452.431 460.162 455.592L503.428 543.999L503.807 544.567L600.457 542.141L626.193 541.289C631.442 541.118 633.887 544.017 636.369 548.679L695.876 656.018H696.672L794.497 649.461C798.004 649.221 801.289 647.656 803.686 645.083C806.082 642.511 807.411 639.124 807.403 635.608V564.371C807.411 560.855 806.082 557.468 803.686 554.896C801.289 552.323 798.004 550.758 794.497 550.518" fill="#7342F7"/>
<path d="M740.24 744.368L696.975 655.98L639.023 547.41C637.813 545.133 635.989 543.241 633.758 541.948C631.527 540.655 628.978 540.013 626.401 540.095L600.381 540.929L503.731 543.98L405.906 550.536C402.401 550.776 399.119 552.339 396.723 554.907C394.327 557.476 392.997 560.859 393 564.371V635.57C393.012 639.086 394.359 642.468 396.769 645.029C399.179 647.59 402.472 649.141 405.981 649.366L503.807 655.924L460.504 744.292C458.953 747.452 458.657 751.083 459.677 754.452C460.697 757.821 462.956 760.678 465.999 762.447L527.382 798.037C530.421 799.796 534.016 800.331 537.435 799.531C540.854 798.732 543.84 796.659 545.783 793.735L600.362 711.905L654.923 793.735C656.863 796.663 659.849 798.739 663.27 799.538C666.69 800.338 670.286 799.801 673.324 798.037L734.707 762.447C737.75 760.678 740.009 757.821 741.029 754.452C742.049 751.083 741.753 747.452 740.202 744.292" fill="#7342F7"/>
</g>
<defs>
<clipPath id="clip0_1_31">
<rect width="414.213" height="400" fill="white" transform="translate(393 400)"/>
</clipPath>
</defs>
</svg>
