<svg width="1200" height="1200" viewBox="0 0 1200 1200" fill="none" xmlns="http://www.w3.org/2000/svg">
<rect width="1200" height="1200" fill="#1C1C1C"/>
<g clip-path="url(#clip0_1_118)">
<path d="M801.045 504.452V521.508L686.208 526.242V800.002H669.164V697.43H494.891V800.002H477.843V697.43H399V680.39H669.164V526.932L399 538.078V521.022L707.66 508.301V403.569H724.691V507.599L801.045 504.452ZM434.916 448.235L411.624 401.402L411.554 401.255H399.849V481.951H415.411V434.971L438.707 481.804L438.781 481.951H450.486V401.255H434.916V448.235ZM466.228 481.951H511.857V467.638H481.798V448.758H505.596V434.449H481.798V415.568H511.861V401.255H466.232L466.228 481.951ZM530.113 481.951H545.675V401.255H530.117L530.113 481.951ZM586.742 400.002C583.321 399.747 579.885 400.171 576.629 401.248C573.372 402.325 570.361 404.035 567.768 406.279C565.564 408.665 563.867 411.472 562.779 414.532C561.691 417.592 561.235 420.841 561.437 424.082V459.153C561.238 462.392 561.698 465.639 562.788 468.696C563.878 471.753 565.576 474.557 567.78 476.939C570.373 479.18 573.382 480.887 576.636 481.962C579.89 483.037 583.324 483.459 586.742 483.204C590.162 483.459 593.599 483.036 596.855 481.959C600.111 480.881 603.122 479.172 605.716 476.927C607.918 474.543 609.614 471.738 610.702 468.68C611.79 465.622 612.247 462.376 612.046 459.137V440.085H586.48V454.398H596.496V460.406C596.496 466.12 593.309 468.907 586.746 468.907C580.183 468.907 576.991 466.128 576.991 460.406V422.817C576.991 417.103 580.183 414.315 586.746 414.315C593.309 414.315 596.496 417.095 596.496 422.817V426.466H612.046V424.082C612.246 420.842 611.787 417.596 610.697 414.538C609.608 411.481 607.911 408.675 605.708 406.291C603.116 404.047 600.106 402.335 596.852 401.256C593.597 400.177 590.161 399.751 586.742 400.002ZM660.381 401.255V433.824H640.877V401.255H625.31V481.951H640.877V448.133H660.381V481.951H675.948V401.255H660.381ZM508.555 571.855C510.761 574.237 512.462 577.041 513.554 580.098C514.646 583.155 515.108 586.401 514.91 589.642V624.713C515.11 627.952 514.651 631.199 513.562 634.257C512.472 637.314 510.775 640.12 508.572 642.503C505.978 644.747 502.967 646.457 499.711 647.534C496.455 648.611 493.018 649.035 489.598 648.78C486.177 649.036 482.74 648.612 479.484 647.535C476.228 646.458 473.217 644.748 470.623 642.503C468.419 640.12 466.721 637.315 465.63 634.257C464.54 631.2 464.081 627.953 464.281 624.713V589.642C464.081 586.402 464.54 583.156 465.63 580.099C466.72 577.042 468.419 574.237 470.623 571.855C473.217 569.611 476.228 567.901 479.484 566.824C482.74 565.747 486.177 565.323 489.598 565.578C493.018 565.324 496.454 565.748 499.711 566.825C502.967 567.902 505.978 569.611 508.572 571.855M499.348 588.389C499.348 582.675 496.156 579.891 489.594 579.891C483.031 579.891 479.835 582.671 479.835 588.389V625.97C479.835 631.684 483.027 634.471 489.594 634.471C496.16 634.471 499.348 631.688 499.348 625.97V588.389ZM451.013 623.464C451.212 626.703 450.754 629.949 449.664 633.006C448.575 636.063 446.877 638.867 444.674 641.25C442.081 643.495 439.07 645.204 435.813 646.282C432.557 647.359 429.12 647.782 425.7 647.527H400.375V566.831H423.819C427.239 566.576 430.676 567 433.932 568.077C437.188 569.154 440.199 570.864 442.793 573.108C444.997 575.49 446.696 578.295 447.786 581.352C448.876 584.409 449.335 587.655 449.135 590.895C449.314 593.735 448.898 596.581 447.914 599.252C446.93 601.922 445.4 604.358 443.421 606.404C446.004 608.395 448.052 610.997 449.381 613.975C450.709 616.954 451.277 620.216 451.033 623.468M415.962 600.653H423.839C430.402 600.653 433.589 597.874 433.589 592.152V589.646C433.589 583.932 430.402 581.144 423.839 581.144H415.942L415.962 600.653ZM435.446 622.211C435.446 616.497 432.259 613.709 425.696 613.709H415.942V633.218H425.696C432.259 633.218 435.446 630.439 435.446 624.713V622.211ZM628.702 612.199L640.15 640.997V647.527H625.923L613.523 614.962H605.083V647.527H589.517V566.831H614.821C618.241 566.577 621.678 567 624.934 568.078C628.19 569.155 631.202 570.864 633.795 573.108C635.999 575.491 637.696 578.296 638.785 581.353C639.875 584.409 640.333 587.655 640.134 590.895C640.134 601.375 636.281 608.538 628.686 612.199M624.576 589.646C624.576 583.932 621.384 581.144 614.821 581.144H605.067V600.653H614.821C621.384 600.653 624.576 597.874 624.576 592.152V589.646ZM560.695 625.97C560.695 631.684 557.503 634.471 550.94 634.471C544.377 634.471 541.186 631.688 541.186 625.97V566.831H525.636V624.713C525.436 627.953 525.895 631.2 526.985 634.257C528.075 637.315 529.774 640.12 531.978 642.503C534.571 644.748 537.583 646.458 540.839 647.535C544.095 648.612 547.532 649.036 550.952 648.78C554.373 649.035 557.81 648.612 561.066 647.535C564.322 646.457 567.333 644.747 569.927 642.503C572.13 640.12 573.827 637.314 574.917 634.257C576.006 631.199 576.465 627.952 576.265 624.713V566.831H560.707L560.695 625.97ZM794.604 729.574C792.222 731.779 789.418 733.477 786.361 734.567C783.304 735.657 780.057 736.116 776.818 735.917H741.747C738.507 736.116 735.261 735.657 732.204 734.567C729.147 733.477 726.343 731.779 723.96 729.574C721.715 726.98 720.005 723.967 718.928 720.71C717.851 717.452 717.428 714.014 717.683 710.592C717.428 707.172 717.852 703.735 718.929 700.479C720.006 697.223 721.716 694.211 723.96 691.618C726.344 689.416 729.149 687.72 732.206 686.632C735.263 685.544 738.508 685.087 741.747 685.288H776.822C780.061 685.088 783.308 685.547 786.365 686.637C789.422 687.728 792.226 689.426 794.608 691.63C796.851 694.223 798.559 697.232 799.635 700.486C800.712 703.74 801.135 707.174 800.881 710.592C801.136 714.012 800.713 717.449 799.635 720.705C798.558 723.961 796.848 726.973 794.604 729.566M778.071 720.342C783.785 720.342 786.572 717.155 786.572 710.588C786.572 704.021 783.793 700.838 778.071 700.838H740.494C734.78 700.838 731.988 704.025 731.988 710.588C731.988 717.151 734.768 720.342 740.494 720.342H778.071ZM767.051 592.597V573.088H799.62V557.521H718.936V573.088H752.754V592.597H718.936V608.151H799.633V592.592L767.051 592.597ZM794.604 665.697C792.222 667.902 789.418 669.6 786.361 670.69C783.304 671.78 780.057 672.239 776.818 672.04H741.747C738.507 672.239 735.261 671.78 732.204 670.69C729.147 669.6 726.343 667.901 723.96 665.697C721.716 663.104 720.006 660.093 718.929 656.837C717.852 653.58 717.428 650.144 717.683 646.723C717.427 643.302 717.85 639.863 718.927 636.606C720.005 633.348 721.715 630.335 723.96 627.741C726.343 625.537 729.147 623.838 732.204 622.748C735.261 621.658 738.507 621.199 741.747 621.399H776.822C780.061 621.199 783.306 621.659 786.363 622.749C789.419 623.839 792.223 625.537 794.604 627.741C796.849 630.334 798.559 633.346 799.636 636.602C800.713 639.858 801.136 643.295 800.881 646.715C801.137 650.137 800.715 653.575 799.637 656.833C798.56 660.09 796.85 663.103 794.604 665.697ZM778.071 656.474C783.785 656.474 786.572 653.282 786.572 646.723C786.572 640.165 783.793 636.969 778.071 636.969H740.494C734.78 636.969 731.988 640.156 731.988 646.723C731.988 653.29 734.768 656.474 740.494 656.474H778.071ZM775.565 799.798H742.996C739.756 799.995 736.51 799.533 733.454 798.441C730.398 797.349 727.595 795.649 725.213 793.443C722.969 790.85 721.26 787.839 720.182 784.582C719.105 781.326 718.682 777.889 718.936 774.469V749.165H799.633V774.469C799.887 777.89 799.463 781.327 798.385 784.583C797.307 787.839 795.597 790.85 793.351 793.443C790.969 795.646 788.164 797.344 785.107 798.433C782.05 799.523 778.804 799.981 775.565 799.782M776.818 784.22C782.532 784.22 785.319 781.028 785.319 774.465V764.711H733.262V774.465C733.262 781.028 736.041 784.22 741.763 784.22H776.818Z" fill="white"/>
</g>
<defs>
<clipPath id="clip0_1_118">
<rect width="402.045" height="400" fill="white" transform="translate(399 400)"/>
</clipPath>
</defs>
</svg>
