<svg width="1200" height="1200" viewBox="0 0 1200 1200" fill="none" xmlns="http://www.w3.org/2000/svg">
<rect width="1200" height="1200" fill="#193D45"/>
<g clip-path="url(#clip0_1_393)">
<path d="M973.549 663.665H999.274V638.377H973.549V663.665ZM200.728 724.544H340.819V699.258H200.728V724.544ZM824.57 477.568V663.66H943.488V638.308H852.796V582.374H930.158V557.285H852.796V502.923H943.488V477.568H824.57ZM750.088 663.66L664.106 532.716V663.66H635.873V477.568H661.752L747.74 608.25V477.568H775.961V663.66H750.088ZM559.042 477.572H587.266V663.665H559.042V477.572ZM500.759 644.06C486.647 658.958 469.138 665.228 449.532 665.228C430.195 665.228 413.466 658.172 400.658 645.364C382.369 627.069 382.627 606.421 382.627 570.617C382.627 534.813 382.369 514.159 400.658 495.867C413.466 483.056 429.674 476 449.532 476C488.996 476 511.998 501.881 517.229 533.758H488.743C484.036 513.376 470.444 501.357 449.532 501.357C438.561 501.357 428.627 505.796 422.094 512.853C412.948 522.787 410.855 533.24 410.855 570.617C410.855 607.988 412.948 618.703 422.094 628.641C428.627 635.693 438.561 639.875 449.532 639.875C461.82 639.875 472.535 635.173 479.853 626.807C486.647 618.965 489.262 609.56 489.262 597.54V587.078H449.532V563.037H517.491V591.527C517.491 615.573 513.046 630.99 500.759 644.06ZM312.591 477.568V608.255L226.602 477.568H200.727V663.66H228.955V532.716L314.943 663.66H340.819V477.568H312.591Z" fill="white"/>
</g>
<defs>
<clipPath id="clip0_1_393">
<rect width="800" height="248.544" fill="white" transform="translate(200 476)"/>
</clipPath>
</defs>
</svg>
