<svg width="1200" height="1200" viewBox="0 0 1200 1200" fill="none" xmlns="http://www.w3.org/2000/svg">
<rect width="1200" height="1200" fill="white"/>
<g clip-path="url(#clip0_2_1512)">
<path d="M664.817 443L738.598 442.994L738.288 744.181L664.508 744.188L664.817 443Z" fill="#262729"/>
<path d="M204.236 443.385L314.29 443C314.29 443 309.528 466.81 352.386 528.714C395.243 590.619 407.017 649.893 407.017 649.893L406.835 443H483.026L484.565 743.915H384.565L281.196 557.286L280.812 743.915H203.852L204.236 443.385Z" fill="#262729"/>
<path d="M539.25 443H614.623V498.358H539.25V443Z" fill="#262729"/>
<path d="M539.398 515.838H614.772V744.41H539.398V515.838Z" fill="#262729"/>
<path fill-rule="evenodd" clip-rule="evenodd" d="M890.477 519.19C957.144 519.19 1000 576.333 993.425 656.659L852.382 657.286C852.382 668.397 858.096 690.619 880.953 690.619C903.81 690.619 915.874 684.27 919.049 681.095L980.953 704.905C958.096 743 904.763 749.35 880.953 747.762C785.715 747.762 776.191 652.524 776.191 623.952C776.191 595.381 800.001 519.19 890.477 519.19ZM890.477 576.333C913.334 576.333 919.049 598.555 919.049 609.667H852.382C852.382 595.381 861.906 576.333 890.477 576.333Z" fill="#262729"/>
</g>
<defs>
<clipPath id="clip0_2_1512">
<rect width="800" height="314.286" fill="white" transform="translate(200 443)"/>
</clipPath>
</defs>
</svg>
