<svg width="1200" height="1200" viewBox="0 0 1200 1200" fill="none" xmlns="http://www.w3.org/2000/svg">
<rect width="1200" height="1200" fill="#EB0055"/>
<g clip-path="url(#clip0_1_194)">
<mask id="mask0_1_194" style="mask-type:luminance" maskUnits="userSpaceOnUse" x="208" y="490" width="784" height="221">
<path d="M208.844 490H991.158V710.29H208.844V490Z" fill="white"/>
</mask>
<g mask="url(#mask0_1_194)">
<path d="M548.318 707.735H518.468L471.875 589.297H505.361L533.265 668.904H533.501C533.501 668.904 549.045 623.569 554.135 610.088C556.69 603.348 560.384 596.215 574.159 596.215C587.935 596.215 592.003 596.215 592.003 596.215L548.318 707.735Z" fill="white"/>
</g>
<mask id="mask1_1_194" style="mask-type:luminance" maskUnits="userSpaceOnUse" x="208" y="490" width="784" height="221">
<path d="M208.844 490H991.158V710.29H208.844V490Z" fill="white"/>
</mask>
<g mask="url(#mask1_1_194)">
<path d="M439.47 648.526C439.47 629.111 426.363 615.768 408.637 615.768C390.185 615.768 377.805 629.838 377.805 648.526C377.805 666.979 390.676 681.285 408.637 681.285C425.891 681.285 439.47 667.686 439.47 648.526ZM345.793 648.526C345.793 613.095 371.025 587.372 408.657 587.372C445.542 587.372 471.757 612.132 471.757 648.526C471.757 684.94 445.542 709.681 408.657 709.681C371.025 709.681 345.793 683.957 345.793 648.526Z" fill="white"/>
</g>
<mask id="mask2_1_194" style="mask-type:luminance" maskUnits="userSpaceOnUse" x="208" y="490" width="784" height="221">
<path d="M208.844 490H991.158V710.29H208.844V490Z" fill="white"/>
</mask>
<g mask="url(#mask2_1_194)">
<path d="M650.877 648.526C650.877 612.112 676.6 587.372 713.25 587.372C732.174 587.372 751.589 594.898 763.498 609.931L742.137 628.384C735.829 621.093 726.593 615.768 714.468 615.768C695.524 615.768 682.908 629.111 682.908 648.29C682.908 667.706 696.016 681.304 714.704 681.304C727.34 681.304 736.792 675.488 742.373 669.179L763.97 688.359C753.771 700.248 735.574 709.72 711.776 709.72C676.6 709.681 650.877 684.92 650.877 648.526Z" fill="white"/>
</g>
<mask id="mask3_1_194" style="mask-type:luminance" maskUnits="userSpaceOnUse" x="208" y="490" width="784" height="221">
<path d="M208.844 490H991.158V710.29H208.844V490Z" fill="white"/>
</mask>
<g mask="url(#mask3_1_194)">
<path d="M803.665 635.89H855.859C852.715 623.51 844.206 615.257 830.371 615.257C817.5 615.276 807.301 622.311 803.665 635.89ZM886.672 658.725H803.429C807.32 672.795 818.482 681.54 833.771 681.54C846.387 681.776 855.623 676.195 862.167 668.197L882.801 687.376C872.602 700.248 855.368 709.7 831.59 709.7C796.886 709.7 770.671 685.431 770.671 648.29C770.671 612.368 795.667 587.372 829.408 587.372C864.112 587.372 887.419 612.604 887.419 647.327C887.399 651.199 887.399 656.76 886.672 658.725Z" fill="white"/>
</g>
<mask id="mask4_1_194" style="mask-type:luminance" maskUnits="userSpaceOnUse" x="208" y="490" width="784" height="221">
<path d="M208.844 490H991.158V710.29H208.844V490Z" fill="white"/>
</mask>
<g mask="url(#mask4_1_194)">
<path d="M905.871 565.362H937.667V707.755H905.871V565.362Z" fill="white"/>
</g>
<mask id="mask5_1_194" style="mask-type:luminance" maskUnits="userSpaceOnUse" x="208" y="490" width="784" height="221">
<path d="M208.844 490H991.158V710.29H208.844V490Z" fill="white"/>
</mask>
<g mask="url(#mask5_1_194)">
<path d="M959.361 565.362H991.157V707.755H959.361V565.362Z" fill="white"/>
</g>
<mask id="mask6_1_194" style="mask-type:luminance" maskUnits="userSpaceOnUse" x="208" y="490" width="784" height="221">
<path d="M208.844 490H991.158V710.29H208.844V490Z" fill="white"/>
</mask>
<g mask="url(#mask6_1_194)">
<path d="M329.404 565.362V707.794H294.719L242.742 629.209V707.794H208.844V565.362H242.742L295.329 649.725V565.362H329.404Z" fill="white"/>
</g>
<mask id="mask7_1_194" style="mask-type:luminance" maskUnits="userSpaceOnUse" x="208" y="490" width="784" height="221">
<path d="M208.844 490H991.158V710.29H208.844V490Z" fill="white"/>
</mask>
<g mask="url(#mask7_1_194)">
<path d="M598.192 631.115V707.735H629.988V631.862C629.379 632.196 622.973 635.871 614.64 635.871C607.468 635.871 600.511 632.707 598.192 631.115Z" fill="white"/>
</g>
<mask id="mask8_1_194" style="mask-type:luminance" maskUnits="userSpaceOnUse" x="208" y="490" width="784" height="221">
<path d="M208.844 490H991.158V710.29H208.844V490Z" fill="white"/>
</mask>
<g mask="url(#mask8_1_194)">
<path d="M621.224 556.834C636.139 580.769 614.228 590.811 609.335 592.972C604.639 595.036 602.104 599.87 602.104 604.331C602.104 611.228 607.704 616.829 614.602 616.829C626.235 616.829 636.69 599.496 636.69 586.232C636.67 568.546 621.224 556.834 621.224 556.834Z" fill="white"/>
</g>
<mask id="mask9_1_194" style="mask-type:luminance" maskUnits="userSpaceOnUse" x="208" y="490" width="784" height="221">
<path d="M208.844 490H991.158V710.29H208.844V490Z" fill="white"/>
</mask>
<g mask="url(#mask9_1_194)">
<path d="M664.201 555.694C664.201 524.606 637.2 490.786 614.896 490.786C601.848 490.786 591.236 501.339 591.236 514.387C591.236 525.549 598.959 534.883 609.355 537.359C618.669 539.639 658.365 546.419 649.875 601.913C649.875 601.913 664.201 583.284 664.201 555.694Z" fill="white"/>
</g>
<mask id="mask10_1_194" style="mask-type:luminance" maskUnits="userSpaceOnUse" x="208" y="490" width="784" height="221">
<path d="M208.844 490H991.158V710.29H208.844V490Z" fill="white"/>
</mask>
<g mask="url(#mask10_1_194)">
<path d="M532.95 609.381C528.549 558.995 565.827 544.453 587.423 544.453C603.42 544.453 610.651 554.377 610.651 564.399C610.651 578.194 596.384 587.686 584.083 582.498C568.971 576.092 541.204 572.889 532.95 609.381Z" fill="white"/>
</g>
</g>
<defs>
<clipPath id="clip0_1_194">
<rect width="800" height="220.29" fill="white" transform="translate(200 490)"/>
</clipPath>
</defs>
</svg>
