<svg width="1200" height="1200" viewBox="0 0 1200 1200" fill="none" xmlns="http://www.w3.org/2000/svg">
<rect width="1200" height="1200" fill="#E6E1DC"/>
<g clip-path="url(#clip0_1_513)">
<mask id="mask0_1_513" style="mask-type:luminance" maskUnits="userSpaceOnUse" x="200" y="469" width="798" height="264">
<path d="M200 469.436H997.37V732.246H200V469.436Z" fill="white"/>
</mask>
<g mask="url(#mask0_1_513)">
<path d="M238.201 469.771C262.284 469.771 279.723 476.138 279.723 499.39C279.723 525.411 259.792 532.885 234.879 532.885H230.727V565.55L246.782 566.657V575.238H200V566.657L210.796 565.55V479.46L200 478.352V469.771H238.201ZM230.727 523.197H235.709C251.211 523.197 258.131 515.999 258.131 500.498C258.131 484.996 251.211 479.183 236.54 479.183H230.727V523.197ZM324.019 535.651V525.132C324.019 512.675 321.251 505.478 311.009 505.478C306.857 505.478 301.32 506.585 301.32 511.291C301.32 511.844 301.32 512.398 301.597 513.228H306.857C307.41 515.166 307.687 517.104 307.687 519.042C307.687 524.578 304.089 528.177 297.999 528.177C291.355 528.177 288.033 523.747 288.033 517.657C288.033 506.031 298.275 498.28 314.884 498.28C333.154 498.28 342.566 505.478 342.566 526.792V559.457C342.566 565.547 343.12 567.761 346.442 567.761C347.826 567.761 349.21 567.484 351.147 566.654L352.808 573.021C350.317 574.405 345.334 576.619 339.521 576.619C331.493 576.619 327.618 573.574 326.234 565.824C322.358 572.19 315.715 576.619 304.919 576.619C294.123 576.619 284.711 571.36 284.711 556.965C284.711 540.633 296.061 535.374 314.331 535.374H324.019V535.651ZM324.019 554.197V542.848H317.653C307.134 542.848 304.089 547.554 304.089 556.135C304.089 563.332 306.303 567.208 312.67 567.208C318.206 567.208 324.019 562.779 324.019 554.197ZM357.509 597.107L366.367 595.999V509.356L357.232 508.248V500.221H381.869L382.976 511.847C386.851 504.373 394.602 498.56 406.228 498.56C424.221 498.56 433.91 511.57 433.91 537.037C433.91 562.505 422.007 577.176 404.014 577.176C395.156 577.176 388.512 574.684 384.914 570.532V596.276L399.862 597.66V605.411H357.509V597.107ZM384.637 528.456V550.048C384.637 560.844 390.45 567.764 399.308 567.764C410.381 567.764 413.702 557.522 413.702 537.868C413.702 519.598 411.211 508.802 399.585 508.802C391.003 509.079 384.637 516.276 384.637 528.456ZM477.647 498.28C495.363 498.28 506.99 508.523 506.99 531.221C506.99 533.159 506.713 536.481 506.713 538.419H463.253C463.253 554.751 467.128 566.1 480.692 566.1C489.827 566.1 494.256 561.118 497.855 552.813L506.159 555.858C502.284 568.869 492.318 576.896 477.37 576.896C454.671 576.896 443.599 561.948 443.599 538.696C443.599 512.952 457.716 498.28 477.647 498.28ZM488.166 529.837V526.792C488.166 512.675 485.398 506.585 477.093 506.585C467.682 506.585 463.806 516.827 463.253 530.114L488.166 529.837ZM559.313 566.934V575.238H515.853V566.934L524.988 565.826V509.356L515.853 508.248V500.221H541.044L542.151 512.401C545.749 505.203 551.839 498.56 563.189 498.56C572.047 498.56 578.967 503.819 578.967 514.615C578.967 523.75 574.262 528.179 567.064 528.179C559.867 528.179 556.268 523.75 556.268 516.553L561.528 514.615C561.805 513.785 561.805 513.231 561.805 512.678C561.805 510.186 559.867 509.079 557.376 509.079C549.625 509.079 543.535 519.875 543.535 529.84V566.103L559.313 566.934ZM238.201 608.453C262.284 608.453 279.723 614.82 279.723 638.073C279.723 664.093 259.792 671.568 234.879 671.568H230.727V704.232L246.782 705.339V713.92H200V705.339L210.796 704.232V618.142L200 617.035V608.453H238.201ZM230.727 661.879H235.709C251.211 661.879 258.131 654.682 258.131 639.18C258.131 623.678 251.211 617.865 236.54 617.865H230.727V661.879ZM315.986 601.812V704.788L325.952 705.896V713.923H287.751V705.896L297.439 704.788V610.947L287.751 609.84V601.812H315.986ZM373.564 674.338V663.819C373.564 651.363 370.796 644.165 360.554 644.165C356.401 644.165 350.865 645.273 350.865 649.979C350.865 650.532 350.865 651.086 351.142 651.916H356.401C356.955 653.854 357.232 655.792 357.232 657.729C357.232 663.266 353.633 666.864 347.543 666.864C340.9 666.864 337.578 662.435 337.578 656.345C337.578 644.719 347.82 636.968 364.429 636.968C382.699 636.968 392.111 644.165 392.111 665.48V698.145C392.111 704.235 392.664 706.449 395.986 706.449C397.37 706.449 398.754 706.172 400.692 705.342L402.353 711.709C399.862 713.093 394.879 715.307 389.066 715.307C381.038 715.307 377.163 712.262 375.779 704.511C371.903 710.878 365.26 715.307 354.464 715.307C343.668 715.307 334.256 710.048 334.256 695.653C334.256 679.321 345.606 674.062 363.875 674.062L373.564 674.338ZM373.564 692.885V681.536H367.197C356.678 681.536 353.633 686.242 353.633 694.823C353.633 702.02 355.848 705.896 362.215 705.896C367.751 705.619 373.564 701.466 373.564 692.885ZM432.803 638.629L434.187 651.363C438.062 643.889 445.26 636.968 458.547 636.968C472.941 636.968 480.141 644.442 480.141 661.882V704.235L489.276 705.342V713.646H454.12V705.342L461.871 704.235V663.543C461.871 654.408 460.487 648.871 451.352 648.871C442.771 648.871 435.851 654.684 435.851 666.864V704.511L443.878 705.619V713.923H408.443V705.619L417.578 704.511V647.764L408.443 646.657V638.629H432.803ZM531.352 636.968C549.068 636.968 560.695 647.21 560.695 669.909C560.695 671.847 560.418 675.169 560.418 677.107H517.235C517.235 693.439 521.11 704.788 534.674 704.788C543.809 704.788 548.238 699.806 551.837 691.501L560.141 694.546C556.266 707.556 546.3 715.584 531.352 715.584C508.653 715.584 497.581 700.636 497.581 677.383C497.304 651.363 511.421 636.968 531.352 636.968ZM541.594 668.525V665.48C541.594 651.363 538.826 645.273 530.522 645.273C521.11 645.273 517.235 655.515 516.681 668.802H541.594V668.525ZM570.934 689.01H578.685C580.346 700.082 589.204 706.726 599.446 706.726C607.751 706.726 612.18 703.127 612.18 696.207C612.18 677.66 571.765 692.055 571.765 661.051C571.765 646.934 582.284 636.968 596.955 636.968C607.197 636.968 610.519 641.397 613.287 641.397C615.225 641.397 615.502 640.013 616.055 637.245H622.422V660.774H614.671C611.349 650.255 606.367 645.55 597.232 645.55C590.865 645.55 585.606 648.595 585.606 654.684C585.606 671.293 626.298 658.56 626.298 689.84C626.298 704.788 616.609 715.307 600.83 715.307C588.097 715.307 583.391 709.494 580.623 709.494C579.516 709.494 578.685 710.601 578.132 714.754H570.934V689.01ZM733.531 554.834C731.123 557.159 727.441 558.322 722.513 558.322H714.375V575.983H708.866V533.713H722.513C727.275 533.713 730.929 534.875 733.392 537.173C735.884 539.471 737.129 542.46 737.129 546.087C737.129 549.713 735.939 552.536 733.531 554.862V554.834ZM729.323 551.761C730.79 550.433 731.51 548.523 731.51 546.059C731.51 540.855 728.52 538.225 722.541 538.225H714.403V553.754H722.541C725.614 553.754 727.884 553.09 729.323 551.761ZM744 550.266C745.384 547.692 747.266 545.699 749.675 544.287C752.109 542.865 754.883 542.128 757.702 542.156C760.637 542.156 763.128 542.792 765.287 544.038C767.446 545.284 769.024 546.862 770.076 548.772V542.709H775.668V575.955H770.076V569.754C768.997 571.692 767.363 573.298 765.204 574.571C763.045 575.844 760.526 576.481 757.647 576.481C754.768 576.481 752.028 575.761 749.647 574.294C747.266 572.827 745.384 570.806 744 568.177C742.616 565.547 741.924 562.557 741.924 559.208C741.924 555.858 742.616 552.841 744 550.266ZM768.581 552.73C767.557 550.875 766.201 549.436 764.484 548.467C762.757 547.48 760.8 546.965 758.81 546.972C756.734 546.972 754.879 547.471 753.163 548.439C751.474 549.408 750.118 550.82 749.093 552.675C748.069 554.529 747.571 556.716 747.571 559.235C747.571 561.754 748.069 563.997 749.093 565.879C750.118 567.761 751.446 569.201 753.163 570.197C754.851 571.194 756.734 571.692 758.81 571.692C760.801 571.713 762.762 571.197 764.484 570.197C766.201 569.201 767.557 567.761 768.581 565.879C769.606 563.997 770.104 561.81 770.104 559.291C770.104 556.772 769.606 554.612 768.581 552.73ZM794.685 543.706C796.484 542.654 798.671 542.128 801.273 542.128V547.83H799.806C793.606 547.83 790.533 551.18 790.533 557.907V575.983H785.024V542.737H790.533V548.135C791.502 546.225 792.886 544.758 794.685 543.706ZM814.364 547.277V566.875C814.364 568.481 814.696 569.644 815.388 570.308C816.08 570.972 817.271 571.305 818.959 571.305H823.028V575.983H818.046C814.973 575.983 812.675 575.291 811.125 573.851C809.603 572.439 808.828 570.114 808.828 566.875V547.277H804.509V542.737H808.828V534.377H814.336V542.737H823.001V547.277H814.336H814.364ZM851.958 574.408C849.443 573 847.38 570.907 846.007 568.373C844.567 565.771 843.848 562.754 843.848 559.293C843.848 555.833 844.595 552.899 846.062 550.297C847.529 547.695 849.55 545.674 852.097 544.29C854.644 542.906 857.495 542.186 860.651 542.186C863.806 542.186 866.657 542.878 869.204 544.29C871.751 545.674 873.772 547.667 875.239 550.269C876.706 552.844 877.453 555.861 877.453 559.293C877.453 562.726 876.706 565.743 875.183 568.373C873.738 570.918 871.609 573.008 869.038 574.408C866.464 575.819 863.585 576.539 860.429 576.539C857.273 576.539 854.505 575.847 851.958 574.408ZM865.993 570.283C867.737 569.342 869.149 567.958 870.201 566.103C871.28 564.248 871.806 561.979 871.806 559.293C871.806 556.608 871.28 554.366 870.228 552.511C869.176 550.657 867.792 549.273 866.104 548.359C864.411 547.451 862.516 546.985 860.595 547.003C858.63 547.003 856.72 547.446 855.059 548.359C853.37 549.273 852.041 550.657 851.017 552.511C849.993 554.366 849.495 556.636 849.495 559.293C849.495 561.951 849.993 564.276 850.99 566.159C851.986 568.013 853.315 569.397 854.948 570.311C856.609 571.224 858.436 571.667 860.401 571.667C862.367 571.667 864.249 571.197 865.993 570.283ZM898.27 547.277H891.294V575.983H885.785V547.277H881.467V542.737H885.785V540.384C885.785 536.675 886.754 533.934 888.664 532.218C890.574 530.502 893.675 529.644 897.91 529.644V534.266C895.474 534.266 893.785 534.737 892.789 535.678C891.792 536.619 891.294 538.197 891.294 540.384V542.737H898.27V547.277ZM717.315 643.997C714.076 642.17 711.529 639.595 709.647 636.301C707.765 633.007 706.824 629.298 706.824 625.173C706.824 621.048 707.765 617.339 709.647 614.045C711.529 610.751 714.076 608.177 717.315 606.35C720.554 604.523 724.125 603.581 728.055 603.581C731.986 603.581 735.612 604.495 738.851 606.35C742.05 608.16 744.693 610.812 746.491 614.017C748.346 617.284 749.287 621.021 749.287 625.173C749.287 629.325 748.346 633.062 746.491 636.329C744.701 639.54 742.056 642.194 738.851 643.997C735.612 645.851 732.014 646.765 728.055 646.765C724.097 646.765 720.554 645.851 717.315 643.997ZM736.028 639.9C738.4 638.5 740.336 636.468 741.619 634.031C742.976 631.484 743.64 628.523 743.64 625.173C743.64 621.824 742.948 618.806 741.619 616.287C740.364 613.856 738.444 611.83 736.083 610.446C733.73 609.062 731.073 608.37 728.083 608.37C725.093 608.37 722.408 609.062 720.083 610.446C717.73 611.83 715.875 613.768 714.547 616.287C713.19 618.806 712.526 621.768 712.526 625.173C712.526 628.578 713.19 631.484 714.547 634.031C715.903 636.578 717.758 638.543 720.138 639.9C722.491 641.284 725.176 641.976 728.111 641.976C731.045 641.976 733.73 641.284 736.083 639.9H736.028ZM767.053 614.433C769.24 613.187 771.731 612.55 774.527 612.55C777.517 612.55 780.202 613.27 782.61 614.682C784.991 616.093 786.873 618.087 788.257 620.661C789.642 623.235 790.334 626.197 790.334 629.602C790.334 633.007 789.642 635.941 788.257 638.571C786.873 641.201 784.991 643.249 782.583 644.689C780.174 646.156 777.489 646.875 774.555 646.875C771.621 646.875 769.157 646.239 766.998 644.993C764.839 643.747 763.206 642.142 762.126 640.204V646.322H756.617V601.422H762.126V619.249C763.261 617.256 764.922 615.651 767.109 614.405L767.053 614.433ZM783.136 623.042C782.112 621.187 780.756 619.775 779.039 618.806C777.323 617.837 775.441 617.339 773.365 617.339C771.363 617.317 769.394 617.848 767.674 618.874C765.955 619.9 764.552 621.38 763.621 623.152C762.597 625.035 762.071 627.194 762.071 629.685C762.071 632.177 762.597 634.391 763.621 636.273C764.645 638.156 766.029 639.595 767.745 640.592C769.462 641.588 771.344 642.087 773.365 642.087C775.385 642.087 777.323 641.588 779.039 640.592C780.756 639.595 782.112 638.156 783.136 636.273C784.133 634.391 784.659 632.177 784.659 629.63C784.659 627.083 784.161 624.924 783.136 623.069V623.042ZM802.489 645.577C800.468 644.719 798.862 643.501 797.7 641.923C796.537 640.373 795.873 638.574 795.762 636.553H801.464C801.63 638.214 802.406 639.57 803.79 640.622C805.174 641.674 807.028 642.2 809.271 642.2C811.374 642.2 813.035 641.729 814.253 640.816C815.471 639.902 816.08 638.712 816.08 637.3C816.08 635.889 815.444 634.754 814.143 634.062C812.841 633.37 810.848 632.65 808.136 631.958C805.672 631.321 803.651 630.657 802.101 629.992C800.555 629.323 799.182 628.31 798.087 627.03C796.98 625.729 796.426 623.986 796.426 621.854C796.426 620.165 796.925 618.588 797.949 617.176C798.945 615.764 800.385 614.629 802.267 613.799C804.122 612.968 806.253 612.553 808.634 612.553C812.316 612.553 815.278 613.494 817.547 615.349C819.817 617.203 821.035 619.75 821.174 622.989H815.665C815.554 621.245 814.835 619.861 813.561 618.809C812.288 617.757 810.572 617.231 808.44 617.231C806.447 617.231 804.869 617.646 803.707 618.505C802.544 619.363 801.963 620.47 801.963 621.854C801.963 622.934 802.322 623.847 803.015 624.567C803.707 625.287 804.62 625.84 805.672 626.255C806.752 626.671 808.219 627.169 810.129 627.695C812.509 628.332 814.447 628.968 815.942 629.605C817.437 630.242 818.71 631.183 819.79 632.428C820.869 633.674 821.423 635.307 821.45 637.328C821.45 639.155 820.952 640.788 819.928 642.255C818.904 643.723 817.492 644.857 815.665 645.688C813.81 646.518 811.707 646.934 809.326 646.934C806.779 646.934 804.482 646.491 802.461 645.633L802.489 645.577ZM829.42 606.601C828.7 605.882 828.34 604.996 828.34 603.944C828.34 602.892 828.7 602.006 829.42 601.287C830.14 600.567 831.026 600.207 832.077 600.207C833.129 600.207 833.932 600.567 834.652 601.287C835.372 602.006 835.704 602.892 835.704 603.944C835.704 604.996 835.344 605.882 834.652 606.601C833.96 607.321 833.074 607.681 832.077 607.681C831.081 607.681 830.14 607.321 829.42 606.601ZM834.763 613.107V646.352H829.254V613.107H834.763ZM844.155 620.636C845.539 618.062 847.421 616.069 849.83 614.657C852.238 613.245 854.923 612.525 857.94 612.525C860.515 612.525 862.923 613.134 865.165 614.325C867.408 615.515 869.096 617.093 870.259 619.03V601.453H875.851V646.352H870.259V640.096C869.179 642.089 867.546 643.695 865.415 644.968C863.283 646.242 860.764 646.878 857.885 646.878C855.006 646.878 852.266 646.159 849.857 644.691C847.449 643.224 845.567 641.203 844.183 638.574C842.799 635.944 842.107 632.954 842.107 629.605C842.107 626.255 842.799 623.238 844.183 620.664L844.155 620.636ZM868.736 623.1C867.712 621.245 866.356 619.806 864.639 618.837C862.917 617.837 860.956 617.321 858.965 617.342C856.889 617.342 855.034 617.812 853.318 618.809C851.629 619.778 850.273 621.19 849.248 623.044C848.224 624.899 847.726 627.086 847.726 629.605C847.726 632.124 848.224 634.366 849.248 636.248C850.273 638.131 851.601 639.57 853.318 640.567C855.006 641.563 856.889 642.062 858.965 642.062C860.956 642.083 862.917 641.566 864.639 640.567C866.356 639.57 867.712 638.131 868.736 636.248C869.761 634.366 870.259 632.179 870.259 629.66C870.259 627.141 869.761 624.982 868.736 623.1ZM885.345 606.601C884.626 605.882 884.266 604.996 884.266 603.944C884.266 602.892 884.626 602.006 885.345 601.287C886.065 600.567 886.951 600.207 888.003 600.207C889.055 600.207 889.857 600.567 890.577 601.287C891.297 602.006 891.629 602.892 891.629 603.944C891.629 604.996 891.269 605.882 890.577 606.601C889.885 607.321 888.999 607.681 888.003 607.681C887.006 607.681 886.065 607.321 885.345 606.601ZM890.688 613.107V646.352H885.179V613.107H890.688ZM900.097 620.636C901.481 618.062 903.363 616.069 905.772 614.657C908.206 613.234 910.98 612.498 913.799 612.525C916.734 612.525 919.225 613.162 921.384 614.408C923.543 615.653 925.121 617.231 926.173 619.141V613.079H931.765V646.325H926.173V640.124C925.093 642.062 923.46 643.667 921.301 644.941C919.142 646.214 916.623 646.851 913.744 646.851C910.865 646.851 908.125 646.131 905.744 644.664C903.363 643.197 901.481 641.176 900.097 638.546C898.713 635.916 898.021 632.927 898.021 629.577C898.021 626.228 898.713 623.21 900.097 620.636ZM924.651 623.1C923.626 621.245 922.27 619.806 920.554 618.837C918.831 617.837 916.87 617.321 914.879 617.342C912.803 617.342 910.948 617.812 909.232 618.809C907.543 619.778 906.187 621.19 905.163 623.044C904.138 624.899 903.64 627.086 903.64 629.605C903.64 632.124 904.138 634.366 905.163 636.248C906.187 638.131 907.516 639.57 909.232 640.567C910.92 641.563 912.803 642.062 914.879 642.062C916.87 642.083 918.831 641.566 920.554 640.567C922.27 639.57 923.626 638.131 924.651 636.248C925.675 634.366 926.173 632.179 926.173 629.66C926.173 627.141 925.675 624.982 924.651 623.1ZM967.114 616.152C969.633 618.588 970.879 622.131 970.879 626.726V646.325H965.426V627.529C965.426 624.207 964.595 621.66 962.934 619.916C961.273 618.172 959.003 617.287 956.152 617.287C953.301 617.287 950.92 618.2 949.204 620.027C947.488 621.854 946.63 624.484 946.63 627.972V646.352H941.121V613.107H946.63V617.84C947.709 616.152 949.204 614.823 951.086 613.909C952.969 612.968 955.045 612.525 957.315 612.525C961.356 612.525 964.623 613.743 967.142 616.207L967.114 616.152ZM740.925 686.684C739.833 684.311 738.06 682.316 735.831 680.954C733.617 679.598 731.015 678.934 728.08 678.934C725.146 678.934 722.461 679.626 720.108 680.954C717.755 682.283 715.873 684.248 714.516 686.768C713.16 689.287 712.496 692.221 712.496 695.543C712.496 698.864 713.16 701.771 714.516 704.29C715.873 706.809 717.727 708.719 720.108 710.075C722.489 711.432 725.146 712.096 728.08 712.096C732.205 712.096 735.61 710.851 738.267 708.387C740.925 705.923 742.502 702.574 742.945 698.366H726.087V693.882H748.842V698.117C748.544 701.518 747.423 704.796 745.575 707.667C743.736 710.527 741.215 712.886 738.239 714.532C735.194 716.221 731.817 717.051 728.108 717.051C724.177 717.051 720.606 716.138 717.367 714.283C714.166 712.466 711.517 709.816 709.7 706.615C707.817 703.349 706.876 699.639 706.876 695.515C706.876 691.39 707.817 687.681 709.7 684.387C711.582 681.093 714.129 678.518 717.367 676.691C720.606 674.864 724.177 673.923 728.108 673.923C732.592 673.923 736.579 675.03 740.039 677.273C743.499 679.487 746.018 682.643 747.596 686.684H740.925ZM765.761 684.439C767.56 683.388 769.747 682.862 772.349 682.862V688.564H770.882C764.681 688.564 761.608 691.914 761.608 698.64V716.716H756.1V683.471H761.608V688.869C762.577 686.959 763.961 685.491 765.761 684.439ZM784.745 715.141C782.23 713.734 780.166 711.641 778.793 709.107C777.354 706.505 776.634 703.487 776.634 700.027C776.634 696.567 777.381 693.633 778.848 691.03C780.316 688.428 782.336 686.408 784.883 685.024C787.43 683.639 790.281 682.92 793.437 682.92C796.592 682.92 799.444 683.612 801.99 685.024C804.537 686.408 806.558 688.401 808.025 691.003C809.492 693.605 810.239 696.594 810.239 700.055C810.239 703.515 809.492 706.505 807.97 709.134C806.524 711.68 804.395 713.77 801.824 715.169C799.25 716.581 796.371 717.3 793.215 717.3C790.059 717.3 787.291 716.581 784.745 715.169V715.141ZM798.779 711.017C800.523 710.075 801.935 708.691 802.987 706.837C804.066 704.982 804.592 702.712 804.592 700.055C804.592 697.397 804.066 695.127 803.015 693.273C801.963 691.418 800.579 690.034 798.89 689.12C797.197 688.213 795.302 687.746 793.381 687.764C791.416 687.764 789.506 688.207 787.845 689.12C786.156 690.034 784.828 691.418 783.803 693.273C782.779 695.127 782.281 697.397 782.281 700.055C782.281 702.712 782.779 705.037 783.776 706.92C784.772 708.774 786.101 710.159 787.734 711.072C789.395 711.985 791.222 712.428 793.188 712.428C795.153 712.428 797.035 711.958 798.779 711.044V711.017ZM847.001 683.473V716.719H841.492V711.792C840.44 713.48 838.973 714.809 837.091 715.778C835.208 716.719 833.132 717.217 830.862 717.217C828.26 717.217 825.935 716.691 823.886 715.612C821.838 714.532 820.205 712.927 819.015 710.795C817.824 708.664 817.215 706.034 817.215 702.961V683.501H822.668V702.242C822.668 705.508 823.499 708.027 825.16 709.799C826.821 711.543 829.091 712.428 831.97 712.428C834.848 712.428 837.257 711.515 838.945 709.688C840.634 707.861 841.492 705.231 841.492 701.743V683.473H847.001ZM866.765 684.83C868.925 683.556 871.444 682.92 874.322 682.92C877.201 682.92 879.942 683.639 882.35 685.051C884.758 686.463 886.641 688.456 888.025 691.03C889.409 693.605 890.101 696.567 890.101 699.972C890.101 703.377 889.409 706.311 888.025 708.941C886.641 711.57 884.758 713.619 882.35 715.058C879.942 716.525 877.257 717.245 874.322 717.245C871.388 717.245 869.008 716.608 866.821 715.335C864.662 714.062 863.001 712.484 861.866 710.574V732.47H856.357V683.446H861.866V689.563C862.945 687.653 864.579 686.075 866.738 684.802L866.765 684.83ZM882.931 693.411C881.907 691.556 880.551 690.145 878.835 689.176C877.118 688.207 875.236 687.709 873.16 687.709C871.158 687.687 869.189 688.218 867.47 689.244C865.75 690.269 864.347 691.75 863.416 693.522C862.392 695.404 861.866 697.563 861.866 700.055C861.866 702.546 862.392 704.761 863.416 706.643C864.44 708.525 865.824 709.965 867.54 710.961C869.257 711.958 871.139 712.456 873.16 712.456C875.181 712.456 877.118 711.958 878.835 710.961C880.551 709.965 881.907 708.525 882.931 706.643C883.928 704.761 884.454 702.546 884.454 699.999C884.454 697.453 883.956 695.293 882.931 693.439V693.411Z" fill="#141521"/>
</g>
</g>
<defs>
<clipPath id="clip0_1_513">
<rect width="800" height="265.744" fill="white" transform="translate(200 467)"/>
</clipPath>
</defs>
</svg>
