<svg width="1200" height="1200" viewBox="0 0 1200 1200" fill="none" xmlns="http://www.w3.org/2000/svg">
<rect width="1200" height="1200" fill="#181D26"/>
<g clip-path="url(#clip0_2_1478)">
<path d="M331.972 531H259.099C224.971 531 201.658 551.772 200.088 583.045L200 583.114V669.938H221.435C237.507 669.938 242.62 653.572 243.071 644.904V641.668H338.312V641.424C370.136 638.921 391.083 617.454 391.083 586.419C391.071 553.28 367.32 531 331.972 531ZM337.06 603.204H264.644C243.083 605.081 243.083 632.756 243.083 632.756V586.344H243.284C243.284 574.296 248.916 568.688 260.838 568.688H330.239C342.217 568.688 347.8 574.321 347.8 586.437C347.8 598.648 341.954 601.971 337.06 603.204Z" fill="#A59B93"/>
<path d="M940.896 531H868.023C832.731 531 808.949 553.236 808.949 586.344V669.938H830.384C846.456 669.938 851.569 653.572 852.02 644.904V641.668H946.26V641.481C978.635 639.346 1000.03 617.774 1000.03 586.406C1000 553.28 976.25 531 940.896 531ZM946.009 603.204H873.587C852.007 605.05 852.007 632.756 852.007 632.756V586.344H852.201C852.233 574.296 857.834 568.688 869.756 568.688H939.169C951.148 568.688 956.693 574.321 956.693 586.444C956.693 598.566 950.879 601.971 946.009 603.204Z" fill="#A59B93"/>
<path d="M560.206 557.154V557.492V612.973C560.206 625.49 546.925 632.262 534.433 632.262H472.206C459.689 632.262 446.427 625.503 446.427 612.973V531.544H431.407C404.564 531.544 403.4 554.106 403.344 557.154V613.355C403.344 652.239 439.017 669.95 472.187 669.95H534.402C567.572 669.95 603.245 652.239 603.245 613.355V531.544H588.225C561.426 531.544 560.243 554.106 560.206 557.154Z" fill="#A59B93"/>
<path d="M660.671 612.986V531.544H645.156C641.658 531.626 634.961 532.252 629.191 535.381L628.859 535.581C623.715 539.036 617.594 545.639 617.594 557.53V614.538C618.307 652.608 653.592 669.975 686.437 669.975H768.635C780.526 669.975 787.129 663.848 790.584 658.71L790.778 658.378C793.907 652.639 794.495 645.912 794.595 642.413V632.387L686.443 632.293C673.945 632.262 660.671 625.503 660.671 612.986Z" fill="#A59B93"/>
</g>
<defs>
<clipPath id="clip0_2_1478">
<rect width="800" height="138.95" fill="white" transform="translate(200 531)"/>
</clipPath>
</defs>
</svg>
