<svg width="1200" height="1200" viewBox="0 0 1200 1200" fill="none" xmlns="http://www.w3.org/2000/svg">
<rect width="1200" height="1200" fill="#EBDED1"/>
<path d="M644.768 723.355C636.2 723.355 632.536 726.245 631.865 732.49H657.465C657.103 726.142 653.284 723.355 644.768 723.355ZM804.045 723.355C795.478 723.355 791.813 726.245 791.142 732.49H816.742C816.381 726.142 812.51 723.355 804.045 723.355ZM561.516 658.065H755.065C822.781 658.065 877.645 603.2 877.645 535.484C877.645 467.768 822.781 412.903 755.065 412.903H561.516C422.574 412.903 309.903 525.574 309.903 664.516V787.097H426.032V664.516C426.032 589.677 486.678 529.032 561.516 529.032H755.065C758.626 529.032 761.516 531.923 761.516 535.484C761.516 539.045 758.626 541.935 755.065 541.935H561.516C493.8 541.935 438.936 596.8 438.936 664.516C438.936 732.232 493.8 787.097 561.516 787.097H877.645V670.968H561.516C557.955 670.968 555.065 668.077 555.065 664.516C555.065 660.955 557.955 658.065 561.516 658.065ZM837.387 696.774H851.839V761.29H837.387V696.774ZM804.355 712.103C820.148 712.103 830.626 720.361 830.626 735.484C830.626 737.239 830.419 738.477 830.265 740.129H790.936C791.297 747.561 794.807 750.71 804.148 750.71C812.716 750.71 815.71 748.49 815.71 744.361V743.381H830.161V744.465C830.161 754.942 819.942 762.271 804.665 762.271C788.561 762.271 777.619 754.374 777.619 737.239C777.568 721.806 788.458 712.103 804.355 712.103ZM717.284 713.032H731.736V738.271C731.736 746.065 734.987 749.368 744.174 749.368C753.619 749.368 756.974 745.703 756.974 737.548V713.084H771.426V761.29H757.955V746.581H757.181C755.942 754.684 750.058 762.271 737.361 762.271C723.787 762.271 717.336 753.91 717.336 743.123L717.284 713.032ZM675.219 713.032H682.342C683.89 703.329 692.355 696.774 707.168 696.774H711.4V707.252H704.845C698.497 707.252 695.503 708.335 695.865 713.032H711.348V724.955H696.484V761.29H682.032V725.006H675.219V713.032ZM645.078 712.103C660.871 712.103 671.348 720.361 671.348 735.484C671.348 737.239 671.142 738.477 670.987 740.129H631.71C632.071 747.561 635.581 750.71 644.923 750.71C653.49 750.71 656.484 748.49 656.484 744.361V743.381H670.936V744.465C670.936 754.942 660.716 762.271 645.439 762.271C629.336 762.271 618.394 754.374 618.394 737.239C618.29 721.806 629.181 712.103 645.078 712.103ZM590.678 696.774C606.574 696.774 615.607 703.794 615.607 716.129C615.607 726.606 609.516 732.903 597.387 734.039V734.813C603.168 736.361 605.387 739.458 607.761 743.948L617.103 761.29H600.329L591.452 744.516C588.871 739.51 586.445 737.858 578.91 737.858H569.516V761.29H555.065V696.774H590.678ZM600.536 718.348C600.536 712 597.439 709.781 590.626 709.781H569.516V727.019H590.626C597.439 727.019 600.536 725.058 600.536 718.348Z" fill="#F55046"/>
<path d="M868.975 666.89C873.193 666.89 876.613 663.47 876.613 659.252C876.613 655.033 873.193 651.613 868.975 651.613C864.756 651.613 861.336 655.033 861.336 659.252C861.336 663.47 864.756 666.89 868.975 666.89Z" stroke="#F55046" stroke-width="1.54839"/>
<path d="M868.561 658.581C869.026 658.581 869.387 658.477 869.593 658.323C869.8 658.168 869.903 657.858 869.903 657.445C869.903 657.032 869.8 656.774 869.593 656.568C869.387 656.413 869.026 656.31 868.561 656.31H867.581V658.581H868.561ZM867.581 660.129V663.484H865.31V654.606H868.819C870.006 654.606 870.832 654.813 871.4 655.226C871.968 655.639 872.226 656.258 872.226 657.084C872.226 657.652 872.071 658.168 871.813 658.529C871.503 658.89 871.09 659.2 870.522 659.355C870.832 659.458 871.142 659.613 871.348 659.871C871.606 660.129 871.864 660.49 872.123 661.006L873.361 663.535H870.935L869.852 661.316C869.645 660.852 869.387 660.542 869.181 660.387C868.974 660.232 868.664 660.129 868.303 660.129H867.581Z" fill="#F55046"/>
</svg>
