<svg width="1200" height="1200" viewBox="0 0 1200 1200" fill="none" xmlns="http://www.w3.org/2000/svg">
<rect width="1200" height="1200" fill="white"/>
<g clip-path="url(#clip0_1_654)">
<path d="M600.004 400C489.676 400 400 489.676 400 600.004C399.956 646.356 416.087 691.271 445.612 727.003C462.35 747.307 482.904 764.136 506.112 776.537C535.08 791.976 567.407 800.034 600.231 800C633.056 799.965 665.366 791.839 694.301 776.339C722.1 761.396 746.001 740.133 764.081 714.263C787.507 680.772 800.045 640.875 799.989 600.004C799.989 489.676 710.275 400 600.004 400ZM527.989 630.773H519.371C514.817 630.745 510.428 632.471 507.112 635.591C503.548 638.816 501.768 643.182 501.775 648.689C501.742 653.198 503.264 657.581 506.084 661.099C508.951 664.776 514.294 666.612 522.115 666.606L512.808 718.299C511.657 724.963 510.107 729.788 508.159 732.774C506.207 735.763 503.727 737.253 500.747 737.253C496.843 737.253 492.707 734.613 488.337 729.332C483.968 724.051 480.3 716.124 477.333 705.55C474.347 694.989 472.854 682.353 472.854 667.643C472.854 636.167 477.569 609.449 486.998 587.491C496.428 565.532 509.579 549.002 526.452 537.9C543.331 526.754 563.03 521.181 585.548 521.181C604.615 521.181 619.09 525.317 628.972 533.59C638.854 541.863 643.792 553.236 643.786 567.707C643.958 579.059 640.783 590.209 634.658 599.768C628.587 609.163 620.125 616.772 610.141 621.815C599.594 627.191 588.02 630.249 576.194 630.782L586.567 573.572C586.829 571.632 586.942 569.674 586.906 567.717C586.906 555.992 580.359 550.133 567.264 550.14C550.951 550.14 541.301 557.605 538.315 572.535C535.109 588.855 531.667 608.267 527.989 630.773ZM600.004 781.129C579.155 781.145 558.462 777.546 538.843 770.493C540.918 769.127 542.819 767.512 544.501 765.683C551.416 758.228 556.011 747.487 558.287 733.462C558.752 730.948 559.903 723.941 561.738 712.443C566.095 686.933 568.735 671.77 569.659 666.955C575.323 667.438 580.746 669.463 585.341 672.81C589.584 676.035 593.89 681.379 598.259 688.841C602.628 696.303 608.601 707.848 616.176 723.476C625.605 743.008 635.541 756.794 645.983 764.835C649.572 767.597 653.486 769.909 657.638 771.718C639.066 777.966 619.599 781.145 600.004 781.129ZM775.396 645.634C771.507 660.792 765.437 675.305 757.376 688.718C749.415 702.024 739.157 713.811 727.078 723.533C717.875 730.85 706.569 737.046 694.914 735.49C682.061 733.783 672.198 723.09 665.936 711.736C659.675 700.383 655.818 687.7 648.52 676.969C640.395 665.122 628.553 656.322 614.865 651.961C644.663 644.512 672.452 625.756 686.389 598.382C700.326 571.007 698.139 534.948 677.535 512.166C660.561 493.363 634.215 485.763 608.934 483.981C569.046 481.152 527.48 491.525 496.475 516.758C473.75 535.269 457.502 561.003 447.837 588.688C438.171 616.374 434.862 645.945 435.248 675.253C413.296 627.18 413.824 569.395 436.653 521.737C459.483 474.08 504.179 437.464 555.392 424.451C617.185 408.741 686.106 427.855 730.002 474.297C770.059 516.674 788.881 578.872 777.49 636.233C776.867 639.382 776.151 642.516 775.34 645.634H775.396Z" fill="#FABE78"/>
</g>
<defs>
<clipPath id="clip0_1_654">
<rect width="399.989" height="400" fill="white" transform="translate(400 400)"/>
</clipPath>
</defs>
</svg>
