<svg width="1200" height="1200" viewBox="0 0 1200 1200" fill="none" xmlns="http://www.w3.org/2000/svg">
<rect width="1200" height="1200" fill="white"/>
<path d="M418.77 629.858C418.926 637.515 417.03 645.069 413.292 651.69L412.102 653.653H443.302L443.778 652.671C445.683 645.803 446.636 637.953 446.636 629.858V546.208H418.532V629.613L418.77 629.858ZM362.326 629.858V546.208H333.746V629.613C333.746 637.953 334.937 645.803 336.842 652.671L337.08 653.653H368.756L367.565 651.69C363.796 644.993 361.9 637.351 362.087 629.613L362.326 629.858ZM557.144 629.367L488.791 546.208H467.832V653.653H496.174V600.421L540.711 653.653H585.486V546.208H557.144V629.367ZM714.095 592.816C714.095 565.342 692.66 546.208 662.413 546.208H606.921V653.653H635.263V639.18H659.555L669.797 653.898H704.092L689.564 633.047C696.987 629.496 703.253 623.807 707.606 616.669C711.959 609.53 714.213 601.245 714.095 592.816ZM635.263 573.192H661.461C675.751 573.192 685.991 581.532 685.991 592.816C685.991 603.855 675.751 611.95 661.461 611.95H635.263V573.437V573.192ZM730.291 546.208H758.632V653.653H730.291V546.208ZM825.318 569.267C839.608 569.267 847.706 575.399 849.611 588.155V589.137H877.714V587.665C873.904 546.944 835.083 544 823.413 544C792.928 544 773.398 560.681 773.398 586.929C773.398 609.007 785.545 622.008 811.028 626.914L831.749 631.084C842.466 633.047 847.706 637.217 847.706 644.086C847.706 647.029 846.991 649.482 845.324 651.445L843.18 653.898H874.857L875.095 652.917C876.285 648.992 876.762 644.821 876.762 640.651C876.762 620.291 864.377 608.516 836.274 602.629L821.269 599.44C808.17 596.986 803.169 592.571 803.169 584.721C803.169 574.909 811.266 569.267 825.318 569.267ZM264.678 569.267C279.206 569.267 287.065 575.399 288.971 588.155V589.137H317.074V587.665C313.264 546.944 274.681 544 262.772 544C232.287 544 212.758 560.681 212.758 586.929C212.758 609.007 225.142 622.008 250.388 626.914L271.346 631.084C282.064 633.047 287.304 637.217 287.304 644.086C287.304 647.029 286.351 649.482 284.683 651.445L282.778 653.898H314.216L314.454 652.917C315.645 648.992 316.359 644.821 316.359 640.651C316.359 620.291 303.737 608.516 275.872 602.629L260.629 599.44C247.53 596.986 242.528 592.571 242.528 584.721C242.528 574.909 250.626 569.267 264.678 569.267ZM992.51 573.437V546.208H895.577V653.653H923.681V628.386H984.888V601.157H923.681V573.437H992.51Z" fill="black"/>
</svg>
