<svg width="1200" height="1200" viewBox="0 0 1200 1200" fill="none" xmlns="http://www.w3.org/2000/svg">
<rect width="1200" height="1200" fill="#18191A"/>
<path d="M567.952 449.196L465.964 469.607C452.259 472.35 439.514 478.639 428.999 487.846C418.484 497.054 410.568 508.858 406.04 522.08C401.512 535.303 400.531 549.482 403.195 563.202C405.858 576.922 412.074 589.704 421.22 600.271L482.88 671.254C511.228 704.022 544.895 731.78 582.467 753.36C605.846 766.813 632.41 773.74 659.382 773.419L737.074 772.465C755.984 772.235 774.052 764.612 787.411 751.226C800.77 737.841 808.358 719.757 808.551 700.847L809.151 643.461C809.42 614.301 801.908 585.597 787.389 560.308C772.869 535.018 751.868 514.059 726.55 499.589L666.515 465.299C636.683 448.207 601.674 442.488 567.952 449.196Z" fill="#BFE8E1"/>
<path d="M412.251 651.018L494.286 552.561C502.438 542.754 509.639 532.195 515.793 521.025L556.016 448.101C563.903 433.815 575.406 421.853 589.373 413.414C603.34 404.975 619.28 400.356 635.594 400.02C651.909 399.684 668.026 403.642 682.329 411.498C696.631 419.354 708.618 430.832 717.086 444.781L773.589 537.835L774.825 540.201C833.836 670.865 680.995 755.62 623.255 769.958L502.444 797.538C417.76 816.891 356.877 717.833 412.251 651.018Z" fill="#6B2886"/>
<path d="M617.252 682.978C585.469 682.978 561.773 667.263 561.773 639.259H583.492C583.492 657.34 598.147 666.239 617.252 666.239C636.358 666.239 647.093 659.176 647.093 645.05C647.093 609.453 564.634 636.433 564.634 584.062C564.634 561.037 585.575 546.911 613.332 546.911C643.456 546.911 665.704 564.568 665.704 587.982H643.95C643.95 574.103 630.884 563.65 613.332 563.65C596.841 563.65 585.575 570.995 585.575 583.285C585.575 616.516 668.564 591.125 668.564 644.273C668.564 668.852 647.376 682.978 617.252 682.978Z" fill="white"/>
</svg>
