<svg width="1200" height="1200" viewBox="0 0 1200 1200" fill="none" xmlns="http://www.w3.org/2000/svg">
<rect width="1200" height="1200" fill="#1E2B3D"/>
<path fill-rule="evenodd" clip-rule="evenodd" d="M371.096 441.861C422.271 439.395 460.345 461.129 486.549 485.175C513.216 509.684 533.871 546.216 536.029 594.154C536.953 617.121 532.792 640.089 523.851 661.36C515.99 680.474 504.892 695.426 492.406 709.299C467.281 737.044 431.212 756.621 383.427 758.779C332.56 761.245 295.104 740.436 268.283 715.773C241.462 691.11 220.961 655.503 218.803 606.794C216.337 555.002 237.3 518.624 261.809 491.649C274.757 477.622 290.171 466.062 307.435 457.892C327.165 448.335 348.9 442.786 371.096 441.861Z" fill="#84141C" stroke="#AB121C" stroke-width="1.54143" stroke-miterlimit="10"/>
<path d="M414.568 501.206L289.25 539.741C282.93 541.591 279.385 548.373 281.388 554.693L306.051 635.156C307.901 641.476 314.683 645.021 320.849 643.017L366.938 628.836C369.558 628.528 372.178 630.069 372.949 632.689C373.103 633.46 373.257 634.231 373.103 635.002L362.313 694.809C361.851 697.121 363.392 699.279 365.704 699.741C365.859 699.741 365.859 699.741 366.013 699.741L367.708 699.896C370.175 700.204 372.487 698.662 373.103 696.196L383.277 640.088C383.893 636.851 387.13 634.693 390.367 635.31C391.446 635.464 392.371 635.926 393.142 636.697L432.448 677.391C434.144 679.086 437.997 679.703 440.001 678.007L441.234 676.928C443.084 675.233 442.313 671.996 440.618 670.146L398.999 626.986C398.537 626.37 398.074 625.753 397.92 625.136C397.149 622.516 398.383 619.741 400.849 618.508L446.475 604.481C452.795 602.632 456.34 595.849 454.491 589.53L429.828 509.067C427.67 502.901 421.042 499.356 414.568 501.206C414.722 501.206 414.722 501.206 414.568 501.206ZM441.697 585.83C443.084 590.3 440.618 594.925 436.148 596.312L324.548 630.531C320.078 631.919 315.454 629.452 314.067 624.982L293.874 558.393C292.487 553.923 295.107 549.298 299.423 548.065L411.022 513.846C415.492 512.458 420.117 514.925 421.35 519.395L441.697 585.83Z" fill="white"/>
<path d="M577.648 554.848H571.328V547.295H577.956V533.114H586.897V547.295H598.611V554.848H586.897V576.582C586.897 586.293 593.679 587.68 597.224 587.68C597.995 587.68 598.766 587.68 599.382 587.526V595.85C598.303 596.004 597.224 596.004 596.145 596.004C589.979 596.004 577.648 594.154 577.648 577.661V554.848Z" fill="white"/>
<path d="M609.863 546.524H618.958V555.002C618.958 556.235 618.958 557.468 618.804 558.701H618.958C621.116 551.611 626.819 545.907 634.218 545.907C634.989 545.907 635.759 545.907 636.684 546.061V555.31C635.759 555.156 634.834 555.002 634.064 555.002C628.206 555.002 622.657 559.318 620.499 566.562C619.728 569.491 619.266 572.42 619.42 575.348V595.387H610.172L609.863 546.524Z" fill="white"/>
<path d="M645.629 527.257H655.032V536.813H645.629V527.257ZM645.783 546.524H655.032V595.542H645.783V546.524Z" fill="white"/>
<path d="M669.52 546.525H677.997V550.687C677.997 551.92 677.997 552.999 677.843 554.232H677.997C677.997 554.232 682.159 545.292 694.182 545.292C707.13 545.292 715.454 555.773 715.454 570.879C715.454 586.448 706.205 596.467 693.566 596.467C687.554 596.621 681.851 593.538 678.768 588.452H678.614C678.614 588.452 678.768 590.147 678.768 592.768V614.81H669.52V546.525ZM692.178 588.606C699.886 588.606 706.051 582.286 706.051 571.033C706.051 560.398 700.348 553.461 692.333 553.461C685.088 553.461 678.306 558.548 678.306 571.033C678.614 579.974 683.392 588.606 692.178 588.606Z" fill="white"/>
<path d="M726.859 546.525H735.337V550.687C735.337 551.92 735.337 552.999 735.183 554.232H735.337C735.337 554.232 739.499 545.292 751.522 545.292C764.47 545.292 772.794 555.773 772.794 570.879C772.794 586.448 763.545 596.467 750.906 596.467C744.894 596.621 739.191 593.538 736.108 588.452H735.954C735.954 588.452 736.108 590.147 736.108 592.768V614.81H726.859V546.525ZM749.518 588.606C757.225 588.606 763.545 582.286 763.545 571.033C763.545 560.398 757.842 553.461 749.827 553.461C742.582 553.461 735.8 558.548 735.8 571.033C735.954 579.974 740.732 588.606 749.518 588.606Z" fill="white"/>
<path d="M805.161 545.445C818.88 545.445 826.125 555.773 826.125 568.412C826.125 569.646 825.816 572.42 825.816 572.42H790.518C790.98 583.21 798.533 588.605 807.165 588.605C812.406 588.451 817.493 586.447 821.5 582.902L825.354 589.838C820.113 594.308 813.485 596.775 806.549 596.775C791.288 596.775 780.961 585.676 780.961 571.187C780.961 555.464 791.289 545.445 805.161 545.445ZM816.568 565.33C816.26 556.852 811.173 552.844 804.853 552.844C797.762 552.844 792.059 557.314 790.672 565.33H816.568Z" fill="white"/>
<path d="M836.766 527.257H846.014V580.59C846.014 586.447 848.326 587.526 851.101 587.526C851.717 587.526 852.18 587.526 852.796 587.372V595.696C851.717 595.85 850.793 595.85 849.714 595.85C844.473 595.85 836.766 594.309 836.766 582.131V527.257Z" fill="white"/>
<path d="M864.047 563.789H891.947V572.112H864.047V563.789Z" fill="white"/>
<path d="M907.82 546.525H916.761V552.999C916.761 554.232 916.761 555.311 916.606 556.544H916.761C919.689 549.916 926.163 545.6 933.408 545.292C941.578 545.292 946.356 549.145 947.897 556.39H948.051C951.134 549.762 957.917 545.446 965.315 545.292C976.26 545.292 981.346 551.611 981.346 564.097V595.388H972.098V566.101C972.098 559.164 970.71 553.769 963.466 553.769C956.683 553.769 951.597 559.627 949.901 566.255C949.439 568.413 949.131 570.725 949.285 573.037V595.388H940.036V566.101C940.036 559.781 939.111 553.769 931.558 553.769C924.468 553.769 919.535 559.627 917.685 566.717C917.223 568.875 917.069 571.033 917.069 573.037V595.388H907.82V546.525Z" fill="white"/>
<path d="M576.723 627.141H580.576V659.665C580.576 663.364 582.272 663.981 583.659 663.981C583.967 663.981 584.276 663.981 584.584 663.981V667.526C584.122 667.526 583.659 667.68 583.197 667.68C580.885 667.68 576.723 666.909 576.723 660.744V627.141Z" fill="white"/>
<path d="M602.927 637.931C610.788 637.931 614.642 644.096 614.642 651.187C614.642 651.803 614.488 653.191 614.488 653.191H592.754C592.908 660.59 597.841 664.597 603.698 664.597C606.935 664.597 610.018 663.364 612.33 661.052L614.025 663.981C611.097 666.447 607.397 667.988 603.544 667.988C595.528 668.143 589.054 661.977 588.746 653.961C588.746 653.653 588.746 653.345 588.746 652.882C588.9 643.48 595.22 637.931 602.927 637.931ZM610.788 649.954C610.634 643.942 606.935 641.168 602.773 641.168C597.995 641.168 593.987 644.251 593.062 649.954H610.788Z" fill="white"/>
<path d="M618.191 638.548H622.199L630.06 659.665C630.523 661.207 630.985 663.057 630.985 663.057H631.139C631.448 661.823 631.756 660.744 632.218 659.665L640.08 638.702H644.087L633.297 667.373H629.136L618.191 638.548Z" fill="white"/>
<path d="M661.347 637.931C669.209 637.931 673.062 644.096 673.062 651.187C673.062 651.803 672.908 653.191 672.908 653.191H651.328C651.482 660.59 656.415 664.597 662.272 664.597C665.509 664.597 668.592 663.364 670.904 661.052L672.6 663.981C669.671 666.447 665.972 667.988 662.118 667.988C654.103 668.143 647.629 661.977 647.32 653.961C647.32 653.653 647.32 653.345 647.32 652.882C647.32 643.48 653.64 637.931 661.347 637.931ZM669.209 649.954C668.9 643.942 665.355 641.168 661.193 641.168C656.415 641.168 652.407 644.251 651.482 649.954H669.209Z" fill="white"/>
<path d="M680.467 638.547H684.32V642.863C684.32 643.634 684.32 644.404 684.166 645.175H684.32C686.324 640.705 690.794 637.776 695.573 637.93C702.509 637.93 704.975 641.938 704.975 649.029V667.218H701.122V649.954C701.122 645.483 700.505 641.476 694.956 641.476C690.023 641.476 685.862 644.867 684.628 649.645C684.32 650.878 684.166 652.266 684.166 653.499V667.218H680.312L680.467 638.547Z" fill="white"/>
<path d="M724.55 637.931C728.403 637.777 731.949 639.935 733.798 643.326H733.953C733.953 643.326 733.798 642.401 733.798 641.168V627.141H737.652V667.218H733.953V664.135C733.953 663.518 733.953 662.748 734.107 662.131H733.953C732.103 665.83 728.403 668.143 724.242 667.834C716.689 667.834 711.91 661.669 711.91 652.728C711.91 643.788 717.151 637.931 724.55 637.931ZM724.704 664.443C729.482 664.443 733.798 661.052 733.798 652.882C733.798 647.025 730.87 641.322 724.858 641.322C719.926 641.322 715.764 645.638 715.764 652.882C715.764 660.127 719.463 664.443 724.704 664.443Z" fill="white"/>
<path d="M758.765 637.931C766.627 637.931 770.48 644.096 770.48 651.187C770.48 651.803 770.326 653.191 770.326 653.191H748.746C748.9 660.59 753.833 664.597 759.69 664.597C762.927 664.597 766.01 663.364 768.322 661.052L770.018 663.981C767.089 666.447 763.39 667.988 759.536 667.988C751.521 668.143 745.047 661.977 744.738 653.961C744.738 653.653 744.738 653.345 744.738 652.882C744.892 643.48 751.212 637.931 758.765 637.931ZM766.781 649.954C766.472 643.942 762.927 641.168 758.765 641.168C753.987 641.168 749.979 644.251 749.054 649.954H766.781Z" fill="white"/>
<path d="M793.141 627.141H796.994V641.014C796.994 641.784 796.994 642.555 796.84 643.48H796.994C798.844 639.935 802.543 637.777 806.551 637.931C814.104 637.931 818.882 644.096 818.882 653.037C818.882 661.977 813.487 667.988 806.089 667.988C802.235 667.988 798.536 665.83 796.84 662.439H796.686C796.84 663.21 796.84 663.981 796.84 664.751V667.372H793.141V627.141ZM805.78 664.597C810.713 664.597 814.875 660.281 814.875 653.037C814.875 646.1 811.175 641.476 805.934 641.476C801.156 641.476 796.84 644.867 796.84 653.037C796.84 658.74 799.769 664.597 805.78 664.597Z" fill="white"/>
<path d="M826.125 627.141H830.133V631.919H826.125V627.141ZM826.279 638.547H830.133V667.218H826.125L826.279 638.547Z" fill="white"/>
<path d="M838.922 627.141H842.775V659.665C842.775 663.364 844.471 663.981 846.012 663.981C846.321 663.981 846.629 663.981 846.937 663.981V667.526C846.475 667.526 846.012 667.68 845.396 667.68C843.084 667.68 838.922 666.91 838.922 660.744V627.141Z" fill="white"/>
<path d="M864.05 637.931C867.903 637.777 871.449 639.935 873.298 643.326H873.453C873.298 642.555 873.298 641.938 873.298 641.168V627.141H877.152V667.218H873.453V664.135C873.453 663.518 873.453 662.748 873.607 662.131H873.453C871.603 665.83 867.749 668.143 863.742 667.834C856.189 667.834 851.41 661.669 851.41 652.728C851.41 643.788 856.651 637.931 864.05 637.931ZM864.204 664.443C868.982 664.443 873.298 661.052 873.298 652.882C873.298 647.025 870.37 641.322 864.358 641.322C859.271 641.322 855.264 645.638 855.264 652.882C855.264 660.127 858.809 664.443 864.204 664.443Z" fill="white"/>
<path d="M898.113 637.931C905.974 637.931 909.828 644.096 909.828 651.187C909.828 651.803 909.674 653.191 909.674 653.191H888.094C888.248 660.59 893.18 664.597 899.038 664.597C902.275 664.597 905.358 663.364 907.67 661.052L909.365 663.981C906.437 666.447 902.737 667.988 898.884 667.988C890.868 668.143 884.394 661.977 884.086 653.961C884.086 653.653 884.086 653.345 884.086 652.882C884.24 643.48 890.56 637.931 898.113 637.931ZM906.128 649.954C905.974 643.942 902.275 641.168 898.113 641.168C893.335 641.168 889.327 644.251 888.402 649.954H906.128Z" fill="white"/>
<path d="M917.381 638.548H921.08V643.634C921.08 644.405 921.08 645.176 920.926 645.946H921.08C922.467 641.63 925.55 638.239 930.02 638.239C930.483 638.239 930.945 638.239 931.562 638.393V642.247C931.099 642.247 930.637 642.093 930.02 642.093C926.013 642.093 923.084 645.33 921.851 649.492C921.388 651.341 921.08 653.191 921.08 655.041V667.064H917.227L917.381 638.548Z" fill="white"/>
</svg>
