<svg width="1200" height="1200" viewBox="0 0 1200 1200" fill="none" xmlns="http://www.w3.org/2000/svg">
<rect width="1200" height="1200" fill="#FE6340"/>
<path d="M618 402V436H550V460H618V495H643V402H618ZM643 735H602L562 696L545 714L578 747L545 780L562 797L599 760H643V735ZM618 627H579C577.86 627.009 576.731 626.774 575.689 626.311C574.647 625.848 573.716 625.167 572.958 624.315C572.2 623.463 571.634 622.458 571.296 621.369C570.958 620.28 570.857 619.131 571 618C571 614 575 610 579 610H619V627H618ZM618 551V586L561 547L548 567L578 589H576C568.044 589 560.413 592.161 554.787 597.787C549.161 603.413 546 611.043 546 619C546 626.956 549.161 634.587 554.787 640.213C560.413 645.839 568.044 649 576 649H643V550H618V551Z" fill="#111111"/>
</svg>
