<svg width="1200" height="1200" viewBox="0 0 1200 1200" fill="none" xmlns="http://www.w3.org/2000/svg">
<rect width="1200" height="1200" fill="#F3F2EE"/>
<g clip-path="url(#clip0_2_1290)">
<path d="M997.267 593.803H919.415L974.474 539.595L966.192 531.444L911.138 585.652V509H899.43V585.652L844.371 531.444L836.094 539.595L891.148 593.803H813.297V605.33H891.148L836.094 659.537L844.371 667.688L899.43 613.48V690.132H911.138V613.48L966.192 667.688L974.474 659.537L919.415 605.33H997.267V593.803ZM905.282 605.33C902.057 605.33 899.43 602.744 899.43 599.566C899.43 596.388 902.057 593.803 905.282 593.803C908.512 593.803 911.138 596.388 911.138 599.566C911.138 602.744 908.512 605.33 905.282 605.33Z" fill="black"/>
<path d="M299.345 550.151L256.028 665.417H243.484L200 550.151H212.878L249.84 651.749L286.634 550.151H299.345Z" fill="black"/>
<path d="M336.719 572.893C313.639 572.893 300.092 584.749 298.754 604.179H310.461C311.967 590.348 322.169 582.938 336.719 582.938C350.099 582.938 359.13 589.195 359.13 599.734C359.13 606.979 354.28 611.26 339.897 611.26H329.527C307.284 611.26 295.242 621.634 295.242 638.924C295.242 657.531 308.789 667.411 326.685 667.411C342.406 667.411 355.618 659.507 360.301 645.017V665.435H371.339V664.991V602.698C371.339 585.243 360.301 572.893 336.719 572.893ZM359.632 623.281C359.632 646.993 344.412 657.531 328.691 657.531C313.807 657.531 307.451 648.31 307.451 638.924C307.451 630.197 313.138 621.14 329.862 621.14H337.89C350.434 621.14 357.458 617.353 359.465 610.602H359.632V623.281Z" fill="black"/>
<path d="M392.668 533.684H404.375V665.433H392.668V533.684Z" fill="black"/>
<path d="M446.858 584.73V639.729C446.858 649.773 451.04 655.537 459.569 655.537H468.6V665.417H457.897C442.844 665.417 435.151 656.854 435.151 641.211V584.73H416.754V574.851H435.151V550.151H446.858V574.851H468.6V584.73H446.858Z" fill="black"/>
<path d="M565.27 623.589H491.012C492.183 644.666 505.061 657.346 522.789 657.346C536.838 657.346 547.877 649.442 552.058 637.586H564.434C560.587 654.876 544.364 667.39 522.789 667.39C496.364 667.39 478.469 648.618 478.469 620.131C478.469 591.644 496.699 572.872 522.789 572.872C547.207 572.872 565.27 590.821 565.27 614.532V623.589ZM491.012 613.38H553.396C552.058 595.596 540.35 582.916 522.789 582.916C505.229 582.916 492.183 596.419 491.012 613.38Z" fill="black"/>
<path d="M576.977 619.967C576.977 592.138 593.869 572.872 622.133 572.872C647.889 572.872 662.106 589.339 664.112 609.428H651.736C650.566 595.267 640.196 582.916 622.133 582.916C601.729 582.916 589.353 598.231 589.353 619.967C589.353 642.855 603.569 657.346 622.133 657.346C640.698 657.346 650.064 643.843 651.736 632.646H664.112C661.603 650.924 647.053 667.39 622.133 667.39C595.206 667.39 576.977 648.618 576.977 619.967Z" fill="black"/>
<path d="M680.504 533.684H692.211V580.12C692.211 584.237 692.211 587.365 691.877 593.458H692.211C696.894 583.413 706.594 572.875 723.153 572.875C742.886 572.875 754.927 586.707 754.927 608.278V665.417H743.223V609.76C743.223 591.811 734.021 583.084 720.642 583.084C705.759 583.084 692.211 593.952 692.211 614.371V665.417H680.504V533.684Z" fill="black"/>
</g>
<defs>
<clipPath id="clip0_2_1290">
<rect width="800" height="181.132" fill="white" transform="translate(200 509)"/>
</clipPath>
</defs>
</svg>
