<svg width="1200" height="1200" viewBox="0 0 1200 1200" fill="none" xmlns="http://www.w3.org/2000/svg">
<rect width="1200" height="1200" fill="#0F1623"/>
<g clip-path="url(#clip0_1_310)">
<path fill-rule="evenodd" clip-rule="evenodd" d="M467.267 400L449.78 794.141H391.486L374 400H403.293L415.25 721.783C415.704 733.841 415.848 750.612 415.848 769.436H425.419C425.419 750.612 425.563 733.841 426.017 721.783L437.973 400H467.267Z" fill="#91EBC7"/>
<path fill-rule="evenodd" clip-rule="evenodd" d="M547.478 400H487.565L469.652 794.174H499.739L502.522 721.217H532.522L535.305 794.174H565.391L547.478 400ZM503.478 695.304L512 472.348C512.435 460.261 512.609 443.478 512.609 424.696H522.435C522.435 443.478 522.609 460.261 523.044 472.348L531.565 695.304H503.478Z" fill="#91EBC7"/>
<path fill-rule="evenodd" clip-rule="evenodd" d="M648 768.257V794.139H593.82V399.998H623.038V768.257H648Z" fill="#91EBC7"/>
<path fill-rule="evenodd" clip-rule="evenodd" d="M738.622 400L721.129 794.141H662.841L645.349 400H674.648L686.604 721.783C687.053 733.841 687.203 750.612 687.203 769.436H696.768C696.768 750.612 696.917 733.841 697.371 721.783L709.328 400H738.622Z" fill="#91EBC7"/>
<path fill-rule="evenodd" clip-rule="evenodd" d="M820.947 768.257V794.139H758.332V399.998H819.788V425.88H786.158V662.81H816.303V688.692H786.158V768.257H820.947Z" fill="#91EBC7"/>
</g>
<defs>
<clipPath id="clip0_1_310">
<rect width="452.174" height="400" fill="white" transform="translate(374 400)"/>
</clipPath>
</defs>
</svg>
