<svg width="1200" height="1200" viewBox="0 0 1200 1200" fill="none" xmlns="http://www.w3.org/2000/svg">
<rect width="1200" height="1200" fill="#090827"/>
<g clip-path="url(#clip0_7_690)">
<path d="M382.09 516.809L323.187 596.594L264.283 516.809H200.211L323.187 683.36L446.162 516.809H382.09Z" fill="url(#paint0_linear_7_690)"/>
<path d="M554.992 555.068C554.975 552.359 555.761 549.704 557.253 547.443C558.744 545.18 560.873 543.411 563.37 542.359C565.867 541.307 568.62 541.02 571.28 541.533C573.941 542.047 576.389 543.337 578.315 545.243C580.241 547.149 581.56 549.582 582.102 552.238C582.644 554.892 582.386 557.649 581.363 560.157C580.338 562.665 578.592 564.814 576.346 566.33C574.1 567.845 571.455 568.661 568.745 568.673C566.942 568.709 565.149 568.382 563.475 567.714C561.8 567.045 560.276 566.047 558.994 564.778C557.711 563.509 556.696 561.996 556.009 560.329C555.321 558.66 554.976 556.872 554.992 555.068ZM557.962 580.05H579.557V648.37H557.962V580.05ZM593.404 613.999C593.404 592.998 607.513 578.592 623.999 578.592C634.9 578.592 640.96 582.929 645.297 589.642V532.64H666.863V648.248H645.238L645.713 638.327C641.882 645.515 634.663 649.704 624.266 649.704C607.662 649.704 593.404 634.971 593.404 613.999ZM645.921 613.999C645.921 603.9 639.98 597.662 630.564 597.662C621.148 597.662 615.711 603.9 615.711 613.999C615.711 624.722 621.475 630.811 630.564 630.811C639.654 630.811 646.07 624.722 646.07 613.999H645.921ZM719.589 631.765C725.728 631.778 731.718 629.879 736.728 626.328L749.055 639.606C742.49 645.368 734.202 649.706 719.915 649.706C695.587 649.706 679.903 634.854 679.903 614.061C679.903 593.268 696.389 578.654 717.51 578.654C742.016 578.654 755.293 596.921 753.719 620.774H701.973C704.083 627.756 709.845 631.765 719.589 631.765ZM731.945 608.239C730.966 600.694 726.004 596.358 717.687 596.358C709.37 596.358 703.43 600.22 701.677 608.239H731.945ZM764.442 614.299C764.442 593.506 780.929 578.654 802.077 578.654C823.227 578.654 839.535 593.506 839.535 614.299C839.535 635.093 823.198 649.706 802.077 649.706C780.958 649.706 764.442 634.973 764.442 614.299ZM817.434 614.299C817.434 604.052 811.672 597.19 802.077 597.19C792.483 597.19 786.542 604.052 786.542 614.299C786.542 624.547 792.483 631.439 802.077 631.439C811.672 631.439 817.434 624.398 817.434 614.299ZM852.984 532.64H874.46V648.248H852.984V532.64ZM890.799 532.64H912.245V648.248H890.799V532.64ZM965.415 631.765C971.545 631.774 977.525 629.875 982.525 626.328L994.852 639.606C988.287 645.368 980.001 649.706 965.713 649.706C941.384 649.706 925.701 634.854 925.701 614.061C925.701 593.268 942.186 578.654 963.307 578.654C987.813 578.654 1001.09 596.921 999.516 620.774H947.801C949.88 627.756 955.642 631.765 965.415 631.765ZM977.743 608.239C976.763 600.694 971.801 596.358 963.485 596.358C955.168 596.358 949.227 600.22 947.474 608.239H977.743ZM547.745 580.045H525.913L509.011 610.403L492.14 580.045H470.277L509.011 649.701L547.745 580.045Z" fill="white"/>
</g>
<defs>
<linearGradient id="paint0_linear_7_690" x1="244.688" y1="469.228" x2="424.074" y2="636.914" gradientUnits="userSpaceOnUse">
<stop stop-color="#F11967"/>
<stop offset="1" stop-color="#960099"/>
</linearGradient>
<clipPath id="clip0_7_690">
<rect width="800" height="166.552" fill="white" transform="translate(200.211 516.809)"/>
</clipPath>
</defs>
</svg>
