<svg width="1200" height="1200" viewBox="0 0 1200 1200" fill="none" xmlns="http://www.w3.org/2000/svg">
<rect width="1200" height="1200" fill="url(#paint0_linear_1_155)"/>
<path d="M527.619 540.905C496.905 540.905 473.571 566.381 473.571 600.19C473.571 634 496.905 659.476 527.619 659.476C558.333 659.476 581.666 634 581.666 600.19C581.666 566.381 558.571 540.905 527.619 540.905ZM527.619 642.81C507.619 642.81 493.571 625.19 493.571 599.952C493.571 574.714 507.619 557.095 527.619 557.095C547.619 557.095 561.666 574.714 561.666 599.952C561.666 625.19 547.857 642.81 527.619 642.81ZM648.809 540.905C618.095 540.905 594.762 566.381 594.762 600.19C594.762 634 618.095 659.476 648.809 659.476C679.524 659.476 702.857 634 702.857 600.19C702.857 566.381 679.524 540.905 648.809 540.905ZM648.809 642.81C628.809 642.81 614.762 625.19 614.762 599.952C614.762 574.714 628.809 557.095 648.809 557.095C668.809 557.095 682.857 574.714 682.857 599.952C682.857 625.19 668.809 642.81 648.809 642.81ZM806.905 626.619C806.905 645.905 788.571 659.476 762.381 659.476C740 659.476 716.666 646.143 714.524 616.619L714.285 614H733.571L733.809 616.381C734.762 631.619 746.666 643.048 761.666 643.048C776.905 643.048 786.905 636.619 786.905 626.619C786.905 617.571 781.428 612.81 768.095 609.476L753.095 605.905C728.571 600.19 717.143 589.714 717.143 572.81C717.143 554.238 734.524 540.667 758.333 540.667C784.524 540.667 801.666 554.476 803.809 577.333L804.047 580.19H784.762L784.524 577.81C783.333 565.19 773.333 557.095 758.809 557.095C745.238 557.095 736.905 562.81 736.905 572.095C736.905 577.333 738.571 582.333 758.333 586.857L773.333 590.429C796.666 596.143 806.905 607.095 806.905 626.619ZM892.143 542.333H910.952V657.81H892.143V607.333H844.762V657.81H825.952V542.333H844.762V590.667H892.143V542.333ZM936.428 542.333H955.238V657.81H936.428V542.333ZM999.524 542.333V657.81H980.714V542.333H999.524ZM263.809 542.333L300.714 657.81H282.381L244.762 542.333H263.809ZM220 542.333L256.905 657.81H238.571L200.952 542.333H220ZM448.809 542.333H467.857L430.238 657.81H406.428L378.333 560.429L350 657.81H326.19L288.571 542.333H307.619L338.095 634.476L363.571 542.333H392.857L418.333 634.476L448.809 542.333Z" fill="white"/>
<defs>
<linearGradient id="paint0_linear_1_155" x1="2.09547e-07" y1="600" x2="1200" y2="600" gradientUnits="userSpaceOnUse">
<stop stop-color="#DC53FF"/>
<stop offset="1" stop-color="#A227EC"/>
</linearGradient>
</defs>
</svg>
